<svg xmlns="http://www.w3.org/2000/svg" xmlns:xlink="http://www.w3.org/1999/xlink" width="1000" zoomAndPan="magnify" viewBox="0 0 750 149.999998" height="200" preserveAspectRatio="xMidYMid meet" version="1.0"><defs><g/><clipPath id="4938a236bc"><path d="M 47 109 L 68 109 L 68 126.195312 L 47 126.195312 Z M 47 109 " clip-rule="nonzero"/></clipPath><clipPath id="0aa8f3a719"><path d="M 3.710938 42 L 19 42 L 19 59 L 3.710938 59 Z M 3.710938 42 " clip-rule="nonzero"/></clipPath><clipPath id="5b32fb8665"><path d="M 78 62 L 91.460938 62 L 91.460938 81 L 78 81 Z M 78 62 " clip-rule="nonzero"/></clipPath><clipPath id="c2c28a0a35"><path d="M 3.710938 41 L 15 41 L 15 50 L 3.710938 50 Z M 3.710938 41 " clip-rule="nonzero"/></clipPath><clipPath id="ceaecc7c1e"><path d="M 3.710938 56 L 11 56 L 11 63 L 3.710938 63 Z M 3.710938 56 " clip-rule="nonzero"/></clipPath></defs><g fill="#ffffff" fill-opacity="1"><g transform="translate(111.20301, 102.43366)"><g><path d="M 14.875 0 L 0.15625 0 L 20.359375 -59.078125 L 35.390625 -59.078125 L 55.59375 0 L 40.890625 0 L 37.71875 -10.609375 L 18.046875 -10.609375 Z M 27.875 -43.671875 L 21.6875 -22.609375 L 34.078125 -22.609375 Z M 27.875 -43.671875 "/></g></g></g><g fill="#ffffff" fill-opacity="1"><g transform="translate(170.813555, 102.43366)"><g><path d="M 18.5 0 L 4.640625 0 L 4.640625 -59.078125 L 44.984375 -59.078125 L 44.984375 -46.6875 L 18.5 -46.6875 L 18.5 -35.703125 L 42.4375 -35.703125 L 42.4375 -23.390625 L 18.5 -23.390625 Z M 18.5 0 "/></g></g></g><g fill="#ffffff" fill-opacity="1"><g transform="translate(221.598907, 102.43366)"><g><path d="M 42.75 -25.328125 L 52.96875 0 L 38.328125 0 L 29.734375 -22.765625 L 18.5 -22.765625 L 18.5 0 L 4.640625 0 L 4.640625 -59.078125 L 32.53125 -59.078125 C 36.132812 -59.078125 39.34375 -58.484375 42.15625 -57.296875 C 44.976562 -56.109375 47.1875 -54.210938 48.78125 -51.609375 C 50.382812 -49.003906 51.1875 -45.5625 51.1875 -41.28125 C 51.1875 -37.507812 50.425781 -34.28125 48.90625 -31.59375 C 47.382812 -28.90625 45.332031 -26.816406 42.75 -25.328125 Z M 30.59375 -46.6875 L 18.5 -46.6875 L 18.5 -34.765625 L 30.59375 -34.765625 C 35.1875 -34.765625 37.484375 -36.78125 37.484375 -40.8125 C 37.484375 -44.726562 35.1875 -46.6875 30.59375 -46.6875 Z M 30.59375 -46.6875 "/></g></g></g><g fill="#ffffff" fill-opacity="1"><g transform="translate(280.280474, 102.43366)"><g><path d="M 18.5 0 L 4.640625 0 L 4.640625 -59.078125 L 18.5 -59.078125 Z M 18.5 0 "/></g></g></g><g fill="#ffffff" fill-opacity="1"><g transform="translate(307.377155, 102.43366)"><g><path d="M 18.5 0 L 4.640625 0 L 4.640625 -59.078125 L 18.5 -59.078125 L 18.5 -33.453125 L 36.859375 -59.078125 L 53.515625 -59.078125 L 31.828125 -30.4375 L 53.8125 0 L 37.015625 0 L 18.5 -26.484375 Z M 18.5 0 "/></g></g></g><g fill="#ffffff" fill-opacity="1"><g transform="translate(365.052345, 102.43366)"><g><path d="M 14.875 0 L 0.15625 0 L 20.359375 -59.078125 L 35.390625 -59.078125 L 55.59375 0 L 40.890625 0 L 37.71875 -10.609375 L 18.046875 -10.609375 Z M 27.875 -43.671875 L 21.6875 -22.609375 L 34.078125 -22.609375 Z M 27.875 -43.671875 "/></g></g></g><g fill="#ffffff" fill-opacity="1"><g transform="translate(424.683788, 102.43366)"><g/></g></g><path fill="#01943e" d="M 20.859375 36.191406 C 21 36.132812 21.105469 36.121094 21.164062 36.0625 C 21.722656 35.503906 22.410156 35.398438 23.140625 35.492188 C 23.828125 35.585938 24.203125 35.296875 24.339844 34.5625 C 23.363281 33.78125 23.363281 32.535156 22.992188 31.347656 C 24.269531 30.636719 25.492188 29.902344 26.773438 29.261719 C 27.191406 29.050781 27.75 29.085938 28.238281 29.0625 C 30.824219 28.902344 33.417969 28.761719 36.003906 28.609375 C 36.09375 28.609375 36.175781 28.644531 36.339844 28.679688 C 36.234375 29.542969 36.164062 30.402344 36.035156 31.253906 C 36.003906 31.488281 35.851562 31.707031 35.710938 31.90625 C 35.535156 32.152344 35.304688 32.371094 35.105469 32.605469 C 35.351562 33.523438 35.804688 34.246094 36.539062 34.769531 C 37.003906 35.109375 37.246094 35.539062 37.328125 36.085938 C 37.421875 36.761719 37.492188 37.4375 37.597656 38.101562 C 37.632812 38.3125 37.6875 38.53125 37.792969 38.71875 C 38.457031 39.929688 38.074219 41.234375 38.109375 42.492188 C 38.121094 42.738281 37.769531 42.980469 37.550781 43.285156 C 37.710938 43.484375 37.910156 43.667969 38.050781 43.902344 C 38.238281 44.214844 38.433594 44.554688 38.492188 44.902344 C 38.574219 45.4375 38.816406 45.683594 39.355469 45.683594 C 40.074219 45.683594 40.484375 46.101562 40.75 46.800781 C 39.65625 47.511719 38.574219 48.234375 37.46875 48.933594 C 36.117188 49.773438 34.769531 50.632812 33.652344 51.785156 C 33.046875 52.414062 32.277344 52.460938 31.519531 52.601562 C 31.03125 52.695312 30.53125 52.742188 29.984375 52.824219 C 29.9375 52.484375 29.902344 52.160156 29.84375 51.75 C 29.390625 51.566406 28.902344 51.390625 28.425781 51.179688 C 27.984375 50.984375 27.496094 50.902344 27.378906 50.261719 C 27.332031 50.027344 26.949219 49.851562 26.691406 49.679688 C 22.992188 47.304688 19.289062 44.925781 15.578125 42.550781 C 14.671875 41.96875 14.4375 41.445312 14.636719 40.375 C 14.660156 40.257812 14.703125 40.105469 14.785156 40.046875 C 15.425781 39.628906 15.9375 38.976562 16.765625 38.871094 C 16.824219 38.859375 16.882812 38.824219 16.9375 38.824219 C 18.324219 38.765625 19.382812 38.03125 20.417969 37.195312 C 20.769531 36.914062 21.011719 36.644531 20.859375 36.191406 Z M 20.859375 36.191406 " fill-opacity="1" fill-rule="nonzero"/><path fill="#f9a202" d="M 56.148438 66.71875 C 56.171875 66.507812 56.160156 66.34375 56.203125 66.203125 C 56.390625 65.609375 56.226562 65.109375 55.820312 64.65625 C 55.472656 64.273438 55.25 63.839844 55.484375 63.457031 C 55.238281 62.933594 55.054688 62.511719 54.84375 62.105469 C 54.703125 61.835938 54.539062 61.582031 54.390625 61.3125 C 54.320312 61.3125 54.238281 61.324219 54.167969 61.324219 C 54.574219 60.125 54.984375 58.914062 55.402344 57.679688 C 55.855469 57.644531 56.285156 57.597656 56.832031 57.550781 C 56.890625 56.585938 56.855469 55.628906 56.855469 54.664062 C 56.867188 53.730469 56.855469 52.789062 56.855469 51.785156 C 57.277344 51.75 57.671875 51.714844 58.160156 51.671875 C 58.160156 50.832031 58.160156 50.003906 58.160156 49.121094 C 58.566406 49.097656 58.871094 49.074219 59.171875 49.074219 C 61.234375 49.074219 63.304688 49.144531 65.363281 49.039062 C 66.226562 48.992188 67.0625 49.121094 67.925781 49.074219 C 68.761719 49.027344 69.613281 49.0625 70.460938 49.0625 C 71.335938 49.0625 72.207031 49.0625 73.171875 49.0625 C 73.277344 49.386719 73.394531 49.691406 73.464844 50.015625 C 73.535156 50.355469 73.570312 50.703125 73.558594 51.042969 C 73.535156 52.195312 73.59375 53.289062 74.789062 53.917969 C 74.929688 54 75 54.210938 75.128906 54.394531 C 74.570312 55.023438 74.011719 55.59375 73.054688 55.59375 C 72.90625 56.898438 72.464844 58.097656 72.464844 59.402344 C 72.464844 60.171875 72.40625 61.023438 71.625 61.558594 C 71.414062 61.699219 71.335938 62.023438 71.21875 62.28125 C 71.066406 62.59375 70.9375 62.910156 70.796875 63.222656 C 70.507812 63.851562 70.507812 63.851562 69.738281 64.039062 C 69.613281 65.015625 69.484375 66.03125 69.355469 67.054688 C 69.03125 67.089844 68.75 67.125 68.402344 67.171875 C 68.296875 67.566406 68.191406 67.976562 68.0625 68.441406 C 69.332031 68.558594 69.796875 69.441406 70.25 70.339844 C 70.542969 70.898438 70.683594 71.597656 71.4375 71.808594 C 71.507812 71.832031 71.53125 72.074219 71.589844 72.273438 C 71.390625 72.308594 71.253906 72.378906 71.113281 72.367188 C 70.25 72.308594 69.519531 72.484375 69.019531 73.273438 C 68.925781 73.425781 68.65625 73.519531 68.460938 73.53125 C 67.585938 73.601562 66.714844 73.625 65.839844 73.707031 C 65.398438 73.742188 65.050781 73.636719 64.769531 73.273438 C 64.628906 73.101562 64.457031 72.972656 64.316406 72.808594 C 64.050781 72.496094 63.769531 72.355469 63.328125 72.496094 C 62.941406 72.609375 62.535156 72.621094 62.082031 72.691406 C 61.105469 71.527344 60.117188 70.363281 59.125 69.199219 C 58.789062 68.789062 58.484375 68.347656 58.113281 67.964844 C 57.835938 67.683594 57.484375 67.460938 57.160156 67.242188 C 56.84375 67.054688 56.53125 66.914062 56.148438 66.71875 Z M 56.148438 66.71875 " fill-opacity="1" fill-rule="nonzero"/><path fill="#9b0f24" d="M 42.308594 86.855469 C 42.285156 86.644531 42.226562 86.421875 42.238281 86.214844 C 42.273438 85.5625 42.53125 85.410156 43.183594 85.621094 C 43.496094 85.375 43.789062 85.128906 44.183594 84.816406 C 44.289062 85.164062 44.359375 85.386719 44.449219 85.691406 C 44.660156 85.609375 44.894531 85.585938 45.019531 85.457031 C 45.554688 84.933594 46.058594 84.375 46.59375 83.847656 C 46.882812 83.570312 46.90625 83.230469 46.859375 82.90625 C 46.71875 82.007812 47.046875 81.332031 47.734375 80.785156 C 48.546875 80.144531 48.929688 79.308594 48.917969 78.28125 C 48.917969 77.851562 48.964844 77.410156 48.988281 76.964844 C 49.023438 76.269531 49.140625 75.617188 49.535156 75.011719 C 49.710938 74.742188 49.875 74.359375 49.839844 74.054688 C 49.710938 73.03125 50.222656 72.484375 51.144531 72.085938 C 51.992188 73.113281 53.308594 73.113281 54.519531 73.472656 C 54.785156 73.15625 55.054688 72.867188 55.320312 72.5625 C 56.308594 72.703125 57.265625 72.4375 58.078125 71.992188 C 58.648438 71.679688 59.125 71.738281 59.671875 71.808594 C 59.789062 71.820312 59.90625 71.898438 60.023438 71.921875 C 60.417969 72.015625 60.847656 72.039062 61.1875 72.226562 C 61.5 72.402344 61.710938 72.738281 61.988281 73.042969 C 62.558594 72.949219 63.140625 72.855469 63.957031 72.714844 C 64.105469 72.914062 64.292969 73.261719 64.574219 73.496094 C 65.039062 73.902344 65.292969 74.359375 65.109375 74.964844 C 64.957031 75.464844 65.28125 75.707031 65.714844 76.011719 C 64.015625 77.070312 63.546875 78.679688 63.558594 80.542969 C 63.386719 80.648438 63.1875 80.773438 63.023438 80.878906 C 62.941406 81.300781 62.875 81.648438 62.828125 82.007812 C 62.804688 82.160156 62.769531 82.335938 62.828125 82.464844 C 63.246094 83.417969 63.304688 84.421875 63.269531 85.445312 C 63.269531 85.621094 63.351562 85.804688 63.398438 85.980469 C 63.457031 86.15625 63.605469 86.375 63.558594 86.503906 C 63.257812 87.320312 63.839844 87.761719 64.234375 88.308594 C 64.527344 88.707031 64.699219 89.183594 64.96875 89.71875 C 64.527344 89.8125 64.140625 89.894531 63.757812 89.953125 C 62.617188 90.128906 61.953125 90.941406 62.1875 92.023438 C 62.382812 92.945312 62.382812 93.820312 62 94.667969 C 62.628906 95.378906 62.875 95.507812 63.78125 95.648438 C 63.792969 95.9375 63.816406 96.242188 63.828125 96.566406 C 63.445312 96.800781 63.1875 96.824219 62.898438 96.394531 C 62.664062 96.042969 62.316406 95.695312 61.929688 95.542969 C 61.371094 95.308594 61.011719 94.9375 60.730469 94.414062 C 60.3125 94.484375 60.070312 95.042969 59.546875 94.761719 C 59.101562 94.519531 58.472656 94.585938 58.277344 93.921875 C 57.984375 93.980469 57.71875 94.039062 57.390625 94.109375 C 57.171875 93.574219 56.742188 93.457031 56.195312 93.527344 C 55.644531 93.609375 55.097656 93.644531 54.496094 93.714844 C 54.425781 93.015625 54.519531 92.351562 54.027344 91.804688 C 53.890625 91.652344 53.96875 91.246094 54.039062 90.988281 C 54.25 90.171875 54.0625 89.382812 53.960938 88.519531 C 53.667969 88.496094 53.390625 88.484375 53.121094 88.460938 C 52.933594 88.449219 52.738281 88.460938 52.5625 88.402344 C 51.714844 88.078125 51.714844 88.078125 50.921875 88.148438 C 50.78125 88.554688 50.640625 88.984375 50.46875 89.488281 C 49.828125 89.519531 49.175781 89.554688 48.453125 89.601562 C 48.023438 88.601562 47.59375 87.613281 47.128906 86.5625 C 45.613281 86.5625 44.125 86.5625 42.625 86.574219 C 42.484375 86.574219 42.355469 86.703125 42.214844 86.773438 Z M 42.308594 86.855469 " fill-opacity="1" fill-rule="nonzero"/><path fill="#01943e" d="M 43.859375 47.769531 C 43.355469 47.152344 42.660156 46.929688 41.902344 46.8125 C 41.507812 46.753906 41.085938 46.695312 40.878906 46.265625 C 40.550781 45.601562 40.003906 45.324219 39.285156 45.324219 C 39.203125 45.324219 39.109375 45.265625 39.144531 45.277344 C 38.785156 44.566406 38.46875 43.9375 38.121094 43.238281 C 38.839844 42.574219 38.398438 41.597656 38.515625 40.699219 C 38.644531 39.753906 38.339844 38.917969 37.851562 38.089844 C 38.703125 37.589844 39.320312 37.007812 38.886719 35.960938 C 39.15625 35.773438 39.367188 35.585938 39.609375 35.457031 C 40.238281 35.121094 40.785156 34.734375 40.632812 33.816406 C 42.203125 33.957031 43.636719 34.386719 45.136719 34.667969 C 45.195312 34.875 45.265625 35.074219 45.3125 35.285156 C 45.371094 35.597656 45.566406 35.761719 45.847656 35.867188 C 47.152344 36.378906 48.453125 36.914062 49.769531 37.402344 C 50.769531 37.777344 51.5625 37.195312 51.585938 36.109375 C 51.597656 35.703125 51.585938 35.308594 51.585938 34.875 C 52.003906 34.667969 52.375 34.515625 52.726562 34.316406 C 53.550781 33.839844 54.367188 34.269531 55.191406 34.304688 C 55.285156 34.304688 55.367188 34.65625 55.496094 34.921875 C 56.238281 35.0625 57.054688 35.226562 57.902344 35.386719 C 57.402344 36.589844 57.3125 37.730469 57.753906 38.90625 C 57.824219 39.105469 57.835938 39.335938 57.835938 39.546875 C 57.835938 43.332031 57.835938 47.117188 57.835938 50.902344 C 57.835938 51.019531 57.8125 51.132812 57.800781 51.25 C 57.34375 51.542969 56.578125 51.019531 56.414062 51.890625 C 53.738281 50.550781 51.085938 49.222656 48.429688 47.898438 C 47.710938 47.535156 46.988281 46.964844 46.242188 46.929688 C 45.535156 46.894531 44.800781 47.441406 44.078125 47.734375 C 44.03125 47.757812 44.007812 47.746094 43.859375 47.769531 Z M 43.859375 47.769531 " fill-opacity="1" fill-rule="nonzero"/><g clip-path="url(#4938a236bc)"><path fill="#f9a202" d="M 51.804688 112.988281 C 52.527344 113.769531 52.261719 114.457031 52.027344 115.109375 C 53.296875 116.074219 54.472656 115.503906 55.542969 113.410156 C 56.496094 113.558594 57.378906 114.386719 58.519531 113.828125 C 58.554688 113.769531 58.660156 113.640625 58.707031 113.5 C 58.894531 112.859375 59.207031 112.382812 59.929688 112.265625 C 60.230469 112.21875 60.417969 111.988281 60.417969 111.660156 C 60.40625 111.03125 60.90625 110.753906 61.289062 110.402344 C 61.675781 110.054688 61.976562 109.625 62.628906 109.679688 C 62.886719 109.703125 63.175781 109.367188 63.546875 109.132812 C 64.152344 109.25 64.875 109.390625 65.644531 109.53125 C 66.015625 110.925781 66.808594 112.230469 66.421875 113.757812 C 66.167969 113.792969 65.839844 113.746094 65.691406 113.886719 C 65.398438 114.152344 65.144531 114.503906 65.015625 114.863281 C 64.875 115.25 65.539062 116.097656 66.015625 116.179688 C 66.214844 116.214844 66.492188 116.085938 66.644531 115.9375 C 66.910156 115.679688 67.15625 115.480469 67.574219 115.726562 C 67.445312 116.285156 67.34375 116.867188 67.167969 117.425781 C 67.097656 117.636719 66.886719 117.824219 66.726562 117.996094 C 66.386719 118.359375 66.015625 118.683594 65.691406 119.058594 C 65.480469 119.289062 65.292969 119.546875 65.132812 119.8125 C 64.117188 121.539062 62.59375 122.808594 61.152344 124.136719 C 60.871094 124.390625 60.464844 124.554688 60.09375 124.695312 C 58.824219 125.148438 57.542969 125.542969 56.171875 125.21875 C 55.890625 125.148438 55.554688 125.230469 55.25 125.289062 C 54.519531 125.4375 53.773438 125.554688 53.0625 125.789062 C 51.851562 126.195312 50.734375 126.011719 49.675781 125.402344 C 49.488281 124.808594 49.304688 124.238281 49.105469 123.609375 C 49.746094 123.050781 49.769531 122.515625 49.199219 121.792969 C 48.953125 121.480469 48.746094 121.128906 48.582031 120.757812 C 48.164062 119.8125 47.78125 118.871094 47.359375 117.84375 C 47.511719 117.683594 47.710938 117.472656 47.917969 117.25 C 48.140625 117.542969 48.269531 117.914062 48.523438 118.03125 C 48.863281 118.195312 49.304688 118.242188 49.6875 118.21875 C 50.164062 118.183594 50.640625 118.347656 51.121094 118.007812 C 51.539062 117.707031 51.792969 117.4375 51.769531 116.890625 C 51.722656 115.890625 51.757812 114.886719 51.757812 113.886719 C 51.746094 113.628906 51.78125 113.386719 51.804688 112.988281 Z M 60.429688 118.976562 C 60.707031 120.292969 60.640625 120.382812 61.78125 120.558594 C 62.152344 120.292969 62.488281 120.023438 62.851562 119.824219 C 63.339844 119.546875 63.640625 119.160156 63.722656 118.566406 C 63.234375 118.242188 62.746094 117.914062 62.199219 117.542969 C 61.582031 118.042969 60.988281 118.519531 60.429688 118.976562 Z M 60.429688 118.976562 " fill-opacity="1" fill-rule="nonzero"/></g><path fill="#f9a202" d="M 56.484375 52.324219 C 56.484375 53.964844 56.484375 55.546875 56.484375 57.203125 C 56.066406 57.238281 55.667969 57.273438 55.179688 57.320312 C 54.925781 58.027344 54.65625 58.75 54.414062 59.484375 C 54.179688 60.195312 53.960938 60.90625 53.714844 61.6875 C 53.96875 61.78125 54.191406 61.859375 54.34375 61.90625 C 54.609375 62.464844 54.855469 62.992188 55.121094 63.574219 C 55.019531 63.609375 54.890625 63.679688 54.773438 63.679688 C 54.167969 63.679688 53.691406 64.015625 53.585938 64.503906 C 53.492188 64.945312 53.238281 65.121094 52.980469 65.378906 C 52.398438 65.960938 51.734375 66.285156 50.898438 66.214844 C 50.628906 66.195312 50.351562 66.285156 50.003906 66.320312 C 50.003906 66.519531 50.003906 66.695312 50.003906 66.867188 C 50.003906 67.324219 49.78125 67.625 49.363281 67.777344 C 49.011719 67.90625 48.652344 68 48.292969 68.125 C 47.835938 68.289062 47.382812 68.488281 47.058594 67.929688 C 46.683594 68.101562 46.382812 68.242188 46.058594 68.394531 C 45.742188 67.882812 45.488281 67.359375 45.125 66.902344 C 44.789062 66.472656 44.359375 66.113281 43.9375 65.691406 C 44.601562 65.167969 45.371094 65.574219 45.976562 65.214844 C 45.953125 65.097656 45.964844 64.992188 45.917969 64.9375 C 45.464844 64.398438 45.347656 63.78125 45.417969 63.09375 C 45.488281 62.363281 45.21875 61.746094 44.730469 61.21875 C 44.613281 61.09375 44.449219 60.988281 44.289062 60.917969 C 43.402344 60.554688 43.089844 59.671875 43.625 58.902344 C 44.242188 58.007812 44.917969 57.144531 45.535156 56.234375 C 45.730469 55.933594 45.917969 55.582031 45.964844 55.222656 C 46.148438 53.988281 46.289062 52.742188 46.429688 51.507812 C 46.453125 51.273438 46.464844 50.960938 46.335938 50.808594 C 45.589844 49.898438 45.554688 48.792969 45.335938 47.640625 C 45.636719 47.5 45.976562 47.347656 46.300781 47.199219 C 49.699219 48.910156 53.085938 50.621094 56.484375 52.324219 Z M 56.484375 52.324219 " fill-opacity="1" fill-rule="nonzero"/><path fill="#01943e" d="M 19.128906 62.628906 C 18.730469 63.328125 18.953125 64.179688 18.394531 64.84375 C 18.195312 64.703125 18.011719 64.574219 17.800781 64.433594 C 17.195312 64.609375 16.671875 65.121094 15.789062 64.84375 C 15.34375 63.980469 14.84375 62.992188 14.320312 61.953125 C 13.332031 62.511719 12.367188 62.710938 11.539062 62.222656 C 11.214844 61.570312 10.945312 61.058594 10.621094 60.40625 C 10.585938 60.148438 10.515625 59.707031 10.421875 59.125 C 10.574219 58.878906 10.792969 58.507812 11.0625 58.050781 C 11.679688 58.9375 12.4375 58.566406 13.121094 58.332031 C 13.726562 58.121094 14.320312 58.050781 14.949219 58.050781 C 16.230469 58.0625 17.496094 58.050781 18.8125 58.050781 C 18.964844 57.609375 19.09375 57.238281 19.242188 56.804688 C 18.683594 56.480469 18.636719 55.945312 18.570312 55.375 C 18.3125 53.078125 18.023438 50.785156 17.742188 48.492188 C 17.613281 47.441406 17.507812 46.394531 17.382812 45.300781 C 18.394531 45.195312 19.242188 45.21875 20.09375 45.800781 C 22.210938 47.246094 24.386719 48.582031 26.539062 49.957031 C 26.796875 50.121094 27.050781 50.261719 27.109375 50.644531 C 27.144531 50.832031 27.402344 51.042969 27.597656 51.132812 C 28.203125 51.4375 28.84375 51.695312 29.484375 51.972656 C 29.507812 52.34375 29.542969 52.71875 29.578125 53.183594 C 30.054688 53.136719 30.472656 53.101562 30.996094 53.054688 C 30.960938 54.675781 31.371094 56.351562 29.960938 57.84375 C 29.496094 57.867188 28.878906 57.878906 28.261719 57.914062 C 27.984375 57.925781 27.632812 57.902344 27.460938 58.050781 C 26.984375 58.449219 26.503906 58.425781 25.96875 58.308594 C 25.332031 58.167969 24.761719 58.320312 24.191406 58.65625 C 23.117188 59.296875 22.070312 59.949219 21.175781 60.871094 C 21 60.824219 20.839844 60.777344 20.605469 60.707031 C 20.558594 60.777344 20.5 60.847656 20.453125 60.917969 C 20.371094 61.082031 20.28125 61.253906 20.222656 61.429688 C 20.046875 62.046875 19.742188 62.523438 19.128906 62.628906 Z M 19.128906 62.628906 " fill-opacity="1" fill-rule="nonzero"/><path fill="#9b0f24" d="M 54.167969 94.132812 C 54.902344 94.074219 55.554688 94.015625 56.238281 93.957031 C 56.449219 94.65625 56.308594 95.367188 56.332031 96.171875 C 55.578125 96.171875 54.855469 96.171875 54.074219 96.171875 C 54.015625 96.472656 53.949219 96.683594 53.949219 96.882812 C 53.9375 97.976562 53.949219 99.070312 53.9375 100.167969 C 53.9375 100.5625 54.015625 100.886719 54.285156 101.191406 C 54.667969 101.632812 55.007812 102.121094 55.425781 102.648438 C 53.644531 103.136719 51.957031 103.242188 50.269531 102.566406 C 49.792969 102.367188 49.246094 102.285156 48.734375 102.273438 C 47.359375 102.238281 45.988281 102.261719 44.613281 102.261719 C 44.242188 102.261719 43.902344 102.226562 43.554688 101.996094 C 43.300781 101.820312 42.773438 101.773438 42.519531 101.925781 C 42.101562 102.167969 41.761719 102.121094 41.34375 101.972656 C 41.261719 101.203125 41.203125 100.433594 41.460938 99.664062 C 41.566406 99.339844 41.65625 99 41.714844 98.664062 C 41.914062 97.523438 42.460938 96.554688 43.289062 95.765625 C 43.613281 95.460938 43.683594 95.136719 43.648438 94.679688 C 43.566406 93.714844 43.414062 92.757812 43.007812 91.875 C 42.761719 91.339844 42.738281 90.859375 43.195312 90.429688 C 42.796875 89.441406 42.414062 88.496094 41.984375 87.4375 C 42.285156 87.273438 42.566406 86.992188 42.855469 86.984375 C 44.230469 86.9375 45.589844 86.960938 46.988281 86.960938 C 47.429688 87.984375 47.847656 88.960938 48.246094 89.894531 C 49.105469 89.894531 49.910156 89.894531 50.78125 89.894531 C 50.945312 89.417969 51.085938 88.984375 51.269531 88.4375 C 52.050781 88.601562 52.820312 88.765625 53.667969 88.9375 C 53.890625 89.683594 53.832031 90.476562 53.714844 91.28125 C 53.65625 91.664062 53.667969 91.992188 53.9375 92.328125 C 54.085938 92.515625 54.097656 92.839844 54.132812 93.109375 C 54.15625 93.445312 54.15625 93.75 54.167969 94.132812 Z M 54.167969 94.132812 " fill-opacity="1" fill-rule="nonzero"/><path fill="#01943e" d="M 26.332031 58.855469 C 26.632812 58.808594 26.902344 58.855469 27.039062 58.738281 C 27.738281 58.144531 28.566406 58.25 29.367188 58.273438 C 30.042969 58.285156 30.425781 58.0625 30.765625 57.457031 C 31.242188 56.609375 31.488281 55.757812 31.40625 54.792969 C 31.359375 54.234375 31.394531 53.671875 31.394531 53.054688 C 31.648438 52.984375 31.871094 52.871094 32.101562 52.871094 C 32.730469 52.859375 33.242188 52.625 33.6875 52.183594 C 35.304688 50.597656 37.269531 49.480469 39.144531 48.257812 C 39.398438 48.082031 39.667969 47.921875 39.925781 47.746094 C 41.15625 46.953125 41.15625 46.941406 42.578125 47.347656 C 42.832031 47.417969 43.125 47.535156 43.300781 47.734375 C 43.683594 48.152344 44.066406 48.199219 44.542969 47.921875 C 44.648438 47.863281 44.765625 47.828125 44.929688 47.757812 C 44.996094 48.023438 45.054688 48.234375 45.089844 48.433594 C 45.242188 49.257812 45.347656 50.085938 45.90625 50.785156 C 46.058594 50.972656 46.070312 51.308594 46.035156 51.578125 C 45.90625 52.789062 45.765625 54 45.589844 55.199219 C 45.542969 55.523438 45.371094 55.839844 45.183594 56.121094 C 44.695312 56.839844 44.171875 57.539062 43.660156 58.25 C 43.34375 58.703125 42.914062 59.101562 42.984375 59.742188 C 42.996094 59.859375 42.867188 60.042969 42.75 60.101562 C 42.203125 60.382812 41.703125 60.789062 41.019531 60.707031 C 40.527344 60.660156 40.015625 60.695312 39.515625 60.695312 C 39.027344 60.695312 38.503906 60.589844 38.167969 61.117188 C 38.109375 61.207031 37.886719 61.242188 37.746094 61.230469 C 37.5625 61.21875 37.363281 61.183594 37.210938 61.09375 C 36.410156 60.566406 35.605469 60.21875 34.863281 60.988281 C 34.675781 60.894531 34.605469 60.871094 34.558594 60.835938 C 34.292969 60.542969 34.046875 60.042969 33.746094 59.996094 C 33.046875 59.902344 32.3125 59.996094 31.601562 60.078125 C 31.441406 60.101562 31.253906 60.335938 31.160156 60.511719 C 30.824219 61.128906 30.53125 61.769531 30.21875 62.410156 C 29.496094 61.953125 29.496094 61.953125 28.867188 62.140625 C 28.75 61.300781 27.519531 61.664062 27.390625 60.730469 C 27.308594 60.019531 26.226562 59.8125 26.332031 58.855469 Z M 26.332031 58.855469 " fill-opacity="1" fill-rule="nonzero"/><path fill="#f9a202" d="M 58.183594 48.675781 C 58.183594 48.316406 58.183594 48.011719 58.183594 47.710938 C 58.183594 45.089844 58.183594 42.457031 58.183594 39.835938 C 58.183594 39.59375 58.265625 39.289062 58.148438 39.09375 C 57.671875 38.242188 57.9375 37.332031 57.859375 36.460938 C 57.824219 36.050781 58.113281 35.832031 58.578125 35.832031 C 59.683594 35.832031 60.742188 36.0625 61.78125 36.414062 C 62.582031 36.679688 63.292969 36.621094 64.117188 36.320312 C 65.121094 35.949219 66.203125 35.691406 67.296875 36.191406 C 67.585938 36.320312 67.960938 36.320312 68.296875 36.332031 C 68.820312 36.355469 69.34375 36.332031 69.832031 36.332031 C 70.578125 37.800781 70.730469 39.21875 69.878906 40.664062 C 69.507812 40.746094 69.226562 40.605469 69.007812 40.222656 C 68.597656 39.488281 68.167969 38.777344 67.738281 38.042969 C 67.296875 38.21875 67.296875 38.476562 67.492188 38.847656 C 68.714844 41.128906 69.914062 43.414062 71.136719 45.695312 C 71.347656 46.089844 71.566406 46.453125 71.496094 46.917969 C 71.4375 47.269531 71.589844 47.5 71.871094 47.699219 C 72.242188 47.964844 72.578125 48.28125 73.078125 48.6875 C 72.160156 48.6875 71.425781 48.6875 70.683594 48.6875 C 69.53125 48.6875 68.367188 48.699219 67.214844 48.675781 C 66.863281 48.664062 66.515625 48.550781 66.097656 48.46875 C 65.839844 48.527344 65.492188 48.675781 65.144531 48.6875 C 62.988281 48.710938 60.835938 48.699219 58.683594 48.699219 C 58.566406 48.710938 58.417969 48.6875 58.183594 48.675781 Z M 58.183594 48.675781 " fill-opacity="1" fill-rule="nonzero"/><path fill="#f9a202" d="M 71.8125 71.46875 C 71.148438 71.398438 70.925781 70.957031 70.671875 70.457031 C 70.390625 69.910156 70.019531 69.394531 69.679688 68.882812 C 69.414062 68.488281 69.101562 68.148438 68.550781 68.21875 C 68.597656 67.519531 68.597656 67.519531 69.660156 67.359375 C 69.785156 66.378906 69.914062 65.378906 70.054688 64.296875 C 70.566406 64.339844 70.832031 64.074219 70.984375 63.609375 C 71.148438 63.140625 71.378906 62.699219 71.589844 62.246094 C 71.660156 62.105469 71.695312 61.882812 71.800781 61.835938 C 72.476562 61.570312 72.484375 60.953125 72.648438 60.394531 C 72.917969 59.484375 73.3125 59.355469 74.171875 59.902344 C 74.359375 59.625 74.535156 59.34375 74.765625 58.996094 C 75.152344 59.484375 75.652344 59.425781 76.117188 59.308594 C 76.898438 59.125 77.558594 59.414062 78.085938 59.894531 C 78.769531 60.511719 79.339844 61.253906 79.980469 61.964844 C 79.539062 62.617188 78.816406 63.140625 79.269531 64.085938 C 79.621094 64.085938 79.980469 64.085938 80.386719 64.085938 C 80.375 64.261719 80.296875 64.433594 80.351562 64.527344 C 81.027344 65.574219 81.714844 66.648438 82.996094 67.03125 C 84.21875 67.40625 85.449219 67.730469 86.683594 68.070312 C 86.707031 68.082031 86.730469 68.101562 86.777344 68.148438 C 86.71875 68.242188 86.671875 68.359375 86.589844 68.453125 C 85.660156 69.5 84.71875 70.550781 83.796875 71.609375 C 83.542969 71.898438 83.273438 72.121094 82.832031 72.003906 C 82.121094 71.832031 81.492188 72.039062 80.921875 72.496094 C 80.726562 72.644531 80.503906 72.761719 80.285156 72.890625 C 79.726562 73.203125 79.15625 73.390625 78.527344 73.03125 C 78.128906 72.796875 77.746094 72.867188 77.410156 73.167969 C 77.316406 73.25 77.222656 73.34375 77.117188 73.402344 C 76.746094 73.601562 76.351562 73.972656 75.988281 73.949219 C 75.300781 73.902344 74.558594 73.84375 74.035156 73.214844 C 73.671875 72.773438 73.21875 72.484375 72.578125 72.527344 C 71.949219 72.585938 71.90625 72.050781 71.8125 71.46875 Z M 71.8125 71.46875 " fill-opacity="1" fill-rule="nonzero"/><g clip-path="url(#0aa8f3a719)"><path fill="#01943e" d="M 14.554688 43.785156 C 14.613281 43.320312 14.660156 42.945312 14.714844 42.445312 C 16.007812 43.144531 17.136719 43.996094 18.3125 44.84375 C 17.90625 44.878906 17.496094 44.902344 17.007812 44.9375 C 17.054688 45.496094 17.089844 46.011719 17.148438 46.523438 C 17.429688 48.875 17.730469 51.238281 18.011719 53.59375 C 18.089844 54.300781 18.195312 55.011719 18.253906 55.734375 C 18.289062 56.222656 18.347656 56.667969 18.859375 56.898438 C 18.765625 57.179688 18.683594 57.410156 18.59375 57.691406 C 16.347656 57.855469 14.03125 57.378906 11.898438 58.355469 C 11.585938 58.0625 11.339844 57.832031 11.039062 57.550781 C 10.738281 57.996094 10.457031 58.402344 10.144531 58.867188 C 9.945312 58.65625 9.78125 58.496094 9.621094 58.320312 C 9.140625 57.796875 8.792969 57.132812 7.988281 57.003906 C 7.886719 56.992188 7.769531 56.875 7.699219 56.78125 C 7.386719 56.363281 6.953125 56.386719 6.511719 56.433594 C 6 56.492188 5.476562 56.539062 5.011719 56.585938 C 4.953125 56.457031 4.917969 56.433594 4.929688 56.410156 C 5.183594 55.292969 5.160156 54.1875 4.753906 53.101562 C 5.105469 52.230469 4.671875 51.566406 4.183594 50.914062 C 4.089844 50.796875 4.078125 50.621094 3.988281 50.367188 C 5.6875 50.367188 7.328125 50.367188 9.050781 50.367188 C 9.050781 49.492188 9.050781 48.722656 9.050781 47.933594 C 9.503906 47.734375 9.886719 47.558594 10.339844 47.359375 C 10.339844 46.277344 10.339844 45.195312 10.339844 44.007812 C 11.761719 43.9375 13.109375 43.867188 14.554688 43.785156 Z M 14.554688 43.785156 " fill-opacity="1" fill-rule="nonzero"/></g><path fill="#9b0f24" d="M 65.246094 82.476562 C 65.492188 81.789062 65.644531 81.160156 65.1875 80.402344 C 66.574219 80.402344 67.855469 80.390625 69.121094 80.414062 C 69.378906 80.425781 69.660156 80.566406 69.890625 80.703125 C 71.042969 81.378906 72.183594 82.089844 73.335938 82.765625 C 73.648438 82.953125 73.871094 83.128906 73.90625 83.546875 C 73.917969 83.746094 74.152344 83.964844 74.324219 84.117188 C 74.847656 84.558594 75.394531 84.96875 76 85.445312 C 75.246094 86.46875 75.511719 87.367188 76.09375 88.367188 C 76.40625 88.914062 76.363281 89.707031 76.363281 90.382812 C 76.363281 91.234375 76.652344 91.898438 77.269531 92.445312 C 77.363281 92.527344 77.421875 92.632812 77.503906 92.757812 C 76.710938 93.585938 75.847656 94.191406 74.652344 94.132812 C 74.417969 94.121094 74.128906 94.167969 73.953125 94.308594 C 73.40625 94.726562 72.824219 94.53125 72.242188 94.472656 C 71.847656 94.425781 71.449219 94.332031 71.066406 94.332031 C 70.660156 94.332031 70.414062 94.226562 70.34375 93.796875 C 70.285156 93.398438 70.195312 93.003906 70.101562 92.609375 C 69.914062 91.886719 69.679688 91.734375 68.925781 91.664062 C 68.542969 91.628906 68.15625 91.488281 67.773438 91.363281 C 67.597656 91.304688 67.445312 91.1875 67.273438 91.117188 C 66.085938 90.617188 65.167969 89.894531 64.734375 88.589844 C 64.574219 88.078125 63.957031 87.667969 63.910156 87.191406 C 63.863281 86.667969 63.816406 86.167969 63.640625 85.667969 C 63.582031 85.503906 63.628906 85.304688 63.628906 85.097656 C 64.5625 84.816406 65.039062 84.105469 65.339844 83.277344 C 65.433594 83.058594 65.28125 82.753906 65.246094 82.476562 Z M 65.246094 82.476562 " fill-opacity="1" fill-rule="nonzero"/><path fill="#f9a202" d="M 36.78125 72.785156 C 35.6875 72.785156 34.628906 72.785156 33.476562 72.785156 C 33.382812 72.632812 33.207031 72.414062 33.082031 72.179688 C 32.742188 71.574219 32.3125 71.0625 31.765625 70.617188 C 31.3125 70.257812 30.882812 70.082031 30.3125 70.199219 C 30.136719 70.234375 29.949219 70.199219 29.742188 70.199219 C 29.648438 69.328125 29.542969 68.5 29.496094 67.660156 C 29.484375 67.371094 29.589844 67.054688 29.707031 66.777344 C 29.949219 66.171875 30.207031 65.566406 30.484375 64.980469 C 30.753906 64.421875 30.789062 63.886719 30.671875 63.269531 C 30.472656 62.210938 31.042969 61.347656 31.625 60.53125 C 31.707031 60.417969 31.964844 60.40625 32.136719 60.394531 C 32.640625 60.359375 33.128906 60.335938 33.664062 60.3125 C 33.964844 60.671875 34.257812 61.035156 34.582031 61.429688 C 34.722656 61.382812 34.875 61.359375 35 61.277344 C 35.640625 60.90625 36.210938 60.847656 36.886719 61.3125 C 37.421875 61.6875 38.085938 61.90625 38.632812 61.207031 C 38.714844 61.117188 38.910156 61.09375 39.050781 61.070312 C 39.273438 61.046875 39.492188 61.058594 39.703125 61.058594 C 40.890625 61.082031 42.078125 61.171875 43.066406 60.277344 C 43.414062 60.765625 43.824219 61.117188 43.800781 61.722656 C 43.789062 61.871094 44.019531 62.046875 44.171875 62.1875 C 44.566406 62.546875 44.578125 62.886719 44.101562 63.117188 C 43.660156 63.328125 43.460938 63.667969 43.289062 64.085938 C 43.019531 64.75 42.71875 65.402344 42.449219 66.066406 C 42.296875 66.4375 42.171875 66.800781 41.726562 66.972656 C 41.542969 67.042969 41.414062 67.347656 41.320312 67.554688 C 40.984375 68.324219 40.679688 69.105469 40.320312 69.96875 C 40.039062 69.640625 39.832031 69.394531 39.621094 69.140625 C 38.585938 69 38.203125 69.898438 37.574219 70.398438 C 36.816406 71.027344 37.1875 71.957031 36.78125 72.785156 Z M 36.78125 72.785156 " fill-opacity="1" fill-rule="nonzero"/><path fill="#9b0f24" d="M 52.75 103.402344 C 52.691406 103.847656 52.609375 104.160156 52.609375 104.488281 C 52.597656 105.804688 52.597656 107.109375 52.597656 108.492188 C 52.226562 108.539062 51.863281 108.574219 51.421875 108.621094 C 51.410156 108.972656 51.375 109.296875 51.375 109.636719 C 51.375 111.917969 51.375 114.1875 51.375 116.472656 C 51.375 117.648438 51.210938 117.800781 50.046875 117.824219 C 49.863281 117.824219 49.675781 117.878906 49.488281 117.878906 C 49 117.902344 48.570312 117.867188 48.394531 117.261719 C 48.339844 117.066406 48.082031 116.925781 47.882812 116.726562 C 47.710938 116.9375 47.59375 117.078125 47.464844 117.207031 C 47.335938 117.332031 47.1875 117.449219 47.046875 117.578125 C 46.21875 116.972656 45.753906 116.226562 45.554688 115.203125 C 45.195312 113.398438 44.777344 111.613281 44.660156 109.761719 C 44.636719 109.449219 44.460938 109.109375 44.277344 108.832031 C 43.636719 107.910156 43.101562 106.945312 42.71875 105.875 C 42.484375 105.210938 42.054688 104.605469 41.65625 104.007812 C 41.34375 103.53125 41.214844 103.066406 41.390625 102.460938 C 41.808594 102.425781 42.285156 102.613281 42.695312 102.25 C 42.820312 102.132812 43.277344 102.191406 43.449219 102.332031 C 43.8125 102.625 44.183594 102.636719 44.589844 102.636719 C 46 102.636719 47.394531 102.625 48.804688 102.636719 C 49.140625 102.636719 49.511719 102.613281 49.816406 102.75 C 50.757812 103.183594 51.746094 103.402344 52.75 103.402344 Z M 52.75 103.402344 " fill-opacity="1" fill-rule="nonzero"/><path fill="#9b0f24" d="M 67.5625 113.828125 C 67.984375 115.003906 67.914062 115.15625 67.015625 115.15625 C 66.957031 114.363281 66.886719 113.570312 66.855469 112.78125 C 66.832031 112.152344 66.738281 111.554688 66.480469 110.960938 C 66.273438 110.484375 66.179688 109.960938 66.027344 109.4375 C 66.84375 108.515625 67.621094 107.632812 68.039062 106.492188 C 68.191406 106.082031 68.25 105.722656 68.097656 105.335938 C 67.925781 104.882812 67.914062 104.453125 68.0625 103.976562 C 68.191406 103.601562 68.214844 103.183594 68.214844 102.785156 C 68.214844 102.390625 68.109375 101.984375 68.050781 101.5625 C 67.402344 101.214844 66.773438 100.820312 66.097656 100.527344 C 65.78125 100.386719 65.375 100.445312 64.957031 100.410156 C 64.886719 100.109375 64.804688 99.746094 64.6875 99.269531 C 65.863281 98.875 67.027344 98.488281 68.203125 98.09375 C 68.542969 98.511719 68.84375 98.898438 69.449219 98.804688 C 69.726562 98.769531 69.867188 99.035156 69.796875 99.328125 C 69.75 99.539062 69.648438 99.734375 69.589844 99.945312 C 69.542969 100.121094 69.472656 100.339844 69.53125 100.46875 C 69.84375 101.074219 70.195312 101.667969 70.542969 102.25 C 70.589844 102.320312 70.753906 102.308594 70.949219 102.355469 C 70.949219 102.109375 70.914062 101.9375 70.960938 101.773438 C 71.042969 101.492188 71.089844 101.0625 71.289062 100.96875 C 71.695312 100.773438 71.683594 100.457031 71.742188 100.132812 C 71.984375 98.839844 71.472656 97.835938 70.542969 96.988281 C 70.042969 96.53125 70.078125 95.867188 70.054688 95.285156 C 70.042969 94.996094 70.296875 94.632812 70.753906 94.679688 C 71.390625 94.75 72.042969 94.773438 72.683594 94.878906 C 73.160156 94.949219 73.601562 94.960938 74.011719 94.644531 C 74.171875 94.53125 74.40625 94.460938 74.617188 94.460938 C 75.523438 94.484375 76.339844 94.25 77.011719 93.621094 C 77.117188 93.515625 77.269531 93.445312 77.457031 93.328125 C 77.492188 93.515625 77.523438 93.621094 77.523438 93.726562 C 77.546875 95.378906 77.570312 97.035156 77.582031 98.6875 C 77.59375 99.59375 77.105469 100.351562 76.746094 101.132812 C 76.675781 101.296875 76.398438 101.378906 76.199219 101.460938 C 74.71875 102.019531 73.441406 102.878906 72.324219 103.996094 C 71.882812 104.441406 71.390625 104.835938 70.890625 105.199219 C 70.21875 105.664062 70.113281 106.28125 70.296875 107.003906 C 70.53125 107.910156 70.855469 108.796875 71.019531 109.714844 C 71.125 110.308594 71.042969 110.949219 70.972656 111.554688 C 70.949219 111.730469 70.742188 111.929688 70.578125 112.035156 C 69.996094 112.394531 69.402344 112.734375 68.808594 113.070312 C 68.378906 113.339844 67.972656 113.59375 67.5625 113.828125 Z M 67.5625 113.828125 " fill-opacity="1" fill-rule="nonzero"/><path fill="#9b0f24" d="M 54.308594 96.554688 C 55.144531 96.554688 55.855469 96.554688 56.660156 96.554688 C 56.660156 95.671875 56.660156 94.84375 56.660156 94.015625 C 57.03125 94.34375 57.300781 94.679688 57.824219 94.460938 C 57.902344 94.425781 58.066406 94.597656 58.207031 94.644531 C 58.695312 94.832031 59.183594 95.078125 59.695312 95.179688 C 59.988281 95.238281 60.324219 95.101562 60.558594 95.066406 C 60.953125 95.320312 61.324219 95.578125 61.710938 95.800781 C 62.246094 96.125 62.757812 96.472656 62.792969 97.148438 C 63.292969 97.148438 63.6875 97.148438 64.128906 97.148438 C 64.128906 96.554688 64.128906 95.949219 64.128906 95.296875 C 63.511719 95.238281 62.875 95.308594 62.441406 94.632812 C 62.839844 93.726562 62.699219 92.710938 62.511719 91.699219 C 62.476562 91.488281 62.605469 91.222656 62.710938 91.011719 C 62.988281 90.476562 63.492188 90.359375 64.050781 90.324219 C 64.527344 90.289062 64.921875 90.058594 65.433594 90.488281 C 65.980469 90.964844 66.726562 91.234375 67.402344 91.546875 C 68.050781 91.839844 68.449219 92.292969 68.5625 93.0625 C 68.027344 93.457031 68.085938 94.039062 68.238281 94.632812 C 68.367188 95.148438 68.378906 95.554688 67.949219 96.054688 C 67.585938 96.460938 67.273438 97.207031 67.9375 97.8125 C 66.714844 98.222656 65.5625 98.605469 64.386719 99 C 64.386719 99.304688 64.386719 99.574219 64.386719 99.851562 C 64.292969 99.898438 64.210938 99.933594 64.128906 99.96875 C 63.699219 100.132812 63.210938 100.210938 62.839844 100.457031 C 62.535156 100.65625 62.394531 101.085938 62.128906 101.34375 C 61.859375 101.597656 61.40625 101.714844 61.246094 102.007812 C 60.628906 103.125 59.671875 103.160156 58.613281 102.972656 C 58.484375 102.949219 58.300781 102.984375 58.253906 102.914062 C 57.789062 102.226562 57.125 102.566406 56.554688 102.589844 C 56.042969 102.613281 55.738281 102.425781 55.378906 102.054688 C 54.519531 101.15625 54.167969 100.15625 54.308594 98.921875 C 54.378906 98.1875 54.308594 97.441406 54.308594 96.554688 Z M 54.308594 96.554688 " fill-opacity="1" fill-rule="nonzero"/><path fill="#01943e" d="M 85.625 112.722656 C 84.8125 113.058594 84.160156 113.339844 83.390625 113.664062 C 83.125 113.523438 82.738281 113.316406 82.34375 113.140625 C 81.632812 112.835938 81.378906 112.253906 81.449219 111.554688 C 81.515625 110.914062 81.4375 110.367188 81.085938 109.785156 C 80.667969 109.074219 81.027344 108.34375 81.367188 107.679688 C 81.515625 107.375 81.726562 107.085938 81.984375 106.851562 C 82.460938 106.398438 82.425781 105.875 82.332031 105.300781 C 82.203125 104.535156 82.050781 103.765625 82.007812 102.996094 C 81.925781 101.878906 82.496094 100.957031 83.542969 100.644531 C 85.636719 100.015625 86.894531 98.453125 88.035156 96.753906 C 88.300781 96.347656 88.429688 95.84375 88.652344 95.320312 C 89.347656 96.265625 89.78125 97.195312 89.78125 98.304688 C 89.78125 98.664062 89.839844 99.058594 89.988281 99.375 C 90.222656 99.839844 90.140625 100.203125 89.828125 100.574219 C 89.59375 100.410156 89.382812 100.257812 89.105469 100.074219 C 89.058594 100.269531 88.976562 100.398438 89.011719 100.492188 C 89.394531 101.574219 89.035156 102.625 88.734375 103.601562 C 87.730469 106.6875 86.648438 109.738281 85.625 112.722656 Z M 85.625 112.722656 " fill-opacity="1" fill-rule="nonzero"/><g clip-path="url(#5b32fb8665)"><path fill="#f9a202" d="M 87.511719 67.988281 C 87.023438 67.835938 86.671875 67.730469 86.324219 67.636719 C 85.484375 67.394531 84.660156 67.089844 83.796875 66.9375 C 82.332031 66.683594 81.503906 65.65625 80.691406 64.503906 C 80.890625 64.226562 81.074219 63.957031 81.285156 63.667969 C 81.480469 63.769531 81.632812 63.816406 81.738281 63.921875 C 82.460938 64.574219 83.214844 64.945312 84.160156 64.339844 C 84.230469 64.296875 84.355469 64.261719 84.425781 64.296875 C 85.230469 64.609375 85.835938 64.15625 86.519531 63.875 C 87.078125 63.644531 87.742188 63.632812 88.359375 63.539062 C 89.152344 63.421875 89.976562 63.492188 90.640625 62.863281 C 90.769531 62.734375 91.082031 62.816406 91.375 62.792969 C 91.410156 63.757812 91.457031 64.597656 91.035156 65.4375 C 90.152344 67.195312 89.394531 69.011719 88.488281 70.746094 C 88.035156 71.621094 87.347656 72.378906 86.765625 73.191406 C 86.636719 73.367188 86.488281 73.53125 86.371094 73.71875 C 85.660156 74.8125 84.742188 75.648438 83.601562 76.300781 C 83.019531 76.628906 82.496094 77.117188 82.027344 77.605469 C 81.039062 78.644531 80.109375 79.738281 79.15625 80.820312 C 78.539062 80.273438 78.410156 79.609375 78.433594 78.851562 C 78.480469 77.828125 78.457031 76.792969 78.445312 75.753906 C 78.421875 74.648438 79.050781 73.984375 79.921875 73.484375 C 80.328125 73.25 80.785156 73.089844 81.144531 72.808594 C 81.679688 72.390625 82.261719 72.261719 82.902344 72.414062 C 83.320312 72.515625 83.613281 72.390625 83.878906 72.074219 C 85.03125 70.734375 86.207031 69.429688 87.511719 67.988281 Z M 87.511719 67.988281 " fill-opacity="1" fill-rule="nonzero"/></g><path fill="#9b0f24" d="M 55.308594 112.917969 C 54.832031 114.316406 54.179688 115.351562 52.492188 115.121094 C 52.527344 114.875 52.515625 114.667969 52.585938 114.480469 C 52.808594 113.804688 52.585938 113.234375 52.132812 112.792969 C 51.816406 112.488281 51.734375 112.183594 51.746094 111.800781 C 51.757812 110.871094 51.746094 109.9375 51.746094 108.972656 C 52.144531 108.9375 52.480469 108.914062 52.851562 108.878906 C 53.050781 108.0625 52.921875 107.257812 52.945312 106.457031 C 52.96875 105.652344 52.945312 104.835938 52.945312 103.976562 C 53.84375 103.8125 54.691406 103.648438 55.589844 103.484375 C 55.75 103.683594 55.925781 103.894531 56.125 104.125 C 56.707031 103.8125 57.136719 103.195312 57.9375 103.359375 C 58.066406 103.542969 58.242188 103.753906 58.371094 103.996094 C 58.8125 104.8125 59.40625 105.441406 60.160156 105.976562 C 60.640625 106.328125 61.164062 106.757812 61.222656 107.46875 C 61.253906 107.839844 61.558594 107.945312 61.835938 108.097656 C 62.246094 108.308594 62.628906 108.5625 62.964844 108.761719 C 62.976562 109.261719 62.757812 109.378906 62.429688 109.34375 C 61.976562 109.296875 61.664062 109.507812 61.371094 109.820312 C 61.222656 109.984375 61.070312 110.148438 60.894531 110.277344 C 60.359375 110.660156 60.011719 111.148438 60.011719 111.789062 C 59.578125 112 59.113281 112.117188 58.835938 112.394531 C 58.554688 112.6875 58.449219 113.152344 58.277344 113.535156 C 57.613281 113.664062 57.019531 113.675781 56.4375 113.316406 C 56.160156 113.128906 55.761719 113.070312 55.308594 112.917969 Z M 55.308594 112.917969 " fill-opacity="1" fill-rule="nonzero"/><path fill="#f9a202" d="M 60.675781 71.5625 C 60.128906 71.503906 59.589844 71.421875 59.042969 71.398438 C 58.789062 71.386719 58.484375 71.410156 58.265625 71.527344 C 57.324219 72.050781 56.34375 72.355469 55.226562 72.167969 C 54.984375 72.460938 54.726562 72.761719 54.4375 73.101562 C 53.238281 72.796875 51.945312 72.75 51.121094 71.539062 C 50.433594 72.273438 49.328125 72.496094 49.476562 73.796875 C 49.1875 73.796875 48.953125 73.808594 48.722656 73.796875 C 48.476562 73.773438 48.234375 73.695312 47.988281 73.707031 C 47.230469 73.753906 47.09375 73.902344 46.964844 74.648438 C 46.941406 74.800781 46.929688 74.953125 46.90625 75.066406 C 46.523438 74.71875 46.136719 74.359375 45.753906 74.007812 C 45.683594 73.949219 45.589844 73.890625 45.554688 73.808594 C 45.277344 73.167969 44.964844 72.527344 44.765625 71.867188 C 44.566406 71.191406 44.636719 70.574219 45.148438 69.957031 C 46.035156 68.871094 45.988281 68.835938 46.894531 68.394531 C 47.300781 68.789062 47.789062 68.742188 48.304688 68.511719 C 48.582031 68.382812 48.898438 68.3125 49.1875 68.21875 C 50.035156 67.929688 50.28125 67.636719 50.421875 66.683594 C 50.59375 66.660156 50.78125 66.578125 50.957031 66.601562 C 52.132812 66.753906 52.839844 65.914062 53.621094 65.296875 C 53.761719 65.179688 53.75 64.890625 53.867188 64.726562 C 54.039062 64.492188 54.25 64.226562 54.507812 64.121094 C 54.832031 63.980469 55.066406 64.226562 55.273438 64.492188 C 55.714844 65.050781 56.078125 65.597656 55.808594 66.355469 C 55.75 66.519531 55.796875 66.71875 55.796875 66.914062 C 55.914062 66.996094 56.007812 67.089844 56.125 67.125 C 57.300781 67.53125 58.078125 68.40625 58.800781 69.359375 C 59.382812 70.128906 60.023438 70.851562 60.640625 71.597656 Z M 60.675781 71.5625 " fill-opacity="1" fill-rule="nonzero"/><path fill="#9b0f24" d="M 76.117188 85.085938 C 75.664062 84.734375 75.257812 84.445312 74.871094 84.128906 C 74.546875 83.859375 74.117188 83.699219 74.183594 83.117188 C 74.207031 82.964844 73.90625 82.730469 73.707031 82.613281 C 72.484375 81.859375 71.265625 81.125 70.019531 80.402344 C 69.648438 80.191406 69.507812 79.949219 69.496094 79.515625 C 69.472656 78.804688 69.578125 78.15625 70.054688 77.59375 C 70.21875 77.410156 70.332031 77.1875 70.472656 76.964844 C 70.878906 76.335938 70.867188 75.671875 70.554688 75.019531 C 70.25 74.402344 69.914062 73.808594 69.554688 73.125 C 69.773438 72.984375 69.960938 72.75 70.160156 72.75 C 70.808594 72.726562 71.449219 72.785156 72.101562 72.808594 C 72.253906 72.820312 72.417969 72.890625 72.554688 72.878906 C 73.113281 72.832031 73.546875 73.066406 73.859375 73.472656 C 74.453125 74.242188 75.347656 74.160156 76.152344 74.359375 C 76.269531 74.390625 76.441406 74.277344 76.570312 74.195312 C 76.78125 74.066406 77 73.925781 77.175781 73.761719 C 77.722656 73.25 78.292969 73.125 78.945312 73.589844 C 78.921875 73.660156 78.921875 73.773438 78.863281 73.832031 C 78.140625 74.519531 78.027344 75.371094 78.085938 76.3125 C 78.140625 77.210938 78.117188 78.132812 78.085938 79.027344 C 78.0625 79.644531 78.164062 80.191406 78.609375 80.660156 C 78.710938 80.761719 78.757812 80.925781 78.863281 81.125 C 77.457031 82.078125 76.976562 83.664062 76.117188 85.085938 Z M 76.117188 85.085938 " fill-opacity="1" fill-rule="nonzero"/><path fill="#01943e" d="M 20.464844 35.855469 C 20.523438 36.679688 20.5 36.644531 19.835938 37.21875 C 19 37.925781 18.078125 38.359375 16.984375 38.453125 C 15.925781 38.542969 15.242188 39.347656 14.425781 39.90625 C 14.308594 39.988281 14.285156 40.234375 14.261719 40.40625 C 14.238281 40.652344 14.25 40.898438 14.25 41.222656 C 12.585938 41.222656 10.945312 41.222656 9.503906 41.222656 C 9.945312 40.980469 10.550781 40.605469 11.179688 40.28125 C 12.121094 39.800781 12.457031 38.859375 12.949219 38.042969 C 13.0625 37.835938 12.984375 37.507812 12.972656 37.230469 C 12.925781 35.914062 13.226562 34.710938 14.507812 34.105469 C 15.925781 33.433594 16.960938 32.511719 17.476562 30.972656 C 17.742188 30.171875 18.195312 30.089844 18.90625 30.625 C 19.359375 30.960938 19.824219 31.101562 20.382812 31.03125 C 20.628906 30.996094 20.882812 31.007812 21.128906 31.042969 C 22.546875 31.230469 22.570312 31.265625 22.96875 32.664062 C 23.140625 33.28125 23.210938 33.945312 23.757812 34.421875 C 24.050781 34.679688 23.886719 35.015625 23.503906 35.085938 C 23.316406 35.121094 23.128906 35.097656 22.945312 35.097656 C 22.328125 35.097656 21.699219 35.015625 21.222656 35.585938 C 21.082031 35.785156 20.734375 35.773438 20.464844 35.855469 Z M 20.464844 35.855469 " fill-opacity="1" fill-rule="nonzero"/><path fill="#f9a202" d="M 44.882812 62.234375 C 44.941406 62.558594 45.042969 62.875 45.042969 63.199219 C 45.054688 63.792969 44.984375 64.386719 45.554688 64.96875 C 45.125 65.003906 44.835938 65.0625 44.554688 65.050781 C 43.984375 65.027344 43.671875 65.285156 43.625 65.890625 C 44.359375 66.730469 45.453125 67.335938 45.625 68.765625 C 45.394531 69.09375 45.066406 69.546875 44.742188 70 C 44.253906 70.664062 44.195312 71.832031 44.636719 72.539062 C 44.847656 72.878906 45.054688 73.191406 45.125 73.625 C 45.183594 73.9375 45.523438 74.242188 45.789062 74.472656 C 46.289062 74.894531 46.546875 75.371094 46.3125 76.105469 C 45.054688 75.929688 43.789062 75.660156 42.507812 75.605469 C 41.214844 75.546875 39.914062 75.695312 38.65625 75.753906 C 38.585938 75.660156 38.503906 75.617188 38.515625 75.570312 C 38.632812 74.589844 38.292969 73.808594 37.527344 73.191406 C 37.398438 73.089844 37.269531 72.878906 37.28125 72.726562 C 37.316406 72.203125 37.269531 71.585938 37.515625 71.167969 C 37.863281 70.574219 38.433594 70.082031 38.957031 69.617188 C 39.214844 69.382812 39.503906 69.546875 39.738281 69.851562 C 40.238281 70.503906 40.484375 70.457031 40.808594 69.722656 C 41.007812 69.269531 41.179688 68.800781 41.378906 68.335938 C 41.589844 67.835938 41.703125 67.277344 42.320312 67.019531 C 42.496094 66.949219 42.589844 66.625 42.695312 66.402344 C 42.972656 65.773438 43.242188 65.144531 43.496094 64.503906 C 43.695312 64.003906 43.867188 63.527344 44.460938 63.339844 C 44.613281 63.292969 44.730469 63.027344 44.800781 62.839844 C 44.871094 62.640625 44.871094 62.410156 44.90625 62.199219 C 44.90625 62.210938 44.882812 62.234375 44.882812 62.234375 Z M 44.882812 62.234375 " fill-opacity="1" fill-rule="nonzero"/><path fill="#9b0f24" d="M 67.726562 101.785156 C 67.867188 102.636719 67.949219 103.425781 67.65625 104.230469 C 67.550781 104.523438 67.621094 104.917969 67.714844 105.234375 C 67.867188 105.746094 67.785156 106.175781 67.585938 106.664062 C 67.191406 107.65625 66.527344 108.410156 65.863281 109.097656 C 64.199219 109.191406 62.933594 108.398438 61.628906 107.539062 C 61.582031 106.699219 61.011719 106.082031 60.3125 105.664062 C 59.40625 105.105469 58.917969 104.277344 58.371094 103.324219 C 58.929688 103.367188 59.382812 103.390625 59.847656 103.449219 C 60.21875 103.496094 60.511719 103.390625 60.742188 103.089844 C 61.246094 102.449219 61.769531 101.832031 62.546875 101.503906 C 62.652344 101.460938 62.804688 101.367188 62.816406 101.273438 C 62.941406 100.269531 63.78125 100.492188 64.445312 100.269531 C 64.480469 100.785156 64.78125 100.933594 65.199219 100.832031 C 65.703125 100.703125 66.109375 100.886719 66.515625 101.144531 C 66.898438 101.378906 67.296875 101.5625 67.726562 101.785156 Z M 67.726562 101.785156 " fill-opacity="1" fill-rule="nonzero"/><path fill="#f9a202" d="M 16.613281 71.203125 C 16.113281 70.78125 15.660156 70.410156 15.308594 70.117188 C 15.113281 69.257812 15.984375 68.710938 15.566406 67.953125 C 16.171875 67.648438 16.230469 67.496094 16.042969 66.777344 C 15.9375 66.332031 15.613281 65.925781 15.84375 65.449219 C 16.472656 65.261719 17.089844 65.085938 17.8125 64.878906 C 17.859375 64.945312 17.953125 65.097656 18.023438 65.226562 C 18.90625 64.96875 18.90625 64.96875 19.988281 65.960938 C 20.164062 65.914062 20.359375 65.855469 20.570312 65.785156 C 21.257812 65.566406 21.699219 65.667969 22.082031 66.273438 C 22.46875 66.890625 22.757812 67.578125 22.28125 68.277344 C 21.628906 69.234375 21.488281 70.1875 22 71.246094 C 22.117188 71.492188 22.128906 71.785156 22.210938 72.121094 C 21.210938 72.109375 20.269531 71.773438 19.3125 72.074219 C 18.429688 72.355469 17.507812 72.550781 16.519531 72.808594 C 16.542969 72.320312 16.578125 71.773438 16.613281 71.203125 Z M 16.613281 71.203125 " fill-opacity="1" fill-rule="nonzero"/><path fill="#f9a202" d="M 44.765625 85.269531 C 44.695312 85.027344 44.648438 84.839844 44.601562 84.628906 C 44.03125 84.5 43.566406 84.664062 43.160156 85.164062 C 42.902344 84.980469 42.671875 84.792969 42.402344 84.582031 C 41.996094 84.898438 41.613281 85.199219 41.191406 85.515625 C 40.914062 85.039062 40.65625 84.582031 40.34375 84.046875 C 40.703125 83.929688 41.042969 83.828125 41.449219 83.699219 C 41.308594 83.265625 41.167969 82.835938 41.007812 82.371094 C 41.449219 82.113281 42.25 82.511719 42.273438 81.660156 C 42.914062 81.929688 43.519531 82.171875 44.171875 82.453125 C 44.507812 81.578125 44.578125 80.625 44.753906 79.808594 C 44.449219 79.34375 44.019531 78.980469 43.996094 78.597656 C 43.972656 78.246094 44.394531 77.863281 44.625 77.492188 C 44.207031 77 43.835938 76.488281 42.996094 76.863281 C 43.054688 76.511719 43.089844 76.277344 43.136719 76 C 44.3125 76.1875 45.441406 76.359375 46.59375 76.546875 C 46.824219 75.90625 47.082031 75.207031 47.335938 74.496094 C 47.464844 74.136719 47.824219 73.960938 48.339844 74.03125 C 48.523438 74.054688 48.699219 74.148438 48.875 74.183594 C 49.046875 74.207031 49.234375 74.183594 49.5 74.183594 C 49.410156 74.4375 49.386719 74.636719 49.292969 74.765625 C 48.757812 75.476562 48.628906 76.289062 48.605469 77.152344 C 48.59375 77.839844 48.523438 78.527344 48.417969 79.203125 C 48.382812 79.457031 48.222656 79.714844 48.058594 79.925781 C 47.699219 80.355469 47.300781 80.761719 46.90625 81.148438 C 46.617188 81.425781 46.417969 81.742188 46.5 82.136719 C 46.707031 83.164062 46.21875 83.859375 45.5 84.488281 C 45.277344 84.710938 45.078125 84.957031 44.765625 85.269531 Z M 44.765625 85.269531 " fill-opacity="1" fill-rule="nonzero"/><g clip-path="url(#c2c28a0a35)"><path fill="#01943e" d="M 14.25 41.757812 C 14.25 42.292969 14.25 42.84375 14.25 43.4375 C 12.820312 43.519531 11.46875 43.585938 10.039062 43.65625 C 10.039062 44.855469 10.039062 45.964844 10.039062 47.09375 C 9.597656 47.304688 9.199219 47.476562 8.746094 47.6875 C 8.746094 48.421875 8.746094 49.15625 8.746094 49.96875 C 7.082031 49.96875 5.511719 49.96875 3.859375 49.96875 C 3.894531 49.839844 3.917969 49.703125 3.976562 49.574219 C 5 47.605469 6 45.625 7.058594 43.691406 C 7.394531 43.074219 7.898438 42.527344 8.363281 41.980469 C 8.503906 41.816406 8.78125 41.699219 9.003906 41.6875 C 10.691406 41.652344 12.378906 41.664062 14.066406 41.664062 C 14.113281 41.675781 14.167969 41.722656 14.25 41.757812 Z M 14.25 41.757812 " fill-opacity="1" fill-rule="nonzero"/></g><path fill="#01943e" d="M 22.28125 64.015625 C 22.222656 64.550781 22.175781 65.027344 22.117188 65.609375 C 21.699219 65.472656 21.398438 65.273438 21.09375 65.285156 C 20.769531 65.296875 20.441406 65.484375 20.105469 65.597656 C 19.753906 65.285156 19.417969 64.980469 19.023438 64.632812 C 19.09375 64.25 19.152344 63.816406 19.242188 63.398438 C 19.277344 63.222656 19.347656 62.933594 19.464844 62.910156 C 20.335938 62.699219 20.335938 61.847656 20.769531 61.207031 C 20.929688 61.242188 21.117188 61.300781 21.28125 61.335938 C 22.570312 60.042969 23.898438 58.878906 25.878906 58.554688 C 25.855469 59.332031 26.226562 59.789062 26.644531 60.253906 C 26.890625 60.523438 27.019531 60.917969 27.144531 61.277344 C 27.632812 61.769531 28.738281 61.710938 28.472656 62.910156 C 28.078125 63.152344 27.667969 63.421875 27.226562 63.65625 C 27.050781 63.746094 26.796875 63.804688 26.621094 63.734375 C 26.179688 63.585938 25.773438 63.667969 25.34375 63.710938 C 24.351562 63.839844 23.363281 63.921875 22.28125 64.015625 Z M 22.28125 64.015625 " fill-opacity="1" fill-rule="nonzero"/><path fill="#f9a202" d="M 44.042969 81.660156 C 43.300781 81.835938 42.683594 81.601562 42.125 81.042969 C 41.972656 81.378906 41.878906 81.601562 41.761719 81.859375 C 41.378906 81.90625 40.996094 81.949219 40.503906 81.996094 C 40.65625 82.488281 40.785156 82.894531 40.9375 83.359375 C 40.65625 83.511719 40.378906 83.675781 40.050781 83.847656 C 38.933594 82.671875 37.691406 81.648438 37.433594 80.0625 C 37.722656 79.285156 37.992188 78.5625 38.316406 77.710938 C 38.992188 77.710938 39.796875 77.710938 40.679688 77.710938 C 40.679688 77.082031 40.679688 76.558594 40.679688 75.988281 C 41.378906 75.988281 41.984375 75.988281 42.660156 75.988281 C 42.660156 76.359375 42.660156 76.746094 42.660156 77.234375 C 42.996094 77.1875 43.265625 77.082031 43.519531 77.128906 C 43.753906 77.164062 43.960938 77.351562 44.230469 77.503906 C 44.089844 77.722656 44.007812 77.851562 43.914062 77.980469 C 43.425781 78.691406 43.402344 78.828125 43.996094 79.414062 C 44.3125 79.714844 44.382812 80.03125 44.300781 80.414062 C 44.21875 80.820312 44.136719 81.242188 44.042969 81.660156 Z M 44.042969 81.660156 " fill-opacity="1" fill-rule="nonzero"/><path fill="#01943e" d="M 14.191406 62.464844 C 14.589844 63.246094 14.949219 63.96875 15.320312 64.691406 C 15.378906 64.808594 15.496094 64.9375 15.472656 65.027344 C 15.25 65.855469 15.71875 66.601562 15.777344 67.40625 C 15.519531 67.472656 15.320312 67.53125 15.089844 67.601562 C 15.171875 67.953125 15.25 68.265625 15.367188 68.742188 C 14.832031 68.464844 14.472656 68.546875 14.179688 69.246094 C 14.007812 68.523438 13.902344 68.058594 13.761719 67.484375 C 13.414062 67.507812 13.050781 67.53125 12.703125 67.554688 C 12.609375 67.230469 12.574219 66.824219 12.390625 66.484375 C 11.933594 65.644531 11.144531 65.519531 10.292969 65.65625 C 10.085938 65.691406 9.875 65.890625 9.699219 66.054688 C 9.445312 66.308594 9.222656 66.601562 8.992188 66.867188 C 8.210938 65.984375 7.5 65.179688 6.78125 64.363281 C 6.953125 63.480469 7.710938 63.539062 8.421875 63.46875 C 8.445312 63.003906 8.46875 62.570312 8.492188 62.152344 C 8.570312 62.128906 8.652344 62.070312 8.675781 62.09375 C 9.164062 62.464844 9.710938 62.582031 10.328125 62.523438 C 10.726562 62.488281 11.144531 62.546875 11.539062 62.640625 C 12.84375 62.910156 13.050781 62.921875 14.191406 62.464844 Z M 14.191406 62.464844 " fill-opacity="1" fill-rule="nonzero"/><path fill="#f9a202" d="M 22.640625 72.203125 C 22.457031 71.515625 22.304688 70.886719 22.082031 70.269531 C 21.96875 69.910156 21.96875 69.605469 22.152344 69.292969 C 22.28125 69.082031 22.363281 68.835938 22.515625 68.640625 C 23.0625 67.882812 22.875 67.101562 22.539062 66.34375 C 22.398438 66.042969 22.328125 65.808594 22.445312 65.472656 C 22.570312 65.132812 22.582031 64.75 22.652344 64.339844 C 23.621094 64.261719 24.597656 64.179688 25.644531 64.097656 C 25.75 64.46875 25.867188 64.820312 25.957031 65.179688 C 26.121094 65.808594 26.296875 66.4375 26.425781 67.078125 C 26.503906 67.472656 26.503906 67.882812 26.515625 68.277344 C 26.527344 69.664062 26.515625 69.664062 27.367188 70.804688 C 27.085938 70.933594 26.832031 71.085938 26.550781 71.191406 C 25.679688 71.539062 24.804688 71.855469 23.945312 72.226562 C 23.515625 72.402344 23.117188 72.425781 22.640625 72.203125 Z M 22.640625 72.203125 " fill-opacity="1" fill-rule="nonzero"/><path fill="#f9a202" d="M 69.089844 79.984375 C 67.378906 80.238281 65.691406 79.644531 64.039062 80.589844 C 63.746094 78.527344 64.664062 77.140625 66.25 75.976562 C 65.28125 75.523438 65.445312 74.824219 65.574219 74.066406 C 66.261719 74.03125 66.910156 74.019531 67.550781 73.949219 C 68.15625 73.890625 68.75 73.773438 69.449219 73.671875 C 69.671875 74.078125 69.996094 74.613281 70.261719 75.171875 C 70.53125 75.742188 70.519531 76.3125 70.160156 76.863281 C 70.078125 76.988281 69.996094 77.128906 69.890625 77.246094 C 69.34375 77.933594 69.019531 78.679688 69.15625 79.574219 C 69.15625 79.703125 69.109375 79.820312 69.089844 79.984375 Z M 69.089844 79.984375 " fill-opacity="1" fill-rule="nonzero"/><g clip-path="url(#ceaecc7c1e)"><path fill="#01943e" d="M 4.359375 62.375 C 4.558594 61.183594 4.546875 60.160156 3.71875 59.4375 C 4.136719 58.613281 4.511719 57.855469 4.964844 56.945312 C 5.617188 56.921875 6.441406 56.898438 7.269531 56.875 C 7.851562 57.515625 8.804688 57.644531 9.292969 58.449219 C 9.722656 59.148438 10.492188 59.671875 10.167969 60.671875 C 10.480469 61.117188 11.121094 61.394531 10.851562 62.164062 C 10.199219 62.046875 9.46875 62.386719 8.863281 61.792969 C 8.769531 61.699219 8.570312 61.699219 8.421875 61.710938 C 7.464844 61.769531 6.488281 61.664062 5.59375 62.152344 C 5.277344 62.304688 4.871094 62.28125 4.359375 62.375 Z M 4.359375 62.375 " fill-opacity="1" fill-rule="nonzero"/></g><path fill="#01943e" d="M 35.511719 32.664062 C 35.664062 32.488281 35.816406 32.289062 36.003906 32.128906 C 36.292969 31.859375 36.398438 31.523438 36.433594 31.136719 C 36.527344 30.277344 36.652344 29.414062 36.769531 28.550781 C 37.292969 28.378906 37.757812 28.238281 38.328125 28.050781 C 38.46875 28.261719 38.621094 28.503906 38.679688 28.585938 C 39.25 28.761719 39.527344 27.945312 39.992188 28.550781 C 39.585938 28.84375 39.109375 29.074219 39.121094 29.726562 C 39.226562 29.84375 39.375 29.996094 39.515625 30.160156 C 39.980469 30.695312 39.957031 30.894531 39.410156 31.394531 C 39.074219 31.695312 38.773438 32.035156 38.410156 32.394531 C 39.074219 32.90625 39.644531 33.339844 40.179688 33.757812 C 40.367188 34.386719 40.15625 34.792969 39.597656 35.074219 C 39.238281 35.261719 38.921875 35.515625 38.574219 35.738281 C 38.480469 36.332031 38.957031 37.078125 38.027344 37.472656 C 37.863281 36.855469 37.679688 36.285156 37.574219 35.679688 C 37.503906 35.273438 37.316406 35.015625 37.027344 34.757812 C 35.96875 33.804688 35.96875 33.804688 35.511719 32.664062 Z M 35.511719 32.664062 " fill-opacity="1" fill-rule="nonzero"/><path fill="#f9a202" d="M 75.488281 54.710938 C 75.628906 55.199219 75.816406 55.628906 75.871094 56.085938 C 75.988281 57.203125 76.640625 57.914062 77.582031 58.355469 C 78.992188 59.007812 79.78125 60.242188 80.703125 61.371094 C 80.738281 61.40625 80.714844 61.488281 80.714844 61.558594 C 80.386719 61.847656 80.15625 61.640625 79.933594 61.394531 C 79.445312 60.859375 78.992188 60.3125 78.480469 59.8125 C 77.804688 59.160156 77.011719 58.714844 76.046875 58.996094 C 75.488281 59.148438 75.105469 58.867188 74.664062 58.566406 C 74.464844 58.84375 74.277344 59.101562 74.082031 59.390625 C 73.71875 58.867188 73.335938 59.273438 72.859375 59.378906 C 72.742188 58.179688 73.265625 57.121094 73.335938 56.199219 C 74.09375 55.664062 74.71875 55.234375 75.488281 54.710938 Z M 75.488281 54.710938 " fill-opacity="1" fill-rule="nonzero"/><path fill="#f9a202" d="M 27.085938 64.179688 C 27.4375 63.945312 27.679688 63.769531 27.949219 63.609375 C 28.355469 63.363281 28.867188 63.28125 28.984375 62.652344 C 29.03125 62.386719 29.378906 62.292969 29.683594 62.488281 C 30.253906 62.863281 30.578125 63.699219 30.347656 64.375 C 30.113281 65.015625 29.890625 65.679688 29.554688 66.273438 C 29.136719 66.996094 29.078125 67.730469 29.195312 68.523438 C 29.273438 69.070312 29.296875 69.628906 29.355469 70.328125 C 28.996094 70.257812 28.714844 70.269531 28.496094 70.152344 C 28.179688 70 28.167969 69.675781 28.15625 69.339844 C 28.113281 68.335938 28.054688 67.347656 27.949219 66.34375 C 27.890625 65.832031 27.855469 65.296875 27.378906 64.914062 C 27.226562 64.796875 27.203125 64.480469 27.085938 64.179688 Z M 27.085938 64.179688 " fill-opacity="1" fill-rule="nonzero"/><path fill="#9b0f24" d="M 70.472656 101.4375 C 70.261719 101.0625 70.054688 100.714844 69.832031 100.328125 C 69.972656 99.734375 70.542969 99.09375 69.773438 98.441406 C 69.554688 98.441406 69.285156 98.441406 68.972656 98.441406 C 68.632812 98.046875 68.296875 97.640625 67.878906 97.148438 C 68.097656 96.707031 68.34375 96.242188 68.574219 95.777344 C 68.621094 95.789062 68.667969 95.808594 68.726562 95.820312 C 68.691406 95.425781 68.714844 95.007812 68.609375 94.621094 C 68.449219 94.027344 68.472656 93.515625 69.066406 93.132812 C 68.925781 92.792969 68.785156 92.492188 68.65625 92.175781 C 69.484375 91.980469 69.613281 92.035156 69.785156 92.746094 C 69.914062 93.292969 70.007812 93.84375 70.136719 94.460938 C 70.042969 94.609375 69.890625 94.820312 69.808594 95.042969 C 69.726562 95.261719 69.691406 95.507812 69.714844 95.742188 C 69.738281 96.019531 69.84375 96.277344 69.890625 96.554688 C 69.949219 96.90625 70.042969 97.136719 70.390625 97.359375 C 71.230469 97.894531 71.695312 99.351562 71.347656 100.269531 C 71.183594 100.679688 70.796875 101.003906 70.472656 101.4375 Z M 70.472656 101.4375 " fill-opacity="1" fill-rule="nonzero"/><path fill="#01943e" d="M 11.363281 70.035156 C 11.761719 69.417969 12.097656 68.859375 12.445312 68.324219 C 12.679688 67.953125 13.003906 67.777344 13.507812 67.871094 C 13.5625 68.5 13.621094 69.128906 14.261719 69.546875 C 14.4375 69.359375 14.613281 69.175781 14.820312 68.964844 C 14.878906 69.035156 14.996094 69.117188 14.984375 69.164062 C 14.683594 70 15.078125 70.539062 15.765625 70.933594 C 16.183594 71.179688 16.289062 71.492188 16.207031 71.945312 C 16.148438 72.308594 16.148438 72.679688 16.113281 73.101562 C 15.4375 73.042969 15.03125 72.527344 14.53125 72.214844 C 13.972656 71.867188 13.449219 71.480469 12.914062 71.109375 C 12.390625 70.757812 11.886719 70.398438 11.363281 70.035156 Z M 11.363281 70.035156 " fill-opacity="1" fill-rule="nonzero"/><path fill="#01943e" d="M 11.132812 69.757812 C 9.851562 69.234375 9.292969 68.359375 9.09375 67.265625 C 9.304688 67.042969 9.515625 66.832031 9.710938 66.589844 C 10.433594 65.703125 11.433594 65.703125 12.074219 66.625 C 12.414062 67.125 12.367188 67.707031 12.121094 68.207031 C 11.84375 68.753906 11.457031 69.246094 11.132812 69.757812 Z M 11.132812 69.757812 " fill-opacity="1" fill-rule="nonzero"/><path fill="#f9a202" d="M 28.101562 70.515625 C 28.019531 70.539062 27.855469 70.652344 27.808594 70.617188 C 27.378906 70.269531 26.820312 69.910156 26.890625 69.328125 C 27.074219 67.789062 26.4375 66.390625 26.285156 64.914062 C 26.261719 64.667969 26.15625 64.433594 26.085938 64.167969 C 26.460938 64.015625 26.726562 64.074219 26.808594 64.46875 C 26.878906 64.820312 27.0625 65.0625 27.273438 65.355469 C 27.496094 65.65625 27.589844 66.101562 27.621094 66.484375 C 27.726562 67.472656 27.75 68.476562 27.84375 69.464844 C 27.855469 69.769531 27.984375 70.082031 28.101562 70.515625 Z M 28.101562 70.515625 " fill-opacity="1" fill-rule="nonzero"/><path fill="#01943e" d="M 8.152344 63.175781 C 7.316406 63.039062 6.871094 63.457031 6.453125 64.074219 C 5.90625 63.621094 5.40625 63.1875 4.835938 62.710938 C 5.941406 62.375 6.90625 61.941406 8.035156 62.117188 C 8.070312 62.429688 8.105469 62.734375 8.152344 63.175781 Z M 8.152344 63.175781 " fill-opacity="1" fill-rule="nonzero"/><path fill="#9b0f24" d="M 63.410156 82.789062 C 63.828125 82.636719 64.1875 82.523438 64.664062 82.347656 C 64.746094 82.648438 65.050781 83.117188 64.921875 83.394531 C 64.710938 83.882812 64.457031 84.476562 63.652344 84.617188 C 63.570312 83.988281 63.492188 83.394531 63.410156 82.789062 Z M 63.410156 82.789062 " fill-opacity="1" fill-rule="nonzero"/><path fill="#f9a202" d="M 38.304688 77.257812 C 38.386719 76.851562 38.457031 76.523438 38.527344 76.152344 C 39.097656 76.152344 39.679688 76.152344 40.308594 76.152344 C 40.308594 76.5 40.308594 76.851562 40.308594 77.257812 C 39.65625 77.257812 39.027344 77.257812 38.304688 77.257812 Z M 38.304688 77.257812 " fill-opacity="1" fill-rule="nonzero"/><path fill="#9b0f24" d="M 64.816406 80.671875 C 65.222656 81.019531 65.179688 81.390625 64.96875 81.789062 C 64.699219 81.90625 64.433594 82.03125 64.152344 82.136719 C 63.875 82.230469 63.582031 82.300781 63.222656 82.40625 C 63.28125 81.917969 63.328125 81.542969 63.398438 81.066406 C 63.839844 80.9375 64.339844 80.796875 64.816406 80.671875 Z M 64.816406 80.671875 " fill-opacity="1" fill-rule="nonzero"/><path fill="#f9a202" d="M 81.085938 61.882812 C 81.367188 62.082031 81.367188 62.292969 81.15625 62.511719 C 80.84375 62.828125 80.644531 63.175781 80.945312 63.6875 C 80.445312 63.6875 80.050781 63.6875 79.527344 63.6875 C 79.574219 63.433594 79.550781 63.128906 79.691406 62.957031 C 80.050781 62.476562 80.386719 61.917969 81.085938 61.882812 Z M 81.085938 61.882812 " fill-opacity="1" fill-rule="nonzero"/><path fill="#01943e" d="M 66.050781 115.878906 C 65.804688 115.585938 65.539062 115.273438 65.257812 114.957031 C 65.515625 114.621094 65.703125 114.386719 65.933594 114.082031 C 66.238281 114.222656 66.621094 114.234375 66.65625 114.667969 C 66.679688 115.132812 66.726562 115.632812 66.050781 115.878906 Z M 66.050781 115.878906 " fill-opacity="1" fill-rule="nonzero"/><path fill="#9b0f24" d="M 41.679688 86.597656 C 41.542969 86.363281 41.425781 86.179688 41.285156 85.933594 C 41.632812 85.632812 41.960938 85.363281 42.367188 85.003906 C 42.113281 85.597656 41.914062 86.050781 41.679688 86.597656 Z M 41.679688 86.597656 " fill-opacity="1" fill-rule="nonzero"/><path fill="#000000" d="M 57.183594 102.960938 C 56.820312 103.230469 56.519531 103.4375 56.226562 103.648438 C 56.066406 103.425781 55.902344 103.21875 55.703125 102.960938 C 56.203125 102.960938 56.648438 102.960938 57.183594 102.960938 Z M 57.183594 102.960938 " fill-opacity="1" fill-rule="nonzero"/><path fill="#f9a202" d="M 44.90625 62.210938 C 44.695312 62.09375 44.449219 62.011719 44.289062 61.859375 C 44.183594 61.757812 44.183594 61.523438 44.101562 61.253906 C 44.625 61.511719 44.789062 61.847656 44.871094 62.246094 Z M 44.90625 62.210938 " fill-opacity="1" fill-rule="nonzero"/><path fill="#000000" d="M 54.679688 103.265625 C 54.796875 103.242188 54.738281 103.253906 54.679688 103.265625 C 54.738281 103.253906 54.796875 103.230469 54.679688 103.265625 Z M 54.679688 103.265625 " fill-opacity="1" fill-rule="nonzero"/><path fill="#000000" d="M 42.285156 86.832031 C 42.179688 86.878906 42.089844 86.9375 41.984375 86.984375 C 41.972656 86.949219 41.972656 86.925781 41.960938 86.890625 C 42.078125 86.878906 42.191406 86.867188 42.308594 86.855469 Z M 42.285156 86.832031 " fill-opacity="1" fill-rule="nonzero"/><path fill="#000000" d="M 60.652344 71.585938 L 60.652344 71.644531 L 60.675781 71.5625 Z M 60.652344 71.585938 " fill-opacity="1" fill-rule="nonzero"/><path fill="#01943e" d="M 63.304688 118.695312 C 63.105469 119.675781 62.082031 119.546875 61.746094 120.175781 C 61.058594 119.976562 61.058594 119.976562 60.789062 119.125 C 61.222656 118.765625 61.699219 118.371094 62.199219 117.949219 C 62.582031 118.207031 62.933594 118.441406 63.304688 118.695312 Z M 63.304688 118.695312 " fill-opacity="1" fill-rule="nonzero"/><g fill="#ffffff" fill-opacity="1"><g transform="translate(441.190414, 100.634197)"><g><path d="M 29.96875 0.75 C 25.4375 0.75 21.523438 -0.046875 18.234375 -1.640625 C 14.953125 -3.234375 12.238281 -5.410156 10.09375 -8.171875 C 7.945312 -10.941406 6.347656 -14.070312 5.296875 -17.5625 C 4.253906 -21.050781 3.734375 -24.691406 3.734375 -28.484375 C 3.734375 -32.265625 4.253906 -35.910156 5.296875 -39.421875 C 6.347656 -42.941406 7.945312 -46.082031 10.09375 -48.84375 C 12.238281 -51.613281 14.953125 -53.796875 18.234375 -55.390625 C 21.523438 -56.984375 25.414062 -57.78125 29.90625 -57.78125 C 34.132812 -57.78125 37.816406 -57.09375 40.953125 -55.71875 C 44.097656 -54.351562 46.679688 -52.484375 48.703125 -50.109375 C 50.722656 -47.742188 52.128906 -45.046875 52.921875 -42.015625 L 47.171875 -42.015625 C 46.222656 -45.347656 44.273438 -48.035156 41.328125 -50.078125 C 38.390625 -52.117188 34.554688 -53.140625 29.828125 -53.140625 C 26.191406 -53.140625 23.050781 -52.46875 20.40625 -51.125 C 17.757812 -49.78125 15.585938 -47.960938 13.890625 -45.671875 C 12.203125 -43.378906 10.945312 -40.757812 10.125 -37.8125 C 9.300781 -34.875 8.890625 -31.8125 8.890625 -28.625 C 8.890625 -25.289062 9.328125 -22.140625 10.203125 -19.171875 C 11.078125 -16.203125 12.382812 -13.570312 14.125 -11.28125 C 15.875 -8.988281 18.054688 -7.179688 20.671875 -5.859375 C 23.285156 -4.546875 26.363281 -3.890625 29.90625 -3.890625 C 33.84375 -3.890625 37.203125 -4.769531 39.984375 -6.53125 C 42.773438 -8.300781 44.914062 -10.742188 46.40625 -13.859375 C 47.90625 -16.972656 48.65625 -20.578125 48.65625 -24.671875 L 34.6875 -24.671875 L 34.6875 -29.296875 L 53.8125 -29.296875 L 53.8125 0 L 49.03125 0 L 49.03125 -10.546875 C 48.132812 -7.898438 46.703125 -5.738281 44.734375 -4.0625 C 42.765625 -2.394531 40.5 -1.175781 37.9375 -0.40625 C 35.375 0.363281 32.71875 0.75 29.96875 0.75 Z M 29.96875 0.75 "/></g></g></g><g fill="#ffffff" fill-opacity="1"><g transform="translate(504.955092, 100.634197)"><g><path d="M 32.890625 -25.78125 L 44.25 0 L 38.578125 0 L 27.8125 -24.890625 C 27.457031 -24.835938 27.101562 -24.8125 26.75 -24.8125 C 26.40625 -24.8125 26.035156 -24.8125 25.640625 -24.8125 L 11.0625 -24.8125 L 11.0625 0 L 5.90625 0 L 5.90625 -57.03125 L 25.640625 -57.03125 C 31.117188 -57.03125 35.503906 -55.6875 38.796875 -53 C 42.085938 -50.3125 43.734375 -46.300781 43.734375 -40.96875 C 43.734375 -37.070312 42.769531 -33.828125 40.84375 -31.234375 C 38.925781 -28.648438 36.273438 -26.832031 32.890625 -25.78125 Z M 11.0625 -29.296875 L 24.96875 -29.296875 C 29.40625 -29.296875 32.789062 -30.289062 35.125 -32.28125 C 37.46875 -34.28125 38.640625 -37.125 38.640625 -40.8125 C 38.640625 -44.5 37.441406 -47.351562 35.046875 -49.375 C 32.660156 -51.394531 29.300781 -52.40625 24.96875 -52.40625 L 11.0625 -52.40625 Z M 11.0625 -29.296875 "/></g></g></g><g fill="#ffffff" fill-opacity="1"><g transform="translate(557.95536, 100.634197)"><g><path d="M 29.671875 0.75 C 25.285156 0.75 21.460938 -0.0351562 18.203125 -1.609375 C 14.941406 -3.179688 12.238281 -5.335938 10.09375 -8.078125 C 7.945312 -10.816406 6.347656 -13.941406 5.296875 -17.453125 C 4.253906 -20.960938 3.734375 -24.660156 3.734375 -28.546875 C 3.734375 -32.441406 4.253906 -36.144531 5.296875 -39.65625 C 6.347656 -43.164062 7.945312 -46.28125 10.09375 -49 C 12.238281 -51.71875 14.941406 -53.859375 18.203125 -55.421875 C 21.460938 -56.992188 25.285156 -57.78125 29.671875 -57.78125 C 34.054688 -57.78125 37.878906 -56.992188 41.140625 -55.421875 C 44.410156 -53.859375 47.113281 -51.71875 49.25 -49 C 51.394531 -46.28125 52.988281 -43.164062 54.03125 -39.65625 C 55.082031 -36.144531 55.609375 -32.441406 55.609375 -28.546875 C 55.609375 -24.660156 55.082031 -20.960938 54.03125 -17.453125 C 52.988281 -13.941406 51.394531 -10.816406 49.25 -8.078125 C 47.113281 -5.335938 44.410156 -3.179688 41.140625 -1.609375 C 37.878906 -0.0351562 34.054688 0.75 29.671875 0.75 Z M 29.671875 -3.890625 C 34.253906 -3.890625 38.078125 -4.972656 41.140625 -7.140625 C 44.210938 -9.304688 46.53125 -12.257812 48.09375 -16 C 49.664062 -19.738281 50.453125 -23.921875 50.453125 -28.546875 C 50.453125 -33.179688 49.664062 -37.351562 48.09375 -41.0625 C 46.53125 -44.78125 44.210938 -47.722656 41.140625 -49.890625 C 38.078125 -52.054688 34.253906 -53.140625 29.671875 -53.140625 C 25.140625 -53.140625 21.328125 -52.054688 18.234375 -49.890625 C 15.148438 -47.722656 12.820312 -44.78125 11.25 -41.0625 C 9.675781 -37.351562 8.890625 -33.179688 8.890625 -28.546875 C 8.890625 -23.921875 9.675781 -19.738281 11.25 -16 C 12.820312 -12.257812 15.148438 -9.304688 18.234375 -7.140625 C 21.328125 -4.972656 25.140625 -3.890625 29.671875 -3.890625 Z M 29.671875 -3.890625 "/></g></g></g><g fill="#ffffff" fill-opacity="1"><g transform="translate(622.542322, 100.634197)"><g><path d="M 25.71875 0.75 C 18.738281 0.75 13.601562 -1.117188 10.3125 -4.859375 C 7.019531 -8.597656 5.375 -13.707031 5.375 -20.1875 L 5.375 -57.03125 L 10.546875 -57.03125 L 10.546875 -20.1875 C 10.546875 -15.101562 11.738281 -11.113281 14.125 -8.21875 C 16.519531 -5.332031 20.382812 -3.890625 25.71875 -3.890625 C 31.050781 -3.890625 34.910156 -5.332031 37.296875 -8.21875 C 39.691406 -11.113281 40.890625 -15.101562 40.890625 -20.1875 L 40.890625 -57.03125 L 46.046875 -57.03125 L 46.046875 -20.1875 C 46.046875 -13.707031 44.398438 -8.597656 41.109375 -4.859375 C 37.816406 -1.117188 32.6875 0.75 25.71875 0.75 Z M 25.71875 0.75 "/></g></g></g><g fill="#ffffff" fill-opacity="1"><g transform="translate(679.280221, 100.634197)"><g><path d="M 11.0625 0 L 5.90625 0 L 5.90625 -57.03125 L 25.640625 -57.03125 C 31.117188 -57.03125 35.503906 -55.6875 38.796875 -53 C 42.085938 -50.3125 43.734375 -46.300781 43.734375 -40.96875 C 43.734375 -35.832031 42.113281 -31.851562 38.875 -29.03125 C 35.632812 -26.21875 31.222656 -24.8125 25.640625 -24.8125 L 11.0625 -24.8125 Z M 11.0625 -52.40625 L 11.0625 -29.296875 L 24.96875 -29.296875 C 29.40625 -29.296875 32.789062 -30.289062 35.125 -32.28125 C 37.46875 -34.28125 38.640625 -37.125 38.640625 -40.8125 C 38.640625 -44.5 37.441406 -47.351562 35.046875 -49.375 C 32.660156 -51.394531 29.300781 -52.40625 24.96875 -52.40625 Z M 11.0625 -52.40625 "/></g></g></g><g fill="#ffffff" fill-opacity="1"><g transform="translate(305.60627, 123.005495)"><g><path d="M 4.1875 -4.765625 C 4.5625 -4.765625 4.894531 -4.8125 5.1875 -4.90625 C 5.476562 -5.007812 5.722656 -5.148438 5.921875 -5.328125 C 6.128906 -5.515625 6.28125 -5.734375 6.375 -5.984375 C 6.476562 -6.242188 6.53125 -6.523438 6.53125 -6.828125 C 6.53125 -7.453125 6.332031 -7.941406 5.9375 -8.296875 C 5.550781 -8.648438 4.96875 -8.828125 4.1875 -8.828125 L 2.59375 -8.828125 L 2.59375 -4.765625 Z M 4.1875 -9.890625 C 4.8125 -9.890625 5.351562 -9.816406 5.8125 -9.671875 C 6.269531 -9.523438 6.648438 -9.316406 6.953125 -9.046875 C 7.265625 -8.785156 7.492188 -8.460938 7.640625 -8.078125 C 7.785156 -7.703125 7.859375 -7.285156 7.859375 -6.828125 C 7.859375 -6.359375 7.773438 -5.929688 7.609375 -5.546875 C 7.453125 -5.171875 7.21875 -4.84375 6.90625 -4.5625 C 6.601562 -4.289062 6.222656 -4.078125 5.765625 -3.921875 C 5.304688 -3.773438 4.78125 -3.703125 4.1875 -3.703125 L 2.59375 -3.703125 L 2.59375 0 L 1.265625 0 L 1.265625 -9.890625 Z M 4.1875 -9.890625 "/></g></g></g><g fill="#ffffff" fill-opacity="1"><g transform="translate(324.919761, 123.005495)"><g><path d="M 6.515625 -3.671875 L 4.953125 -7.6875 C 4.910156 -7.8125 4.863281 -7.953125 4.8125 -8.109375 C 4.757812 -8.265625 4.710938 -8.429688 4.671875 -8.609375 C 4.578125 -8.242188 4.476562 -7.9375 4.375 -7.6875 L 2.828125 -3.671875 Z M 9.296875 0 L 8.265625 0 C 8.140625 0 8.039062 -0.0234375 7.96875 -0.078125 C 7.894531 -0.140625 7.84375 -0.21875 7.8125 -0.3125 L 6.890625 -2.703125 L 2.453125 -2.703125 L 1.53125 -0.3125 C 1.5 -0.226562 1.441406 -0.15625 1.359375 -0.09375 C 1.285156 -0.03125 1.191406 0 1.078125 0 L 0.046875 0 L 4 -9.890625 L 5.34375 -9.890625 Z M 9.296875 0 "/></g></g></g><g fill="#ffffff" fill-opacity="1"><g transform="translate(345.288214, 123.005495)"><g><path d="M 4 -5.09375 C 4.382812 -5.09375 4.722656 -5.140625 5.015625 -5.234375 C 5.316406 -5.328125 5.566406 -5.457031 5.765625 -5.625 C 5.972656 -5.800781 6.125 -6.007812 6.21875 -6.25 C 6.320312 -6.488281 6.375 -6.753906 6.375 -7.046875 C 6.375 -7.640625 6.179688 -8.082031 5.796875 -8.375 C 5.410156 -8.675781 4.832031 -8.828125 4.0625 -8.828125 L 2.59375 -8.828125 L 2.59375 -5.09375 Z M 8.5625 0 L 7.375 0 C 7.132812 0 6.957031 -0.09375 6.84375 -0.28125 L 4.28125 -3.8125 C 4.195312 -3.925781 4.109375 -4.003906 4.015625 -4.046875 C 3.929688 -4.097656 3.796875 -4.125 3.609375 -4.125 L 2.59375 -4.125 L 2.59375 0 L 1.265625 0 L 1.265625 -9.890625 L 4.0625 -9.890625 C 4.6875 -9.890625 5.222656 -9.820312 5.671875 -9.6875 C 6.128906 -9.5625 6.503906 -9.378906 6.796875 -9.140625 C 7.097656 -8.898438 7.316406 -8.613281 7.453125 -8.28125 C 7.597656 -7.945312 7.671875 -7.566406 7.671875 -7.140625 C 7.671875 -6.796875 7.613281 -6.472656 7.5 -6.171875 C 7.394531 -5.867188 7.238281 -5.59375 7.03125 -5.34375 C 6.820312 -5.101562 6.566406 -4.898438 6.265625 -4.734375 C 5.960938 -4.566406 5.625 -4.4375 5.25 -4.34375 C 5.414062 -4.25 5.5625 -4.109375 5.6875 -3.921875 Z M 8.5625 0 "/></g></g></g><g fill="#ffffff" fill-opacity="1"><g transform="translate(364.960252, 123.005495)"><g><path d="M 7.953125 -8.765625 L 4.75 -8.765625 L 4.75 0 L 3.421875 0 L 3.421875 -8.765625 L 0.203125 -8.765625 L 0.203125 -9.890625 L 7.953125 -9.890625 Z M 7.953125 -8.765625 "/></g></g></g><g fill="#ffffff" fill-opacity="1"><g transform="translate(384.135825, 123.005495)"><g><path d="M 9.265625 -9.890625 L 9.265625 0 L 8.609375 0 C 8.492188 0 8.398438 -0.015625 8.328125 -0.046875 C 8.265625 -0.0859375 8.195312 -0.148438 8.125 -0.234375 L 2.40625 -7.6875 C 2.414062 -7.570312 2.421875 -7.457031 2.421875 -7.34375 C 2.429688 -7.238281 2.4375 -7.140625 2.4375 -7.046875 L 2.4375 0 L 1.265625 0 L 1.265625 -9.890625 L 1.953125 -9.890625 C 2.015625 -9.890625 2.066406 -9.882812 2.109375 -9.875 C 2.148438 -9.863281 2.1875 -9.847656 2.21875 -9.828125 C 2.25 -9.816406 2.28125 -9.796875 2.3125 -9.765625 C 2.34375 -9.742188 2.378906 -9.707031 2.421875 -9.65625 L 8.140625 -2.21875 C 8.128906 -2.332031 8.117188 -2.445312 8.109375 -2.5625 C 8.097656 -2.675781 8.09375 -2.785156 8.09375 -2.890625 L 8.09375 -9.890625 Z M 9.265625 -9.890625 "/></g></g></g><g fill="#ffffff" fill-opacity="1"><g transform="translate(405.697156, 123.005495)"><g><path d="M 7.359375 -1.09375 L 7.359375 0 L 1.265625 0 L 1.265625 -9.890625 L 7.359375 -9.890625 L 7.359375 -8.796875 L 2.59375 -8.796875 L 2.59375 -5.515625 L 6.453125 -5.515625 L 6.453125 -4.46875 L 2.59375 -4.46875 L 2.59375 -1.09375 Z M 7.359375 -1.09375 "/></g></g></g><g fill="#ffffff" fill-opacity="1"><g transform="translate(424.693464, 123.005495)"><g><path d="M 4 -5.09375 C 4.382812 -5.09375 4.722656 -5.140625 5.015625 -5.234375 C 5.316406 -5.328125 5.566406 -5.457031 5.765625 -5.625 C 5.972656 -5.800781 6.125 -6.007812 6.21875 -6.25 C 6.320312 -6.488281 6.375 -6.753906 6.375 -7.046875 C 6.375 -7.640625 6.179688 -8.082031 5.796875 -8.375 C 5.410156 -8.675781 4.832031 -8.828125 4.0625 -8.828125 L 2.59375 -8.828125 L 2.59375 -5.09375 Z M 8.5625 0 L 7.375 0 C 7.132812 0 6.957031 -0.09375 6.84375 -0.28125 L 4.28125 -3.8125 C 4.195312 -3.925781 4.109375 -4.003906 4.015625 -4.046875 C 3.929688 -4.097656 3.796875 -4.125 3.609375 -4.125 L 2.59375 -4.125 L 2.59375 0 L 1.265625 0 L 1.265625 -9.890625 L 4.0625 -9.890625 C 4.6875 -9.890625 5.222656 -9.820312 5.671875 -9.6875 C 6.128906 -9.5625 6.503906 -9.378906 6.796875 -9.140625 C 7.097656 -8.898438 7.316406 -8.613281 7.453125 -8.28125 C 7.597656 -7.945312 7.671875 -7.566406 7.671875 -7.140625 C 7.671875 -6.796875 7.613281 -6.472656 7.5 -6.171875 C 7.394531 -5.867188 7.238281 -5.59375 7.03125 -5.34375 C 6.820312 -5.101562 6.566406 -4.898438 6.265625 -4.734375 C 5.960938 -4.566406 5.625 -4.4375 5.25 -4.34375 C 5.414062 -4.25 5.5625 -4.109375 5.6875 -3.921875 Z M 8.5625 0 "/></g></g></g><g fill="#ffffff" fill-opacity="1"><g transform="translate(444.365499, 123.005495)"><g><path d="M 6.3125 -8.34375 C 6.269531 -8.269531 6.222656 -8.21875 6.171875 -8.1875 C 6.128906 -8.15625 6.078125 -8.140625 6.015625 -8.140625 C 5.929688 -8.140625 5.835938 -8.175781 5.734375 -8.25 C 5.628906 -8.332031 5.492188 -8.421875 5.328125 -8.515625 C 5.171875 -8.609375 4.976562 -8.691406 4.75 -8.765625 C 4.53125 -8.847656 4.265625 -8.890625 3.953125 -8.890625 C 3.648438 -8.890625 3.382812 -8.847656 3.15625 -8.765625 C 2.9375 -8.679688 2.75 -8.570312 2.59375 -8.4375 C 2.4375 -8.300781 2.316406 -8.140625 2.234375 -7.953125 C 2.160156 -7.765625 2.125 -7.5625 2.125 -7.34375 C 2.125 -7.070312 2.191406 -6.84375 2.328125 -6.65625 C 2.460938 -6.476562 2.640625 -6.320312 2.859375 -6.1875 C 3.085938 -6.0625 3.34375 -5.953125 3.625 -5.859375 C 3.90625 -5.765625 4.191406 -5.664062 4.484375 -5.5625 C 4.785156 -5.46875 5.078125 -5.351562 5.359375 -5.21875 C 5.640625 -5.09375 5.890625 -4.929688 6.109375 -4.734375 C 6.335938 -4.546875 6.519531 -4.3125 6.65625 -4.03125 C 6.789062 -3.75 6.859375 -3.40625 6.859375 -3 C 6.859375 -2.570312 6.785156 -2.164062 6.640625 -1.78125 C 6.492188 -1.40625 6.28125 -1.078125 6 -0.796875 C 5.71875 -0.515625 5.367188 -0.289062 4.953125 -0.125 C 4.546875 0.03125 4.078125 0.109375 3.546875 0.109375 C 2.910156 0.109375 2.328125 -0.00390625 1.796875 -0.234375 C 1.273438 -0.472656 0.828125 -0.785156 0.453125 -1.171875 L 0.84375 -1.8125 C 0.875 -1.863281 0.914062 -1.90625 0.96875 -1.9375 C 1.03125 -1.976562 1.09375 -2 1.15625 -2 C 1.207031 -2 1.269531 -1.972656 1.34375 -1.921875 C 1.425781 -1.867188 1.515625 -1.804688 1.609375 -1.734375 C 1.710938 -1.660156 1.820312 -1.578125 1.9375 -1.484375 C 2.0625 -1.398438 2.203125 -1.320312 2.359375 -1.25 C 2.523438 -1.175781 2.707031 -1.113281 2.90625 -1.0625 C 3.113281 -1.019531 3.34375 -1 3.59375 -1 C 3.90625 -1 4.1875 -1.039062 4.4375 -1.125 C 4.6875 -1.21875 4.894531 -1.34375 5.0625 -1.5 C 5.238281 -1.65625 5.375 -1.84375 5.46875 -2.0625 C 5.5625 -2.289062 5.609375 -2.539062 5.609375 -2.8125 C 5.609375 -3.101562 5.539062 -3.34375 5.40625 -3.53125 C 5.269531 -3.726562 5.09375 -3.890625 4.875 -4.015625 C 4.65625 -4.148438 4.398438 -4.257812 4.109375 -4.34375 C 3.828125 -4.4375 3.535156 -4.53125 3.234375 -4.625 C 2.941406 -4.71875 2.65625 -4.828125 2.375 -4.953125 C 2.09375 -5.078125 1.835938 -5.238281 1.609375 -5.4375 C 1.390625 -5.632812 1.210938 -5.878906 1.078125 -6.171875 C 0.941406 -6.472656 0.875 -6.84375 0.875 -7.28125 C 0.875 -7.625 0.941406 -7.957031 1.078125 -8.28125 C 1.210938 -8.613281 1.410156 -8.90625 1.671875 -9.15625 C 1.929688 -9.414062 2.25 -9.617188 2.625 -9.765625 C 3.007812 -9.921875 3.445312 -10 3.9375 -10 C 4.488281 -10 4.988281 -9.910156 5.4375 -9.734375 C 5.894531 -9.554688 6.296875 -9.300781 6.640625 -8.96875 Z M 6.3125 -8.34375 "/></g></g></g><g fill="#ffffff" fill-opacity="1"><g transform="translate(462.879137, 123.005495)"><g><path d="M 9.265625 -9.890625 L 9.265625 0 L 7.9375 0 L 7.9375 -4.5 L 2.59375 -4.5 L 2.59375 0 L 1.265625 0 L 1.265625 -9.890625 L 2.59375 -9.890625 L 2.59375 -5.484375 L 7.9375 -5.484375 L 7.9375 -9.890625 Z M 9.265625 -9.890625 "/></g></g></g><g fill="#ffffff" fill-opacity="1"><g transform="translate(484.440477, 123.005495)"><g><path d="M 2.59375 0 L 1.265625 0 L 1.265625 -9.890625 L 2.59375 -9.890625 Z M 2.59375 0 "/></g></g></g><g fill="#ffffff" fill-opacity="1"><g transform="translate(499.33413, 123.005495)"><g><path d="M 4.1875 -4.765625 C 4.5625 -4.765625 4.894531 -4.8125 5.1875 -4.90625 C 5.476562 -5.007812 5.722656 -5.148438 5.921875 -5.328125 C 6.128906 -5.515625 6.28125 -5.734375 6.375 -5.984375 C 6.476562 -6.242188 6.53125 -6.523438 6.53125 -6.828125 C 6.53125 -7.453125 6.332031 -7.941406 5.9375 -8.296875 C 5.550781 -8.648438 4.96875 -8.828125 4.1875 -8.828125 L 2.59375 -8.828125 L 2.59375 -4.765625 Z M 4.1875 -9.890625 C 4.8125 -9.890625 5.351562 -9.816406 5.8125 -9.671875 C 6.269531 -9.523438 6.648438 -9.316406 6.953125 -9.046875 C 7.265625 -8.785156 7.492188 -8.460938 7.640625 -8.078125 C 7.785156 -7.703125 7.859375 -7.285156 7.859375 -6.828125 C 7.859375 -6.359375 7.773438 -5.929688 7.609375 -5.546875 C 7.453125 -5.171875 7.21875 -4.84375 6.90625 -4.5625 C 6.601562 -4.289062 6.222656 -4.078125 5.765625 -3.921875 C 5.304688 -3.773438 4.78125 -3.703125 4.1875 -3.703125 L 2.59375 -3.703125 L 2.59375 0 L 1.265625 0 L 1.265625 -9.890625 Z M 4.1875 -9.890625 "/></g></g></g><g fill="#ffffff" fill-opacity="1"><g transform="translate(518.647628, 123.005495)"><g><path d="M 6.3125 -8.34375 C 6.269531 -8.269531 6.222656 -8.21875 6.171875 -8.1875 C 6.128906 -8.15625 6.078125 -8.140625 6.015625 -8.140625 C 5.929688 -8.140625 5.835938 -8.175781 5.734375 -8.25 C 5.628906 -8.332031 5.492188 -8.421875 5.328125 -8.515625 C 5.171875 -8.609375 4.976562 -8.691406 4.75 -8.765625 C 4.53125 -8.847656 4.265625 -8.890625 3.953125 -8.890625 C 3.648438 -8.890625 3.382812 -8.847656 3.15625 -8.765625 C 2.9375 -8.679688 2.75 -8.570312 2.59375 -8.4375 C 2.4375 -8.300781 2.316406 -8.140625 2.234375 -7.953125 C 2.160156 -7.765625 2.125 -7.5625 2.125 -7.34375 C 2.125 -7.070312 2.191406 -6.84375 2.328125 -6.65625 C 2.460938 -6.476562 2.640625 -6.320312 2.859375 -6.1875 C 3.085938 -6.0625 3.34375 -5.953125 3.625 -5.859375 C 3.90625 -5.765625 4.191406 -5.664062 4.484375 -5.5625 C 4.785156 -5.46875 5.078125 -5.351562 5.359375 -5.21875 C 5.640625 -5.09375 5.890625 -4.929688 6.109375 -4.734375 C 6.335938 -4.546875 6.519531 -4.3125 6.65625 -4.03125 C 6.789062 -3.75 6.859375 -3.40625 6.859375 -3 C 6.859375 -2.570312 6.785156 -2.164062 6.640625 -1.78125 C 6.492188 -1.40625 6.28125 -1.078125 6 -0.796875 C 5.71875 -0.515625 5.367188 -0.289062 4.953125 -0.125 C 4.546875 0.03125 4.078125 0.109375 3.546875 0.109375 C 2.910156 0.109375 2.328125 -0.00390625 1.796875 -0.234375 C 1.273438 -0.472656 0.828125 -0.785156 0.453125 -1.171875 L 0.84375 -1.8125 C 0.875 -1.863281 0.914062 -1.90625 0.96875 -1.9375 C 1.03125 -1.976562 1.09375 -2 1.15625 -2 C 1.207031 -2 1.269531 -1.972656 1.34375 -1.921875 C 1.425781 -1.867188 1.515625 -1.804688 1.609375 -1.734375 C 1.710938 -1.660156 1.820312 -1.578125 1.9375 -1.484375 C 2.0625 -1.398438 2.203125 -1.320312 2.359375 -1.25 C 2.523438 -1.175781 2.707031 -1.113281 2.90625 -1.0625 C 3.113281 -1.019531 3.34375 -1 3.59375 -1 C 3.90625 -1 4.1875 -1.039062 4.4375 -1.125 C 4.6875 -1.21875 4.894531 -1.34375 5.0625 -1.5 C 5.238281 -1.65625 5.375 -1.84375 5.46875 -2.0625 C 5.5625 -2.289062 5.609375 -2.539062 5.609375 -2.8125 C 5.609375 -3.101562 5.539062 -3.34375 5.40625 -3.53125 C 5.269531 -3.726562 5.09375 -3.890625 4.875 -4.015625 C 4.65625 -4.148438 4.398438 -4.257812 4.109375 -4.34375 C 3.828125 -4.4375 3.535156 -4.53125 3.234375 -4.625 C 2.941406 -4.71875 2.65625 -4.828125 2.375 -4.953125 C 2.09375 -5.078125 1.835938 -5.238281 1.609375 -5.4375 C 1.390625 -5.632812 1.210938 -5.878906 1.078125 -6.171875 C 0.941406 -6.472656 0.875 -6.84375 0.875 -7.28125 C 0.875 -7.625 0.941406 -7.957031 1.078125 -8.28125 C 1.210938 -8.613281 1.410156 -8.90625 1.671875 -9.15625 C 1.929688 -9.414062 2.25 -9.617188 2.625 -9.765625 C 3.007812 -9.921875 3.445312 -10 3.9375 -10 C 4.488281 -10 4.988281 -9.910156 5.4375 -9.734375 C 5.894531 -9.554688 6.296875 -9.300781 6.640625 -8.96875 Z M 6.3125 -8.34375 "/></g></g></g></svg>