<svg xmlns="http://www.w3.org/2000/svg" xmlns:xlink="http://www.w3.org/1999/xlink" width="1000" zoomAndPan="magnify" viewBox="0 0 750 149.999998" height="200" preserveAspectRatio="xMidYMid meet" version="1.0"><defs><g/><clipPath id="ed338e6ed8"><path d="M 84 115 L 105 115 L 105 132.222656 L 84 132.222656 Z M 84 115 " clip-rule="nonzero"/></clipPath><clipPath id="9798d7bf8a"><path d="M 40.378906 48 L 56 48 L 56 65 L 40.378906 65 Z M 40.378906 48 " clip-rule="nonzero"/></clipPath><clipPath id="881d07f8ed"><path d="M 115 68 L 128.128906 68 L 128.128906 87 L 115 87 Z M 115 68 " clip-rule="nonzero"/></clipPath><clipPath id="9f68a87efc"><path d="M 40.378906 47 L 51 47 L 51 56 L 40.378906 56 Z M 40.378906 47 " clip-rule="nonzero"/></clipPath><clipPath id="bc1e4ec20f"><path d="M 40.378906 62 L 48 62 L 48 69 L 40.378906 69 Z M 40.378906 62 " clip-rule="nonzero"/></clipPath></defs><g fill="#ffffff" fill-opacity="1"><g transform="translate(191.49, 105.419729)"><g><path d="M 12.9375 0 L 0.140625 0 L 17.71875 -51.421875 L 30.796875 -51.421875 L 48.390625 0 L 35.578125 0 L 32.8125 -9.234375 L 15.703125 -9.234375 Z M 24.265625 -38.015625 L 18.875 -19.671875 L 29.65625 -19.671875 Z M 24.265625 -38.015625 "/></g></g></g><g fill="#ffffff" fill-opacity="1"><g transform="translate(243.360064, 105.419729)"><g><path d="M 16.109375 0 L 4.046875 0 L 4.046875 -51.421875 L 39.15625 -51.421875 L 39.15625 -40.640625 L 16.109375 -40.640625 L 16.109375 -31.0625 L 36.9375 -31.0625 L 36.9375 -20.359375 L 16.109375 -20.359375 Z M 16.109375 0 "/></g></g></g><g fill="#ffffff" fill-opacity="1"><g transform="translate(287.550894, 105.419729)"><g><path d="M 37.203125 -22.03125 L 46.09375 0 L 33.359375 0 L 25.875 -19.8125 L 16.109375 -19.8125 L 16.109375 0 L 4.046875 0 L 4.046875 -51.421875 L 28.296875 -51.421875 C 31.441406 -51.421875 34.238281 -50.898438 36.6875 -49.859375 C 39.132812 -48.828125 41.054688 -47.175781 42.453125 -44.90625 C 43.847656 -42.644531 44.546875 -39.648438 44.546875 -35.921875 C 44.546875 -32.640625 43.878906 -29.828125 42.546875 -27.484375 C 41.222656 -25.148438 39.441406 -23.332031 37.203125 -22.03125 Z M 26.625 -40.640625 L 16.109375 -40.640625 L 16.109375 -30.265625 L 26.625 -30.265625 C 30.613281 -30.265625 32.609375 -32.015625 32.609375 -35.515625 C 32.609375 -38.929688 30.613281 -40.640625 26.625 -40.640625 Z M 26.625 -40.640625 "/></g></g></g><g fill="#ffffff" fill-opacity="1"><g transform="translate(338.612609, 105.419729)"><g><path d="M 16.109375 0 L 4.046875 0 L 4.046875 -51.421875 L 16.109375 -51.421875 Z M 16.109375 0 "/></g></g></g><g fill="#ffffff" fill-opacity="1"><g transform="translate(362.190763, 105.419729)"><g><path d="M 16.109375 0 L 4.046875 0 L 4.046875 -51.421875 L 16.109375 -51.421875 L 16.109375 -29.109375 L 32.078125 -51.421875 L 46.5625 -51.421875 L 27.703125 -26.484375 L 46.84375 0 L 32.21875 0 L 16.109375 -23.046875 Z M 16.109375 0 "/></g></g></g><g fill="#ffffff" fill-opacity="1"><g transform="translate(412.37678, 105.419729)"><g><path d="M 12.9375 0 L 0.140625 0 L 17.71875 -51.421875 L 30.796875 -51.421875 L 48.390625 0 L 35.578125 0 L 32.8125 -9.234375 L 15.703125 -9.234375 Z M 24.265625 -38.015625 L 18.875 -19.671875 L 29.65625 -19.671875 Z M 24.265625 -38.015625 "/></g></g></g><g fill="#ffffff" fill-opacity="1"><g transform="translate(464.265029, 105.419729)"><g/></g></g><path fill="#01943e" d="M 57.527344 42.214844 C 57.667969 42.160156 57.773438 42.148438 57.832031 42.089844 C 58.390625 41.53125 59.074219 41.425781 59.808594 41.519531 C 60.496094 41.609375 60.867188 41.320312 61.007812 40.585938 C 60.03125 39.804688 60.03125 38.558594 59.65625 37.371094 C 60.9375 36.660156 62.160156 35.925781 63.441406 35.285156 C 63.859375 35.078125 64.417969 35.113281 64.90625 35.089844 C 67.488281 34.925781 70.085938 34.785156 72.667969 34.632812 C 72.761719 34.632812 72.84375 34.667969 73.007812 34.703125 C 72.902344 35.566406 72.832031 36.429688 72.703125 37.277344 C 72.667969 37.511719 72.515625 37.734375 72.378906 37.929688 C 72.203125 38.175781 71.96875 38.394531 71.773438 38.628906 C 72.015625 39.550781 72.472656 40.273438 73.203125 40.796875 C 73.667969 41.132812 73.914062 41.5625 73.996094 42.113281 C 74.089844 42.789062 74.160156 43.460938 74.261719 44.125 C 74.296875 44.335938 74.355469 44.558594 74.460938 44.742188 C 75.125 45.953125 74.738281 47.257812 74.773438 48.515625 C 74.785156 48.761719 74.4375 49.007812 74.214844 49.308594 C 74.378906 49.507812 74.578125 49.695312 74.71875 49.925781 C 74.902344 50.242188 75.101562 50.578125 75.160156 50.929688 C 75.242188 51.464844 75.484375 51.707031 76.019531 51.707031 C 76.742188 51.707031 77.148438 52.128906 77.417969 52.828125 C 76.324219 53.535156 75.242188 54.257812 74.136719 54.957031 C 72.785156 55.796875 71.433594 56.65625 70.316406 57.8125 C 69.710938 58.441406 68.945312 58.488281 68.1875 58.625 C 67.699219 58.71875 67.199219 58.765625 66.652344 58.847656 C 66.605469 58.511719 66.570312 58.183594 66.511719 57.777344 C 66.058594 57.589844 65.570312 57.414062 65.09375 57.207031 C 64.648438 57.007812 64.160156 56.925781 64.046875 56.285156 C 64 56.050781 63.613281 55.878906 63.359375 55.703125 C 59.65625 53.328125 55.957031 50.953125 52.246094 48.574219 C 51.335938 47.992188 51.105469 47.46875 51.300781 46.398438 C 51.324219 46.28125 51.371094 46.128906 51.453125 46.070312 C 52.09375 45.652344 52.605469 45 53.429688 44.894531 C 53.488281 44.882812 53.546875 44.847656 53.605469 44.847656 C 54.992188 44.789062 56.050781 44.058594 57.085938 43.21875 C 57.433594 42.9375 57.679688 42.671875 57.527344 42.214844 Z M 57.527344 42.214844 " fill-opacity="1" fill-rule="nonzero"/><path fill="#f9a202" d="M 92.8125 72.742188 C 92.835938 72.53125 92.824219 72.371094 92.871094 72.230469 C 93.058594 71.636719 92.894531 71.136719 92.488281 70.679688 C 92.136719 70.296875 91.917969 69.867188 92.148438 69.480469 C 91.90625 68.957031 91.71875 68.539062 91.511719 68.128906 C 91.371094 67.863281 91.207031 67.605469 91.054688 67.339844 C 90.988281 67.339844 90.90625 67.351562 90.835938 67.351562 C 91.242188 66.148438 91.648438 64.9375 92.070312 63.703125 C 92.523438 63.667969 92.953125 63.621094 93.5 63.578125 C 93.558594 62.609375 93.523438 61.65625 93.523438 60.6875 C 93.535156 59.757812 93.523438 58.8125 93.523438 57.8125 C 93.941406 57.777344 94.339844 57.742188 94.828125 57.695312 C 94.828125 56.855469 94.828125 56.027344 94.828125 55.144531 C 95.234375 55.121094 95.535156 55.097656 95.839844 55.097656 C 97.898438 55.097656 99.972656 55.167969 102.03125 55.0625 C 102.890625 55.015625 103.730469 55.144531 104.589844 55.097656 C 105.429688 55.050781 106.277344 55.085938 107.128906 55.085938 C 108 55.085938 108.875 55.085938 109.839844 55.085938 C 109.945312 55.410156 110.0625 55.714844 110.128906 56.039062 C 110.199219 56.378906 110.234375 56.726562 110.222656 57.066406 C 110.199219 58.21875 110.257812 59.3125 111.457031 59.941406 C 111.597656 60.023438 111.667969 60.234375 111.792969 60.421875 C 111.234375 61.050781 110.675781 61.621094 109.722656 61.621094 C 109.570312 62.925781 109.128906 64.125 109.128906 65.429688 C 109.128906 66.195312 109.070312 67.046875 108.292969 67.582031 C 108.082031 67.722656 108 68.046875 107.882812 68.304688 C 107.734375 68.621094 107.605469 68.933594 107.464844 69.25 C 107.175781 69.878906 107.175781 69.878906 106.40625 70.0625 C 106.277344 71.042969 106.148438 72.054688 106.023438 73.078125 C 105.695312 73.113281 105.417969 73.148438 105.066406 73.195312 C 104.964844 73.59375 104.859375 74 104.730469 74.464844 C 106 74.582031 106.464844 75.46875 106.917969 76.363281 C 107.210938 76.921875 107.347656 77.621094 108.105469 77.832031 C 108.175781 77.855469 108.199219 78.097656 108.257812 78.296875 C 108.058594 78.332031 107.917969 78.402344 107.78125 78.390625 C 106.917969 78.332031 106.183594 78.507812 105.683594 79.300781 C 105.589844 79.449219 105.324219 79.542969 105.125 79.554688 C 104.253906 79.625 103.378906 79.648438 102.507812 79.730469 C 102.066406 79.765625 101.714844 79.660156 101.4375 79.300781 C 101.296875 79.125 101.121094 78.996094 100.984375 78.832031 C 100.714844 78.519531 100.4375 78.378906 99.992188 78.519531 C 99.609375 78.636719 99.203125 78.648438 98.75 78.714844 C 97.769531 77.550781 96.78125 76.386719 95.792969 75.222656 C 95.457031 74.816406 95.152344 74.371094 94.78125 73.988281 C 94.5 73.707031 94.152344 73.488281 93.824219 73.265625 C 93.511719 73.078125 93.199219 72.941406 92.8125 72.742188 Z M 92.8125 72.742188 " fill-opacity="1" fill-rule="nonzero"/><path fill="#9b0f24" d="M 78.976562 92.878906 C 78.953125 92.667969 78.894531 92.449219 78.90625 92.238281 C 78.941406 91.585938 79.199219 91.433594 79.847656 91.644531 C 80.164062 91.398438 80.453125 91.15625 80.851562 90.839844 C 80.953125 91.191406 81.023438 91.410156 81.117188 91.714844 C 81.328125 91.632812 81.558594 91.609375 81.6875 91.480469 C 82.222656 90.957031 82.722656 90.398438 83.257812 89.875 C 83.550781 89.59375 83.574219 89.257812 83.527344 88.929688 C 83.386719 88.035156 83.710938 87.359375 84.398438 86.8125 C 85.214844 86.171875 85.597656 85.332031 85.585938 84.308594 C 85.585938 83.875 85.632812 83.433594 85.65625 82.992188 C 85.691406 82.292969 85.808594 81.640625 86.203125 81.035156 C 86.378906 80.765625 86.539062 80.382812 86.507812 80.078125 C 86.378906 79.054688 86.890625 78.507812 87.808594 78.109375 C 88.660156 79.136719 89.972656 79.136719 91.183594 79.496094 C 91.453125 79.183594 91.71875 78.890625 91.988281 78.589844 C 92.976562 78.726562 93.929688 78.460938 94.746094 78.019531 C 95.316406 77.703125 95.792969 77.761719 96.339844 77.832031 C 96.457031 77.84375 96.574219 77.925781 96.6875 77.949219 C 97.085938 78.042969 97.515625 78.066406 97.851562 78.25 C 98.167969 78.425781 98.375 78.761719 98.65625 79.066406 C 99.226562 78.972656 99.808594 78.878906 100.621094 78.738281 C 100.773438 78.9375 100.960938 79.289062 101.238281 79.519531 C 101.703125 79.929688 101.960938 80.382812 101.773438 80.988281 C 101.625 81.488281 101.949219 81.734375 102.378906 82.035156 C 100.679688 83.097656 100.214844 84.703125 100.226562 86.566406 C 100.050781 86.671875 99.855469 86.800781 99.691406 86.902344 C 99.609375 87.324219 99.539062 87.671875 99.492188 88.035156 C 99.46875 88.183594 99.433594 88.359375 99.492188 88.488281 C 99.914062 89.441406 99.972656 90.445312 99.9375 91.46875 C 99.9375 91.644531 100.015625 91.832031 100.0625 92.003906 C 100.121094 92.179688 100.273438 92.402344 100.226562 92.53125 C 99.925781 93.34375 100.507812 93.789062 100.902344 94.335938 C 101.191406 94.730469 101.367188 95.207031 101.636719 95.742188 C 101.191406 95.835938 100.808594 95.917969 100.425781 95.976562 C 99.285156 96.152344 98.621094 96.964844 98.855469 98.050781 C 99.050781 98.96875 99.050781 99.84375 98.667969 100.695312 C 99.296875 101.402344 99.539062 101.53125 100.449219 101.671875 C 100.460938 101.964844 100.484375 102.265625 100.496094 102.59375 C 100.109375 102.824219 99.855469 102.847656 99.5625 102.417969 C 99.332031 102.066406 98.980469 101.71875 98.597656 101.566406 C 98.039062 101.335938 97.679688 100.960938 97.398438 100.4375 C 96.980469 100.507812 96.734375 101.066406 96.210938 100.785156 C 95.769531 100.542969 95.140625 100.613281 94.941406 99.949219 C 94.652344 100.007812 94.382812 100.066406 94.058594 100.132812 C 93.835938 99.597656 93.40625 99.484375 92.859375 99.550781 C 92.3125 99.632812 91.765625 99.667969 91.160156 99.738281 C 91.089844 99.039062 91.183594 98.375 90.695312 97.828125 C 90.554688 97.675781 90.636719 97.269531 90.707031 97.011719 C 90.917969 96.199219 90.730469 95.40625 90.625 94.542969 C 90.335938 94.519531 90.054688 94.507812 89.789062 94.484375 C 89.601562 94.472656 89.402344 94.484375 89.230469 94.429688 C 88.378906 94.101562 88.378906 94.101562 87.589844 94.171875 C 87.449219 94.578125 87.308594 95.011719 87.132812 95.511719 C 86.496094 95.546875 85.84375 95.582031 85.121094 95.628906 C 84.691406 94.625 84.261719 93.636719 83.792969 92.585938 C 82.28125 92.585938 80.792969 92.585938 79.289062 92.597656 C 79.152344 92.597656 79.023438 92.726562 78.882812 92.796875 Z M 78.976562 92.878906 " fill-opacity="1" fill-rule="nonzero"/><path fill="#01943e" d="M 80.523438 53.792969 C 80.023438 53.175781 79.324219 52.953125 78.570312 52.839844 C 78.171875 52.78125 77.753906 52.722656 77.542969 52.289062 C 77.21875 51.625 76.671875 51.347656 75.949219 51.347656 C 75.867188 51.347656 75.777344 51.289062 75.8125 51.300781 C 75.449219 50.589844 75.136719 49.960938 74.785156 49.261719 C 75.507812 48.597656 75.066406 47.621094 75.183594 46.722656 C 75.308594 45.78125 75.007812 44.941406 74.519531 44.113281 C 75.367188 43.613281 75.984375 43.03125 75.554688 41.984375 C 75.824219 41.796875 76.03125 41.609375 76.277344 41.484375 C 76.90625 41.144531 77.453125 40.761719 77.300781 39.839844 C 78.871094 39.980469 80.304688 40.410156 81.804688 40.691406 C 81.863281 40.902344 81.933594 41.097656 81.980469 41.308594 C 82.035156 41.621094 82.234375 41.785156 82.515625 41.890625 C 83.816406 42.402344 85.121094 42.9375 86.4375 43.429688 C 87.4375 43.800781 88.226562 43.21875 88.25 42.136719 C 88.261719 41.726562 88.25 41.332031 88.25 40.902344 C 88.671875 40.691406 89.042969 40.539062 89.390625 40.339844 C 90.21875 39.863281 91.03125 40.292969 91.859375 40.328125 C 91.953125 40.328125 92.035156 40.679688 92.160156 40.945312 C 92.90625 41.085938 93.722656 41.25 94.570312 41.414062 C 94.070312 42.613281 93.976562 43.753906 94.417969 44.929688 C 94.488281 45.128906 94.5 45.359375 94.5 45.570312 C 94.5 49.355469 94.5 53.140625 94.5 56.925781 C 94.5 57.042969 94.476562 57.160156 94.464844 57.277344 C 94.011719 57.566406 93.246094 57.042969 93.082031 57.914062 C 90.40625 56.578125 87.75 55.25 85.097656 53.921875 C 84.375 53.558594 83.65625 52.988281 82.910156 52.953125 C 82.199219 52.917969 81.464844 53.46875 80.746094 53.757812 C 80.699219 53.78125 80.675781 53.769531 80.523438 53.792969 Z M 80.523438 53.792969 " fill-opacity="1" fill-rule="nonzero"/><g clip-path="url(#ed338e6ed8)"><path fill="#f9a202" d="M 88.472656 119.011719 C 89.195312 119.792969 88.925781 120.480469 88.695312 121.132812 C 89.960938 122.101562 91.136719 121.527344 92.207031 119.433594 C 93.164062 119.585938 94.046875 120.410156 95.1875 119.851562 C 95.222656 119.792969 95.328125 119.664062 95.375 119.527344 C 95.558594 118.886719 95.875 118.40625 96.597656 118.292969 C 96.898438 118.246094 97.085938 118.011719 97.085938 117.6875 C 97.074219 117.058594 97.574219 116.777344 97.957031 116.429688 C 98.339844 116.078125 98.644531 115.648438 99.296875 115.707031 C 99.550781 115.730469 99.84375 115.390625 100.214844 115.160156 C 100.820312 115.273438 101.542969 115.414062 102.308594 115.554688 C 102.683594 116.953125 103.472656 118.257812 103.089844 119.78125 C 102.832031 119.816406 102.507812 119.769531 102.355469 119.910156 C 102.066406 120.179688 101.808594 120.527344 101.679688 120.890625 C 101.542969 121.273438 102.207031 122.125 102.683594 122.203125 C 102.878906 122.238281 103.160156 122.113281 103.3125 121.960938 C 103.578125 121.703125 103.824219 121.507812 104.242188 121.75 C 104.113281 122.308594 104.007812 122.890625 103.835938 123.449219 C 103.765625 123.660156 103.554688 123.847656 103.390625 124.023438 C 103.054688 124.382812 102.683594 124.707031 102.355469 125.082031 C 102.148438 125.3125 101.960938 125.570312 101.796875 125.839844 C 100.785156 127.5625 99.261719 128.832031 97.816406 130.160156 C 97.539062 130.414062 97.132812 130.578125 96.757812 130.71875 C 95.488281 131.171875 94.210938 131.570312 92.835938 131.242188 C 92.558594 131.171875 92.21875 131.253906 91.917969 131.3125 C 91.183594 131.464844 90.4375 131.582031 89.730469 131.8125 C 88.519531 132.222656 87.402344 132.035156 86.34375 131.429688 C 86.15625 130.835938 85.96875 130.265625 85.773438 129.636719 C 86.414062 129.078125 86.4375 128.539062 85.867188 127.820312 C 85.621094 127.503906 85.410156 127.15625 85.25 126.78125 C 84.828125 125.839844 84.445312 124.894531 84.027344 123.871094 C 84.179688 123.707031 84.375 123.496094 84.585938 123.277344 C 84.808594 123.566406 84.933594 123.941406 85.191406 124.054688 C 85.527344 124.21875 85.96875 124.265625 86.355469 124.242188 C 86.832031 124.207031 87.308594 124.371094 87.785156 124.035156 C 88.203125 123.730469 88.460938 123.460938 88.4375 122.914062 C 88.390625 121.914062 88.425781 120.910156 88.425781 119.910156 C 88.414062 119.652344 88.449219 119.410156 88.472656 119.011719 Z M 97.097656 125 C 97.375 126.316406 97.304688 126.410156 98.445312 126.582031 C 98.820312 126.316406 99.15625 126.046875 99.515625 125.851562 C 100.003906 125.570312 100.308594 125.1875 100.390625 124.59375 C 99.902344 124.265625 99.414062 123.941406 98.863281 123.566406 C 98.25 124.066406 97.65625 124.546875 97.097656 125 Z M 97.097656 125 " fill-opacity="1" fill-rule="nonzero"/></g><path fill="#f9a202" d="M 93.152344 58.347656 C 93.152344 59.988281 93.152344 61.574219 93.152344 63.226562 C 92.730469 63.261719 92.335938 63.296875 91.847656 63.34375 C 91.589844 64.054688 91.324219 64.777344 91.078125 65.507812 C 90.847656 66.21875 90.625 66.929688 90.382812 67.710938 C 90.636719 67.804688 90.859375 67.886719 91.007812 67.933594 C 91.277344 68.492188 91.523438 69.015625 91.789062 69.597656 C 91.683594 69.632812 91.558594 69.703125 91.441406 69.703125 C 90.835938 69.703125 90.359375 70.039062 90.253906 70.527344 C 90.160156 70.972656 89.902344 71.144531 89.648438 71.402344 C 89.066406 71.984375 88.402344 72.3125 87.566406 72.242188 C 87.296875 72.21875 87.019531 72.3125 86.667969 72.347656 C 86.667969 72.542969 86.667969 72.71875 86.667969 72.894531 C 86.667969 73.347656 86.449219 73.652344 86.027344 73.800781 C 85.679688 73.929688 85.320312 74.023438 84.957031 74.152344 C 84.503906 74.3125 84.050781 74.511719 83.722656 73.953125 C 83.351562 74.128906 83.050781 74.269531 82.722656 74.417969 C 82.410156 73.90625 82.152344 73.382812 81.792969 72.929688 C 81.457031 72.496094 81.023438 72.136719 80.605469 71.71875 C 81.269531 71.191406 82.035156 71.601562 82.640625 71.238281 C 82.617188 71.125 82.628906 71.019531 82.582031 70.960938 C 82.128906 70.425781 82.015625 69.808594 82.082031 69.121094 C 82.152344 68.386719 81.886719 67.769531 81.398438 67.246094 C 81.28125 67.117188 81.117188 67.011719 80.953125 66.941406 C 80.070312 66.582031 79.757812 65.695312 80.292969 64.925781 C 80.90625 64.03125 81.582031 63.167969 82.199219 62.261719 C 82.398438 61.957031 82.582031 61.609375 82.628906 61.246094 C 82.816406 60.011719 82.957031 58.765625 83.097656 57.53125 C 83.121094 57.296875 83.132812 56.984375 83.003906 56.832031 C 82.257812 55.925781 82.222656 54.816406 82.003906 53.664062 C 82.304688 53.523438 82.640625 53.375 82.96875 53.222656 C 86.367188 54.933594 89.753906 56.648438 93.152344 58.347656 Z M 93.152344 58.347656 " fill-opacity="1" fill-rule="nonzero"/><path fill="#01943e" d="M 55.792969 68.652344 C 55.398438 69.351562 55.621094 70.203125 55.0625 70.867188 C 54.863281 70.726562 54.675781 70.597656 54.46875 70.460938 C 53.863281 70.632812 53.339844 71.144531 52.453125 70.867188 C 52.011719 70.003906 51.511719 69.015625 50.988281 67.980469 C 50 68.539062 49.03125 68.734375 48.207031 68.246094 C 47.878906 67.59375 47.613281 67.082031 47.285156 66.429688 C 47.25 66.171875 47.183594 65.730469 47.089844 65.148438 C 47.238281 64.902344 47.460938 64.53125 47.730469 64.078125 C 48.347656 64.960938 49.101562 64.589844 49.789062 64.355469 C 50.394531 64.148438 50.988281 64.078125 51.617188 64.078125 C 52.894531 64.089844 54.164062 64.078125 55.480469 64.078125 C 55.632812 63.632812 55.757812 63.261719 55.910156 62.832031 C 55.351562 62.503906 55.304688 61.96875 55.234375 61.398438 C 54.980469 59.105469 54.6875 56.808594 54.410156 54.515625 C 54.28125 53.46875 54.175781 52.417969 54.046875 51.324219 C 55.0625 51.21875 55.910156 51.242188 56.761719 51.824219 C 58.878906 53.269531 61.054688 54.609375 63.207031 55.984375 C 63.464844 56.144531 63.71875 56.285156 63.777344 56.667969 C 63.8125 56.855469 64.070312 57.066406 64.265625 57.160156 C 64.871094 57.460938 65.511719 57.71875 66.152344 57.996094 C 66.175781 58.371094 66.210938 58.742188 66.246094 59.207031 C 66.722656 59.164062 67.140625 59.128906 67.664062 59.082031 C 67.628906 60.699219 68.035156 62.375 66.628906 63.867188 C 66.164062 63.890625 65.546875 63.902344 64.929688 63.9375 C 64.648438 63.949219 64.300781 63.925781 64.125 64.078125 C 63.648438 64.472656 63.171875 64.449219 62.636719 64.332031 C 61.996094 64.195312 61.425781 64.34375 60.855469 64.683594 C 59.785156 65.324219 58.738281 65.976562 57.84375 66.894531 C 57.667969 66.847656 57.503906 66.800781 57.273438 66.734375 C 57.226562 66.800781 57.167969 66.871094 57.121094 66.941406 C 57.039062 67.105469 56.945312 67.28125 56.886719 67.453125 C 56.714844 68.070312 56.410156 68.550781 55.792969 68.652344 Z M 55.792969 68.652344 " fill-opacity="1" fill-rule="nonzero"/><path fill="#9b0f24" d="M 90.835938 100.15625 C 91.566406 100.101562 92.21875 100.042969 92.90625 99.984375 C 93.117188 100.683594 92.976562 101.390625 93 102.195312 C 92.242188 102.195312 91.523438 102.195312 90.742188 102.195312 C 90.683594 102.5 90.613281 102.707031 90.613281 102.90625 C 90.601562 104 90.613281 105.097656 90.601562 106.191406 C 90.601562 106.585938 90.683594 106.914062 90.953125 107.214844 C 91.335938 107.660156 91.671875 108.148438 92.09375 108.671875 C 90.3125 109.160156 88.625 109.265625 86.9375 108.589844 C 86.460938 108.390625 85.914062 108.308594 85.398438 108.300781 C 84.027344 108.265625 82.652344 108.289062 81.28125 108.289062 C 80.90625 108.289062 80.570312 108.253906 80.222656 108.019531 C 79.964844 107.84375 79.441406 107.796875 79.1875 107.949219 C 78.765625 108.195312 78.429688 108.148438 78.011719 107.996094 C 77.929688 107.226562 77.871094 106.457031 78.125 105.691406 C 78.230469 105.363281 78.324219 105.027344 78.382812 104.6875 C 78.582031 103.546875 79.128906 102.582031 79.953125 101.789062 C 80.28125 101.484375 80.347656 101.160156 80.316406 100.707031 C 80.234375 99.738281 80.082031 98.785156 79.675781 97.898438 C 79.429688 97.363281 79.40625 96.886719 79.859375 96.453125 C 79.464844 95.464844 79.082031 94.519531 78.652344 93.460938 C 78.953125 93.296875 79.230469 93.019531 79.523438 93.007812 C 80.898438 92.960938 82.257812 92.984375 83.65625 92.984375 C 84.097656 94.007812 84.515625 94.988281 84.910156 95.917969 C 85.773438 95.917969 86.574219 95.917969 87.449219 95.917969 C 87.613281 95.441406 87.75 95.011719 87.9375 94.460938 C 88.71875 94.625 89.484375 94.789062 90.335938 94.964844 C 90.554688 95.707031 90.496094 96.5 90.382812 97.304688 C 90.324219 97.6875 90.335938 98.015625 90.601562 98.351562 C 90.753906 98.539062 90.765625 98.863281 90.800781 99.132812 C 90.824219 99.472656 90.824219 99.773438 90.835938 100.15625 Z M 90.835938 100.15625 " fill-opacity="1" fill-rule="nonzero"/><path fill="#01943e" d="M 62.996094 64.878906 C 63.300781 64.835938 63.566406 64.878906 63.707031 64.765625 C 64.40625 64.171875 65.230469 64.273438 66.035156 64.296875 C 66.710938 64.308594 67.09375 64.089844 67.433594 63.484375 C 67.910156 62.632812 68.152344 61.78125 68.070312 60.816406 C 68.023438 60.257812 68.058594 59.699219 68.058594 59.082031 C 68.316406 59.011719 68.539062 58.894531 68.769531 58.894531 C 69.398438 58.882812 69.910156 58.648438 70.351562 58.207031 C 71.96875 56.625 73.9375 55.503906 75.8125 54.28125 C 76.066406 54.109375 76.335938 53.945312 76.589844 53.769531 C 77.824219 52.976562 77.824219 52.964844 79.242188 53.375 C 79.5 53.445312 79.789062 53.558594 79.964844 53.757812 C 80.347656 54.175781 80.734375 54.222656 81.210938 53.945312 C 81.316406 53.886719 81.433594 53.851562 81.59375 53.78125 C 81.664062 54.050781 81.722656 54.257812 81.757812 54.457031 C 81.910156 55.285156 82.015625 56.109375 82.574219 56.808594 C 82.722656 56.996094 82.734375 57.332031 82.699219 57.601562 C 82.574219 58.8125 82.433594 60.023438 82.257812 61.222656 C 82.210938 61.550781 82.035156 61.863281 81.851562 62.144531 C 81.363281 62.867188 80.839844 63.566406 80.328125 64.273438 C 80.011719 64.730469 79.582031 65.125 79.652344 65.765625 C 79.664062 65.882812 79.535156 66.070312 79.417969 66.125 C 78.871094 66.40625 78.371094 66.8125 77.683594 66.734375 C 77.195312 66.6875 76.683594 66.722656 76.183594 66.722656 C 75.695312 66.722656 75.171875 66.617188 74.832031 67.140625 C 74.773438 67.234375 74.554688 67.269531 74.414062 67.257812 C 74.226562 67.246094 74.03125 67.210938 73.878906 67.117188 C 73.074219 66.59375 72.273438 66.242188 71.527344 67.011719 C 71.34375 66.917969 71.273438 66.894531 71.226562 66.859375 C 70.957031 66.570312 70.714844 66.070312 70.410156 66.023438 C 69.710938 65.929688 68.980469 66.023438 68.269531 66.101562 C 68.105469 66.125 67.921875 66.359375 67.828125 66.535156 C 67.488281 67.152344 67.199219 67.792969 66.882812 68.433594 C 66.164062 67.980469 66.164062 67.980469 65.535156 68.164062 C 65.417969 67.328125 64.183594 67.6875 64.058594 66.753906 C 63.976562 66.046875 62.894531 65.835938 62.996094 64.878906 Z M 62.996094 64.878906 " fill-opacity="1" fill-rule="nonzero"/><path fill="#f9a202" d="M 94.851562 54.703125 C 94.851562 54.339844 94.851562 54.039062 94.851562 53.734375 C 94.851562 51.113281 94.851562 48.480469 94.851562 45.863281 C 94.851562 45.617188 94.929688 45.316406 94.816406 45.117188 C 94.339844 44.265625 94.605469 43.359375 94.523438 42.484375 C 94.488281 42.078125 94.78125 41.855469 95.246094 41.855469 C 96.351562 41.855469 97.410156 42.089844 98.445312 42.4375 C 99.25 42.707031 99.960938 42.648438 100.785156 42.34375 C 101.785156 41.972656 102.867188 41.714844 103.960938 42.214844 C 104.253906 42.34375 104.625 42.34375 104.964844 42.355469 C 105.488281 42.378906 106.011719 42.355469 106.5 42.355469 C 107.246094 43.824219 107.394531 45.246094 106.546875 46.6875 C 106.171875 46.769531 105.894531 46.628906 105.671875 46.246094 C 105.265625 45.511719 104.835938 44.800781 104.40625 44.066406 C 103.960938 44.242188 103.960938 44.5 104.160156 44.871094 C 105.382812 47.15625 106.582031 49.4375 107.804688 51.71875 C 108.011719 52.117188 108.234375 52.476562 108.164062 52.941406 C 108.105469 53.292969 108.257812 53.523438 108.535156 53.722656 C 108.910156 53.992188 109.246094 54.304688 109.746094 54.714844 C 108.828125 54.714844 108.09375 54.714844 107.347656 54.714844 C 106.195312 54.714844 105.03125 54.726562 103.882812 54.703125 C 103.53125 54.691406 103.183594 54.574219 102.765625 54.492188 C 102.507812 54.550781 102.160156 54.703125 101.808594 54.714844 C 99.65625 54.738281 97.503906 54.726562 95.351562 54.726562 C 95.234375 54.738281 95.082031 54.714844 94.851562 54.703125 Z M 94.851562 54.703125 " fill-opacity="1" fill-rule="nonzero"/><path fill="#f9a202" d="M 108.476562 77.492188 C 107.816406 77.425781 107.59375 76.980469 107.335938 76.480469 C 107.058594 75.933594 106.6875 75.421875 106.347656 74.910156 C 106.082031 74.511719 105.765625 74.175781 105.21875 74.246094 C 105.265625 73.546875 105.265625 73.546875 106.324219 73.382812 C 106.453125 72.402344 106.582031 71.402344 106.71875 70.320312 C 107.234375 70.367188 107.5 70.097656 107.652344 69.632812 C 107.816406 69.167969 108.046875 68.722656 108.257812 68.269531 C 108.328125 68.128906 108.363281 67.910156 108.464844 67.863281 C 109.140625 67.59375 109.152344 66.976562 109.316406 66.417969 C 109.582031 65.507812 109.980469 65.382812 110.839844 65.929688 C 111.027344 65.648438 111.199219 65.371094 111.433594 65.019531 C 111.816406 65.507812 112.320312 65.453125 112.785156 65.335938 C 113.5625 65.148438 114.226562 65.441406 114.75 65.917969 C 115.4375 66.535156 116.007812 67.28125 116.648438 67.992188 C 116.207031 68.640625 115.484375 69.167969 115.9375 70.109375 C 116.285156 70.109375 116.648438 70.109375 117.054688 70.109375 C 117.042969 70.285156 116.960938 70.460938 117.019531 70.550781 C 117.695312 71.601562 118.382812 72.671875 119.660156 73.054688 C 120.882812 73.429688 122.117188 73.753906 123.351562 74.09375 C 123.375 74.105469 123.398438 74.128906 123.445312 74.175781 C 123.386719 74.269531 123.339844 74.382812 123.257812 74.476562 C 122.328125 75.527344 121.382812 76.574219 120.464844 77.632812 C 120.207031 77.925781 119.941406 78.144531 119.5 78.03125 C 118.789062 77.855469 118.160156 78.066406 117.589844 78.519531 C 117.390625 78.671875 117.171875 78.785156 116.949219 78.914062 C 116.390625 79.230469 115.820312 79.414062 115.191406 79.054688 C 114.796875 78.820312 114.414062 78.890625 114.074219 79.195312 C 113.984375 79.277344 113.890625 79.367188 113.785156 79.425781 C 113.414062 79.625 113.015625 79.996094 112.65625 79.972656 C 111.96875 79.929688 111.222656 79.871094 110.699219 79.242188 C 110.339844 78.796875 109.886719 78.507812 109.246094 78.554688 C 108.617188 78.613281 108.570312 78.074219 108.476562 77.492188 Z M 108.476562 77.492188 " fill-opacity="1" fill-rule="nonzero"/><g clip-path="url(#9798d7bf8a)"><path fill="#01943e" d="M 51.21875 49.808594 C 51.277344 49.34375 51.324219 48.972656 51.382812 48.46875 C 52.675781 49.167969 53.804688 50.019531 54.980469 50.871094 C 54.570312 50.90625 54.164062 50.929688 53.675781 50.964844 C 53.722656 51.523438 53.757812 52.035156 53.816406 52.546875 C 54.09375 54.898438 54.398438 57.265625 54.675781 59.617188 C 54.757812 60.328125 54.863281 61.039062 54.921875 61.757812 C 54.957031 62.25 55.015625 62.691406 55.527344 62.925781 C 55.433594 63.203125 55.351562 63.4375 55.257812 63.714844 C 53.011719 63.878906 50.695312 63.402344 48.566406 64.378906 C 48.253906 64.089844 48.007812 63.855469 47.707031 63.578125 C 47.402344 64.019531 47.125 64.425781 46.808594 64.890625 C 46.613281 64.683594 46.449219 64.519531 46.285156 64.34375 C 45.808594 63.820312 45.460938 63.15625 44.65625 63.027344 C 44.550781 63.015625 44.433594 62.902344 44.367188 62.808594 C 44.050781 62.386719 43.621094 62.410156 43.179688 62.457031 C 42.667969 62.515625 42.144531 62.5625 41.675781 62.609375 C 41.621094 62.480469 41.585938 62.457031 41.597656 62.433594 C 41.851562 61.316406 41.828125 60.210938 41.421875 59.128906 C 41.769531 58.253906 41.339844 57.589844 40.851562 56.9375 C 40.757812 56.820312 40.746094 56.648438 40.652344 56.390625 C 42.351562 56.390625 43.992188 56.390625 45.714844 56.390625 C 45.714844 55.515625 45.714844 54.75 45.714844 53.957031 C 46.167969 53.757812 46.554688 53.582031 47.007812 53.386719 C 47.007812 52.300781 47.007812 51.21875 47.007812 50.03125 C 48.425781 49.960938 49.777344 49.890625 51.21875 49.808594 Z M 51.21875 49.808594 " fill-opacity="1" fill-rule="nonzero"/></g><path fill="#9b0f24" d="M 101.914062 88.5 C 102.160156 87.8125 102.308594 87.183594 101.855469 86.425781 C 103.242188 86.425781 104.519531 86.414062 105.789062 86.4375 C 106.046875 86.449219 106.324219 86.589844 106.558594 86.730469 C 107.710938 87.40625 108.851562 88.117188 110.003906 88.789062 C 110.316406 88.976562 110.539062 89.152344 110.574219 89.570312 C 110.585938 89.769531 110.816406 89.992188 110.992188 90.140625 C 111.515625 90.585938 112.0625 90.992188 112.667969 91.46875 C 111.910156 92.496094 112.179688 93.390625 112.761719 94.394531 C 113.074219 94.941406 113.027344 95.730469 113.027344 96.40625 C 113.027344 97.257812 113.320312 97.921875 113.9375 98.46875 C 114.027344 98.550781 114.085938 98.65625 114.167969 98.785156 C 113.378906 99.609375 112.515625 100.214844 111.316406 100.15625 C 111.085938 100.144531 110.792969 100.191406 110.621094 100.332031 C 110.074219 100.75 109.492188 100.554688 108.910156 100.496094 C 108.511719 100.449219 108.117188 100.355469 107.734375 100.355469 C 107.324219 100.355469 107.082031 100.25 107.011719 99.820312 C 106.953125 99.425781 106.859375 99.027344 106.765625 98.632812 C 106.582031 97.910156 106.347656 97.757812 105.589844 97.6875 C 105.207031 97.652344 104.824219 97.515625 104.441406 97.386719 C 104.265625 97.328125 104.113281 97.210938 103.9375 97.140625 C 102.753906 96.640625 101.832031 95.917969 101.402344 94.613281 C 101.238281 94.101562 100.621094 93.695312 100.574219 93.214844 C 100.53125 92.691406 100.484375 92.191406 100.308594 91.691406 C 100.25 91.527344 100.296875 91.328125 100.296875 91.121094 C 101.226562 90.839844 101.703125 90.128906 102.007812 89.304688 C 102.101562 89.082031 101.949219 88.777344 101.914062 88.5 Z M 101.914062 88.5 " fill-opacity="1" fill-rule="nonzero"/><path fill="#f9a202" d="M 73.449219 78.808594 C 72.355469 78.808594 71.296875 78.808594 70.144531 78.808594 C 70.050781 78.660156 69.875 78.4375 69.746094 78.203125 C 69.410156 77.597656 68.980469 77.085938 68.433594 76.644531 C 67.980469 76.28125 67.546875 76.109375 66.976562 76.222656 C 66.804688 76.257812 66.617188 76.222656 66.40625 76.222656 C 66.3125 75.351562 66.210938 74.523438 66.164062 73.683594 C 66.152344 73.394531 66.257812 73.078125 66.371094 72.800781 C 66.617188 72.195312 66.875 71.589844 67.152344 71.007812 C 67.421875 70.449219 67.453125 69.910156 67.339844 69.292969 C 67.140625 68.234375 67.710938 67.371094 68.292969 66.558594 C 68.375 66.441406 68.628906 66.429688 68.804688 66.417969 C 69.304688 66.382812 69.792969 66.359375 70.328125 66.335938 C 70.632812 66.699219 70.921875 67.058594 71.25 67.453125 C 71.386719 67.40625 71.539062 67.382812 71.667969 67.304688 C 72.308594 66.929688 72.878906 66.871094 73.554688 67.339844 C 74.089844 67.710938 74.75 67.933594 75.296875 67.234375 C 75.378906 67.140625 75.578125 67.117188 75.71875 67.09375 C 75.9375 67.070312 76.160156 67.082031 76.371094 67.082031 C 77.554688 67.105469 78.742188 67.199219 79.734375 66.300781 C 80.082031 66.789062 80.488281 67.140625 80.464844 67.746094 C 80.453125 67.898438 80.6875 68.070312 80.839844 68.210938 C 81.234375 68.574219 81.246094 68.910156 80.769531 69.144531 C 80.328125 69.351562 80.128906 69.691406 79.953125 70.109375 C 79.6875 70.773438 79.382812 71.425781 79.117188 72.089844 C 78.964844 72.460938 78.835938 72.824219 78.394531 73 C 78.207031 73.066406 78.082031 73.371094 77.988281 73.582031 C 77.648438 74.347656 77.347656 75.128906 76.984375 75.992188 C 76.707031 75.664062 76.496094 75.421875 76.289062 75.164062 C 75.253906 75.023438 74.867188 75.921875 74.238281 76.421875 C 73.484375 77.050781 73.855469 77.984375 73.449219 78.808594 Z M 73.449219 78.808594 " fill-opacity="1" fill-rule="nonzero"/><path fill="#9b0f24" d="M 89.414062 109.429688 C 89.355469 109.871094 89.277344 110.1875 89.277344 110.511719 C 89.265625 111.828125 89.265625 113.132812 89.265625 114.519531 C 88.890625 114.566406 88.53125 114.597656 88.089844 114.644531 C 88.078125 114.996094 88.042969 115.320312 88.042969 115.660156 C 88.042969 117.941406 88.042969 120.214844 88.042969 122.496094 C 88.042969 123.671875 87.878906 123.824219 86.714844 123.847656 C 86.527344 123.847656 86.34375 123.90625 86.15625 123.90625 C 85.667969 123.929688 85.238281 123.894531 85.0625 123.289062 C 85.003906 123.089844 84.75 122.949219 84.550781 122.753906 C 84.375 122.960938 84.261719 123.101562 84.132812 123.230469 C 84.003906 123.359375 83.851562 123.472656 83.710938 123.601562 C 82.886719 122.996094 82.421875 122.25 82.222656 121.226562 C 81.863281 119.421875 81.445312 117.640625 81.328125 115.789062 C 81.304688 115.472656 81.128906 115.136719 80.941406 114.855469 C 80.304688 113.9375 79.769531 112.96875 79.382812 111.898438 C 79.152344 111.234375 78.71875 110.628906 78.324219 110.035156 C 78.011719 109.558594 77.882812 109.089844 78.058594 108.484375 C 78.476562 108.449219 78.953125 108.636719 79.359375 108.277344 C 79.488281 108.160156 79.941406 108.21875 80.117188 108.355469 C 80.476562 108.648438 80.851562 108.660156 81.257812 108.660156 C 82.664062 108.660156 84.0625 108.648438 85.46875 108.660156 C 85.808594 108.660156 86.179688 108.636719 86.484375 108.777344 C 87.425781 109.207031 88.414062 109.429688 89.414062 109.429688 Z M 89.414062 109.429688 " fill-opacity="1" fill-rule="nonzero"/><path fill="#9b0f24" d="M 104.230469 119.851562 C 104.648438 121.027344 104.578125 121.179688 103.683594 121.179688 C 103.625 120.386719 103.554688 119.597656 103.519531 118.804688 C 103.496094 118.175781 103.402344 117.582031 103.148438 116.988281 C 102.9375 116.507812 102.84375 115.984375 102.695312 115.460938 C 103.507812 114.542969 104.289062 113.65625 104.707031 112.515625 C 104.859375 112.105469 104.917969 111.746094 104.765625 111.363281 C 104.589844 110.90625 104.578125 110.476562 104.730469 110 C 104.859375 109.625 104.882812 109.207031 104.882812 108.8125 C 104.882812 108.414062 104.777344 108.007812 104.71875 107.589844 C 104.066406 107.238281 103.4375 106.84375 102.765625 106.550781 C 102.449219 106.410156 102.042969 106.46875 101.625 106.433594 C 101.554688 106.132812 101.472656 105.773438 101.355469 105.292969 C 102.53125 104.898438 103.695312 104.515625 104.871094 104.117188 C 105.207031 104.535156 105.511719 104.921875 106.117188 104.828125 C 106.394531 104.792969 106.535156 105.0625 106.464844 105.351562 C 106.417969 105.5625 106.3125 105.761719 106.253906 105.96875 C 106.207031 106.144531 106.140625 106.367188 106.195312 106.492188 C 106.511719 107.097656 106.859375 107.691406 107.210938 108.277344 C 107.257812 108.34375 107.417969 108.332031 107.617188 108.378906 C 107.617188 108.136719 107.582031 107.960938 107.628906 107.796875 C 107.710938 107.519531 107.757812 107.085938 107.953125 106.996094 C 108.363281 106.796875 108.351562 106.480469 108.40625 106.15625 C 108.652344 104.863281 108.140625 103.863281 107.210938 103.011719 C 106.710938 102.558594 106.742188 101.894531 106.71875 101.3125 C 106.710938 101.019531 106.964844 100.660156 107.417969 100.707031 C 108.058594 100.773438 108.710938 100.796875 109.351562 100.902344 C 109.828125 100.972656 110.269531 100.984375 110.675781 100.671875 C 110.839844 100.554688 111.074219 100.484375 111.28125 100.484375 C 112.191406 100.507812 113.003906 100.273438 113.679688 99.644531 C 113.785156 99.539062 113.9375 99.472656 114.121094 99.355469 C 114.15625 99.539062 114.191406 99.644531 114.191406 99.75 C 114.214844 101.402344 114.238281 103.058594 114.25 104.710938 C 114.261719 105.621094 113.773438 106.378906 113.414062 107.15625 C 113.34375 107.320312 113.0625 107.402344 112.867188 107.484375 C 111.386719 108.042969 110.105469 108.90625 108.988281 110.023438 C 108.546875 110.464844 108.058594 110.859375 107.558594 111.222656 C 106.882812 111.6875 106.777344 112.304688 106.964844 113.027344 C 107.199219 113.9375 107.523438 114.820312 107.6875 115.742188 C 107.792969 116.335938 107.710938 116.976562 107.640625 117.582031 C 107.617188 117.753906 107.40625 117.953125 107.246094 118.058594 C 106.664062 118.417969 106.070312 118.757812 105.476562 119.09375 C 105.042969 119.363281 104.636719 119.621094 104.230469 119.851562 Z M 104.230469 119.851562 " fill-opacity="1" fill-rule="nonzero"/><path fill="#9b0f24" d="M 90.976562 102.582031 C 91.8125 102.582031 92.523438 102.582031 93.324219 102.582031 C 93.324219 101.695312 93.324219 100.867188 93.324219 100.042969 C 93.699219 100.367188 93.964844 100.707031 94.488281 100.484375 C 94.570312 100.449219 94.734375 100.625 94.875 100.671875 C 95.363281 100.855469 95.851562 101.101562 96.363281 101.207031 C 96.652344 101.265625 96.992188 101.125 97.222656 101.089844 C 97.621094 101.347656 97.992188 101.601562 98.375 101.824219 C 98.910156 102.148438 99.421875 102.5 99.457031 103.175781 C 99.960938 103.175781 100.355469 103.175781 100.796875 103.175781 C 100.796875 102.582031 100.796875 101.976562 100.796875 101.324219 C 100.179688 101.265625 99.539062 101.335938 99.109375 100.660156 C 99.503906 99.75 99.367188 98.738281 99.179688 97.722656 C 99.144531 97.515625 99.273438 97.246094 99.378906 97.035156 C 99.65625 96.5 100.15625 96.382812 100.714844 96.347656 C 101.191406 96.316406 101.589844 96.082031 102.101562 96.511719 C 102.648438 96.988281 103.390625 97.257812 104.066406 97.574219 C 104.71875 97.863281 105.113281 98.316406 105.230469 99.085938 C 104.695312 99.480469 104.753906 100.066406 104.90625 100.660156 C 105.03125 101.171875 105.042969 101.578125 104.613281 102.078125 C 104.253906 102.488281 103.9375 103.234375 104.601562 103.839844 C 103.378906 104.246094 102.226562 104.628906 101.054688 105.027344 C 101.054688 105.328125 101.054688 105.597656 101.054688 105.875 C 100.960938 105.921875 100.878906 105.957031 100.796875 105.992188 C 100.367188 106.15625 99.878906 106.238281 99.503906 106.480469 C 99.203125 106.679688 99.0625 107.109375 98.796875 107.367188 C 98.527344 107.625 98.074219 107.738281 97.910156 108.03125 C 97.292969 109.148438 96.339844 109.183594 95.28125 108.996094 C 95.152344 108.972656 94.964844 109.007812 94.921875 108.9375 C 94.453125 108.253906 93.792969 108.589844 93.222656 108.613281 C 92.707031 108.636719 92.40625 108.449219 92.046875 108.078125 C 91.183594 107.179688 90.835938 106.179688 90.976562 104.945312 C 91.042969 104.210938 90.976562 103.464844 90.976562 102.582031 Z M 90.976562 102.582031 " fill-opacity="1" fill-rule="nonzero"/><path fill="#01943e" d="M 122.292969 118.746094 C 121.476562 119.082031 120.824219 119.363281 120.058594 119.6875 C 119.789062 119.550781 119.40625 119.339844 119.011719 119.164062 C 118.300781 118.863281 118.042969 118.28125 118.113281 117.582031 C 118.183594 116.941406 118.101562 116.394531 117.753906 115.8125 C 117.335938 115.101562 117.695312 114.367188 118.03125 113.703125 C 118.183594 113.398438 118.394531 113.109375 118.648438 112.875 C 119.125 112.421875 119.089844 111.898438 119 111.328125 C 118.871094 110.558594 118.71875 109.789062 118.671875 109.019531 C 118.589844 107.902344 119.160156 106.984375 120.207031 106.667969 C 122.304688 106.039062 123.558594 104.480469 124.699219 102.777344 C 124.96875 102.371094 125.097656 101.871094 125.316406 101.347656 C 126.015625 102.289062 126.445312 103.222656 126.445312 104.328125 C 126.445312 104.6875 126.503906 105.085938 126.65625 105.398438 C 126.890625 105.863281 126.808594 106.226562 126.492188 106.597656 C 126.261719 106.433594 126.050781 106.285156 125.773438 106.097656 C 125.726562 106.296875 125.644531 106.421875 125.679688 106.515625 C 126.0625 107.601562 125.703125 108.648438 125.398438 109.625 C 124.398438 112.710938 123.316406 115.765625 122.292969 118.746094 Z M 122.292969 118.746094 " fill-opacity="1" fill-rule="nonzero"/><g clip-path="url(#881d07f8ed)"><path fill="#f9a202" d="M 124.175781 74.011719 C 123.6875 73.859375 123.339844 73.753906 122.988281 73.660156 C 122.152344 73.417969 121.324219 73.113281 120.464844 72.964844 C 119 72.707031 118.171875 71.683594 117.359375 70.527344 C 117.554688 70.25 117.742188 69.980469 117.949219 69.691406 C 118.148438 69.796875 118.300781 69.84375 118.40625 69.945312 C 119.125 70.597656 119.882812 70.972656 120.824219 70.367188 C 120.894531 70.320312 121.023438 70.285156 121.09375 70.320312 C 121.894531 70.632812 122.5 70.179688 123.1875 69.898438 C 123.746094 69.667969 124.410156 69.65625 125.027344 69.5625 C 125.816406 69.445312 126.644531 69.515625 127.308594 68.886719 C 127.4375 68.757812 127.75 68.839844 128.039062 68.816406 C 128.074219 69.785156 128.121094 70.621094 127.703125 71.460938 C 126.820312 73.21875 126.0625 75.035156 125.15625 76.773438 C 124.699219 77.644531 124.015625 78.402344 123.433594 79.21875 C 123.304688 79.390625 123.152344 79.554688 123.035156 79.742188 C 122.328125 80.835938 121.40625 81.675781 120.265625 82.328125 C 119.683594 82.652344 119.160156 83.140625 118.695312 83.632812 C 117.707031 84.667969 116.777344 85.761719 115.820312 86.847656 C 115.203125 86.296875 115.078125 85.632812 115.101562 84.878906 C 115.144531 83.851562 115.125 82.816406 115.113281 81.78125 C 115.089844 80.671875 115.714844 80.007812 116.589844 79.507812 C 116.996094 79.277344 117.449219 79.113281 117.8125 78.832031 C 118.347656 78.414062 118.929688 78.285156 119.570312 78.4375 C 119.988281 78.542969 120.277344 78.414062 120.546875 78.097656 C 121.699219 76.761719 122.875 75.457031 124.175781 74.011719 Z M 124.175781 74.011719 " fill-opacity="1" fill-rule="nonzero"/></g><path fill="#9b0f24" d="M 91.976562 118.945312 C 91.5 120.339844 90.847656 121.378906 89.160156 121.144531 C 89.195312 120.898438 89.183594 120.691406 89.253906 120.503906 C 89.472656 119.828125 89.253906 119.257812 88.796875 118.816406 C 88.484375 118.511719 88.402344 118.210938 88.414062 117.824219 C 88.425781 116.894531 88.414062 115.960938 88.414062 114.996094 C 88.808594 114.960938 89.148438 114.9375 89.519531 114.902344 C 89.71875 114.085938 89.589844 113.285156 89.613281 112.480469 C 89.636719 111.675781 89.613281 110.859375 89.613281 110 C 90.507812 109.835938 91.359375 109.671875 92.253906 109.511719 C 92.417969 109.707031 92.59375 109.917969 92.789062 110.152344 C 93.371094 109.835938 93.804688 109.21875 94.605469 109.382812 C 94.734375 109.566406 94.910156 109.777344 95.035156 110.023438 C 95.480469 110.835938 96.070312 111.464844 96.828125 112.003906 C 97.304688 112.351562 97.828125 112.78125 97.886719 113.492188 C 97.921875 113.867188 98.226562 113.96875 98.503906 114.121094 C 98.910156 114.332031 99.296875 114.589844 99.632812 114.785156 C 99.644531 115.285156 99.421875 115.402344 99.097656 115.367188 C 98.644531 115.320312 98.328125 115.53125 98.039062 115.847656 C 97.886719 116.007812 97.734375 116.171875 97.5625 116.300781 C 97.027344 116.683594 96.675781 117.171875 96.675781 117.8125 C 96.246094 118.023438 95.78125 118.140625 95.5 118.417969 C 95.222656 118.710938 95.117188 119.175781 94.941406 119.5625 C 94.28125 119.6875 93.6875 119.699219 93.105469 119.339844 C 92.824219 119.152344 92.429688 119.09375 91.976562 118.945312 Z M 91.976562 118.945312 " fill-opacity="1" fill-rule="nonzero"/><path fill="#f9a202" d="M 97.339844 77.585938 C 96.792969 77.527344 96.257812 77.445312 95.710938 77.425781 C 95.457031 77.414062 95.152344 77.4375 94.929688 77.550781 C 93.988281 78.074219 93.011719 78.378906 91.894531 78.191406 C 91.648438 78.484375 91.394531 78.785156 91.101562 79.125 C 89.902344 78.820312 88.613281 78.773438 87.785156 77.5625 C 87.097656 78.296875 85.992188 78.519531 86.144531 79.824219 C 85.855469 79.824219 85.621094 79.835938 85.390625 79.824219 C 85.144531 79.800781 84.898438 79.71875 84.65625 79.730469 C 83.898438 79.777344 83.757812 79.929688 83.632812 80.671875 C 83.609375 80.824219 83.597656 80.976562 83.574219 81.09375 C 83.1875 80.742188 82.804688 80.382812 82.421875 80.03125 C 82.351562 79.972656 82.257812 79.917969 82.222656 79.835938 C 81.945312 79.195312 81.628906 78.554688 81.433594 77.890625 C 81.234375 77.214844 81.304688 76.597656 81.816406 75.980469 C 82.699219 74.898438 82.652344 74.863281 83.5625 74.417969 C 83.96875 74.816406 84.457031 74.769531 84.96875 74.535156 C 85.25 74.40625 85.5625 74.335938 85.855469 74.246094 C 86.703125 73.953125 86.949219 73.660156 87.085938 72.707031 C 87.261719 72.683594 87.449219 72.601562 87.625 72.625 C 88.796875 72.777344 89.507812 71.9375 90.289062 71.320312 C 90.429688 71.203125 90.417969 70.914062 90.53125 70.75 C 90.707031 70.515625 90.917969 70.25 91.171875 70.144531 C 91.5 70.003906 91.730469 70.25 91.941406 70.515625 C 92.382812 71.078125 92.742188 71.625 92.476562 72.382812 C 92.417969 72.542969 92.464844 72.742188 92.464844 72.941406 C 92.582031 73.023438 92.675781 73.113281 92.789062 73.148438 C 93.964844 73.558594 94.746094 74.429688 95.46875 75.386719 C 96.050781 76.15625 96.6875 76.875 97.304688 77.621094 Z M 97.339844 77.585938 " fill-opacity="1" fill-rule="nonzero"/><path fill="#9b0f24" d="M 112.785156 91.109375 C 112.328125 90.757812 111.921875 90.46875 111.539062 90.152344 C 111.210938 89.886719 110.78125 89.722656 110.851562 89.140625 C 110.875 88.988281 110.574219 88.757812 110.375 88.640625 C 109.152344 87.882812 107.929688 87.148438 106.6875 86.425781 C 106.3125 86.21875 106.171875 85.972656 106.160156 85.542969 C 106.140625 84.832031 106.242188 84.179688 106.71875 83.621094 C 106.882812 83.433594 107 83.210938 107.140625 82.992188 C 107.546875 82.363281 107.535156 81.699219 107.222656 81.046875 C 106.917969 80.429688 106.582031 79.835938 106.21875 79.148438 C 106.441406 79.007812 106.628906 78.773438 106.824219 78.773438 C 107.476562 78.75 108.117188 78.808594 108.769531 78.832031 C 108.921875 78.84375 109.082031 78.914062 109.222656 78.902344 C 109.78125 78.855469 110.210938 79.089844 110.527344 79.496094 C 111.121094 80.265625 112.015625 80.183594 112.820312 80.382812 C 112.933594 80.417969 113.109375 80.300781 113.238281 80.21875 C 113.445312 80.089844 113.667969 79.953125 113.84375 79.789062 C 114.390625 79.277344 114.960938 79.148438 115.613281 79.613281 C 115.589844 79.683594 115.589844 79.800781 115.53125 79.859375 C 114.808594 80.546875 114.691406 81.394531 114.75 82.339844 C 114.808594 83.234375 114.785156 84.15625 114.75 85.050781 C 114.726562 85.667969 114.832031 86.21875 115.273438 86.683594 C 115.378906 86.789062 115.425781 86.949219 115.53125 87.148438 C 114.121094 88.105469 113.644531 89.6875 112.785156 91.109375 Z M 112.785156 91.109375 " fill-opacity="1" fill-rule="nonzero"/><path fill="#01943e" d="M 57.132812 41.878906 C 57.191406 42.707031 57.167969 42.671875 56.503906 43.242188 C 55.664062 43.953125 54.746094 44.382812 53.652344 44.476562 C 52.59375 44.570312 51.90625 45.371094 51.09375 45.933594 C 50.976562 46.011719 50.953125 46.257812 50.929688 46.433594 C 50.90625 46.675781 50.917969 46.921875 50.917969 47.246094 C 49.253906 47.246094 47.613281 47.246094 46.167969 47.246094 C 46.613281 47.003906 47.21875 46.628906 47.84375 46.304688 C 48.789062 45.828125 49.125 44.882812 49.613281 44.066406 C 49.730469 43.859375 49.648438 43.53125 49.636719 43.253906 C 49.589844 41.9375 49.894531 40.738281 51.171875 40.132812 C 52.59375 39.457031 53.628906 38.535156 54.140625 37 C 54.410156 36.195312 54.863281 36.113281 55.574219 36.648438 C 56.027344 36.988281 56.492188 37.128906 57.050781 37.058594 C 57.296875 37.023438 57.550781 37.035156 57.796875 37.070312 C 59.214844 37.253906 59.238281 37.289062 59.632812 38.6875 C 59.808594 39.304688 59.878906 39.96875 60.425781 40.445312 C 60.714844 40.703125 60.554688 41.039062 60.167969 41.109375 C 59.984375 41.144531 59.796875 41.121094 59.609375 41.121094 C 58.996094 41.121094 58.367188 41.039062 57.890625 41.609375 C 57.75 41.808594 57.398438 41.796875 57.132812 41.878906 Z M 57.132812 41.878906 " fill-opacity="1" fill-rule="nonzero"/><path fill="#f9a202" d="M 81.546875 68.257812 C 81.605469 68.585938 81.710938 68.898438 81.710938 69.226562 C 81.722656 69.820312 81.652344 70.414062 82.222656 70.996094 C 81.792969 71.03125 81.5 71.089844 81.222656 71.078125 C 80.652344 71.054688 80.339844 71.308594 80.292969 71.914062 C 81.023438 72.753906 82.117188 73.359375 82.292969 74.792969 C 82.058594 75.117188 81.734375 75.570312 81.410156 76.027344 C 80.917969 76.691406 80.863281 77.855469 81.304688 78.566406 C 81.511719 78.902344 81.722656 79.21875 81.792969 79.648438 C 81.851562 79.960938 82.1875 80.265625 82.457031 80.5 C 82.957031 80.917969 83.210938 81.394531 82.980469 82.128906 C 81.722656 81.953125 80.453125 81.6875 79.175781 81.628906 C 77.882812 81.570312 76.578125 81.722656 75.320312 81.78125 C 75.253906 81.6875 75.171875 81.640625 75.183594 81.59375 C 75.296875 80.613281 74.960938 79.835938 74.191406 79.21875 C 74.066406 79.113281 73.9375 78.902344 73.949219 78.75 C 73.984375 78.226562 73.9375 77.609375 74.179688 77.191406 C 74.53125 76.597656 75.101562 76.109375 75.625 75.640625 C 75.878906 75.410156 76.171875 75.570312 76.40625 75.875 C 76.90625 76.527344 77.148438 76.480469 77.476562 75.746094 C 77.671875 75.292969 77.847656 74.828125 78.046875 74.359375 C 78.253906 73.859375 78.371094 73.300781 78.988281 73.042969 C 79.164062 72.976562 79.253906 72.648438 79.359375 72.425781 C 79.640625 71.796875 79.90625 71.167969 80.164062 70.527344 C 80.359375 70.027344 80.535156 69.550781 81.128906 69.363281 C 81.28125 69.316406 81.398438 69.050781 81.464844 68.863281 C 81.535156 68.664062 81.535156 68.433594 81.570312 68.222656 C 81.570312 68.234375 81.546875 68.257812 81.546875 68.257812 Z M 81.546875 68.257812 " fill-opacity="1" fill-rule="nonzero"/><path fill="#9b0f24" d="M 104.394531 107.808594 C 104.53125 108.660156 104.613281 109.453125 104.324219 110.253906 C 104.21875 110.546875 104.289062 110.941406 104.382812 111.257812 C 104.53125 111.769531 104.453125 112.199219 104.253906 112.691406 C 103.859375 113.679688 103.195312 114.4375 102.53125 115.125 C 100.867188 115.21875 99.597656 114.425781 98.292969 113.5625 C 98.25 112.722656 97.679688 112.105469 96.980469 111.6875 C 96.070312 111.128906 95.582031 110.300781 95.035156 109.347656 C 95.59375 109.394531 96.050781 109.417969 96.515625 109.476562 C 96.886719 109.523438 97.175781 109.417969 97.410156 109.113281 C 97.910156 108.472656 98.433594 107.855469 99.214844 107.53125 C 99.320312 107.484375 99.46875 107.390625 99.480469 107.296875 C 99.609375 106.296875 100.449219 106.515625 101.109375 106.296875 C 101.144531 106.808594 101.449219 106.960938 101.867188 106.855469 C 102.367188 106.726562 102.777344 106.914062 103.183594 107.167969 C 103.566406 107.402344 103.960938 107.589844 104.394531 107.808594 Z M 104.394531 107.808594 " fill-opacity="1" fill-rule="nonzero"/><path fill="#f9a202" d="M 53.28125 77.226562 C 52.78125 76.808594 52.324219 76.433594 51.976562 76.144531 C 51.777344 75.28125 52.652344 74.734375 52.234375 73.976562 C 52.839844 73.671875 52.894531 73.523438 52.710938 72.800781 C 52.605469 72.359375 52.28125 71.949219 52.511719 71.472656 C 53.140625 71.285156 53.757812 71.113281 54.480469 70.902344 C 54.527344 70.972656 54.617188 71.125 54.6875 71.25 C 55.574219 70.996094 55.574219 70.996094 56.65625 71.984375 C 56.828125 71.9375 57.027344 71.878906 57.238281 71.808594 C 57.921875 71.589844 58.367188 71.695312 58.75 72.300781 C 59.132812 72.917969 59.425781 73.605469 58.949219 74.300781 C 58.296875 75.257812 58.15625 76.210938 58.667969 77.273438 C 58.785156 77.515625 58.796875 77.808594 58.878906 78.144531 C 57.878906 78.132812 56.933594 77.796875 55.980469 78.097656 C 55.09375 78.378906 54.175781 78.578125 53.1875 78.832031 C 53.210938 78.34375 53.246094 77.796875 53.28125 77.226562 Z M 53.28125 77.226562 " fill-opacity="1" fill-rule="nonzero"/><path fill="#f9a202" d="M 81.433594 91.292969 C 81.363281 91.050781 81.316406 90.863281 81.269531 90.65625 C 80.699219 90.527344 80.234375 90.6875 79.824219 91.191406 C 79.570312 91.003906 79.335938 90.816406 79.070312 90.609375 C 78.660156 90.921875 78.277344 91.226562 77.859375 91.539062 C 77.578125 91.0625 77.324219 90.609375 77.007812 90.070312 C 77.371094 89.957031 77.707031 89.851562 78.113281 89.722656 C 77.976562 89.292969 77.835938 88.859375 77.671875 88.394531 C 78.113281 88.140625 78.917969 88.535156 78.941406 87.683594 C 79.582031 87.953125 80.1875 88.195312 80.839844 88.476562 C 81.175781 87.601562 81.246094 86.648438 81.421875 85.832031 C 81.117188 85.367188 80.6875 85.003906 80.664062 84.621094 C 80.640625 84.273438 81.058594 83.886719 81.292969 83.515625 C 80.875 83.027344 80.5 82.511719 79.664062 82.886719 C 79.722656 82.535156 79.757812 82.304688 79.800781 82.023438 C 80.976562 82.210938 82.105469 82.386719 83.257812 82.570312 C 83.492188 81.929688 83.746094 81.230469 84.003906 80.523438 C 84.132812 80.160156 84.492188 79.984375 85.003906 80.054688 C 85.191406 80.078125 85.367188 80.171875 85.539062 80.207031 C 85.714844 80.230469 85.902344 80.207031 86.167969 80.207031 C 86.074219 80.464844 86.050781 80.660156 85.957031 80.789062 C 85.421875 81.5 85.296875 82.316406 85.273438 83.175781 C 85.261719 83.863281 85.191406 84.550781 85.085938 85.226562 C 85.050781 85.484375 84.886719 85.738281 84.726562 85.949219 C 84.363281 86.378906 83.96875 86.789062 83.574219 87.171875 C 83.28125 87.453125 83.085938 87.765625 83.164062 88.160156 C 83.375 89.1875 82.886719 89.886719 82.164062 90.515625 C 81.945312 90.734375 81.746094 90.980469 81.433594 91.292969 Z M 81.433594 91.292969 " fill-opacity="1" fill-rule="nonzero"/><g clip-path="url(#9f68a87efc)"><path fill="#01943e" d="M 50.917969 47.785156 C 50.917969 48.320312 50.917969 48.867188 50.917969 49.460938 C 49.484375 49.542969 48.136719 49.613281 46.703125 49.683594 C 46.703125 50.882812 46.703125 51.988281 46.703125 53.117188 C 46.261719 53.328125 45.867188 53.503906 45.414062 53.710938 C 45.414062 54.445312 45.414062 55.179688 45.414062 55.996094 C 43.75 55.996094 42.179688 55.996094 40.523438 55.996094 C 40.558594 55.867188 40.582031 55.726562 40.640625 55.597656 C 41.664062 53.628906 42.667969 51.648438 43.726562 49.71875 C 44.0625 49.097656 44.5625 48.550781 45.027344 48.003906 C 45.167969 47.839844 45.449219 47.726562 45.667969 47.714844 C 47.355469 47.679688 49.042969 47.691406 50.730469 47.691406 C 50.777344 47.703125 50.835938 47.75 50.917969 47.785156 Z M 50.917969 47.785156 " fill-opacity="1" fill-rule="nonzero"/></g><path fill="#01943e" d="M 58.949219 70.039062 C 58.890625 70.574219 58.84375 71.054688 58.785156 71.636719 C 58.367188 71.496094 58.0625 71.296875 57.761719 71.308594 C 57.433594 71.320312 57.109375 71.507812 56.773438 71.625 C 56.421875 71.308594 56.085938 71.007812 55.6875 70.65625 C 55.757812 70.273438 55.816406 69.84375 55.910156 69.421875 C 55.945312 69.25 56.015625 68.957031 56.132812 68.933594 C 57.003906 68.722656 57.003906 67.875 57.433594 67.234375 C 57.597656 67.269531 57.785156 67.328125 57.945312 67.363281 C 59.238281 66.070312 60.566406 64.902344 62.542969 64.578125 C 62.519531 65.359375 62.894531 65.8125 63.3125 66.277344 C 63.554688 66.546875 63.683594 66.941406 63.8125 67.304688 C 64.300781 67.792969 65.40625 67.734375 65.140625 68.933594 C 64.742188 69.179688 64.335938 69.445312 63.894531 69.679688 C 63.71875 69.773438 63.464844 69.832031 63.289062 69.761719 C 62.847656 69.609375 62.4375 69.691406 62.007812 69.738281 C 61.019531 69.867188 60.03125 69.945312 58.949219 70.039062 Z M 58.949219 70.039062 " fill-opacity="1" fill-rule="nonzero"/><path fill="#f9a202" d="M 80.710938 87.683594 C 79.964844 87.859375 79.347656 87.625 78.789062 87.066406 C 78.640625 87.40625 78.546875 87.625 78.429688 87.882812 C 78.046875 87.929688 77.660156 87.976562 77.171875 88.023438 C 77.324219 88.511719 77.453125 88.917969 77.601562 89.386719 C 77.324219 89.535156 77.042969 89.699219 76.71875 89.875 C 75.601562 88.699219 74.355469 87.671875 74.101562 86.089844 C 74.390625 85.308594 74.660156 84.585938 74.984375 83.738281 C 75.660156 83.738281 76.460938 83.738281 77.347656 83.738281 C 77.347656 83.109375 77.347656 82.582031 77.347656 82.011719 C 78.046875 82.011719 78.652344 82.011719 79.324219 82.011719 C 79.324219 82.386719 79.324219 82.769531 79.324219 83.257812 C 79.664062 83.210938 79.929688 83.109375 80.1875 83.152344 C 80.417969 83.1875 80.628906 83.375 80.898438 83.527344 C 80.757812 83.746094 80.675781 83.875 80.582031 84.003906 C 80.09375 84.714844 80.070312 84.855469 80.664062 85.4375 C 80.976562 85.738281 81.046875 86.054688 80.964844 86.4375 C 80.886719 86.847656 80.804688 87.265625 80.710938 87.683594 Z M 80.710938 87.683594 " fill-opacity="1" fill-rule="nonzero"/><path fill="#01943e" d="M 50.859375 68.492188 C 51.253906 69.269531 51.617188 69.992188 51.988281 70.714844 C 52.046875 70.832031 52.164062 70.960938 52.140625 71.054688 C 51.917969 71.878906 52.382812 72.625 52.441406 73.429688 C 52.1875 73.5 51.988281 73.558594 51.753906 73.628906 C 51.835938 73.976562 51.917969 74.289062 52.035156 74.769531 C 51.5 74.488281 51.140625 74.570312 50.847656 75.269531 C 50.671875 74.546875 50.570312 74.082031 50.429688 73.511719 C 50.078125 73.535156 49.71875 73.558594 49.371094 73.582031 C 49.277344 73.253906 49.242188 72.847656 49.054688 72.507812 C 48.601562 71.671875 47.808594 71.542969 46.960938 71.683594 C 46.75 71.71875 46.542969 71.914062 46.367188 72.078125 C 46.113281 72.335938 45.890625 72.625 45.65625 72.894531 C 44.878906 72.007812 44.167969 71.203125 43.445312 70.390625 C 43.621094 69.503906 44.378906 69.5625 45.085938 69.492188 C 45.109375 69.027344 45.132812 68.597656 45.15625 68.175781 C 45.238281 68.152344 45.320312 68.09375 45.34375 68.117188 C 45.832031 68.492188 46.378906 68.609375 46.996094 68.550781 C 47.390625 68.515625 47.808594 68.574219 48.207031 68.664062 C 49.507812 68.933594 49.71875 68.945312 50.859375 68.492188 Z M 50.859375 68.492188 " fill-opacity="1" fill-rule="nonzero"/><path fill="#f9a202" d="M 59.308594 78.226562 C 59.121094 77.539062 58.972656 76.910156 58.75 76.292969 C 58.632812 75.933594 58.632812 75.628906 58.820312 75.316406 C 58.949219 75.105469 59.027344 74.863281 59.179688 74.664062 C 59.726562 73.90625 59.542969 73.125 59.203125 72.371094 C 59.0625 72.066406 58.996094 71.832031 59.109375 71.496094 C 59.238281 71.15625 59.25 70.773438 59.320312 70.367188 C 60.285156 70.285156 61.265625 70.203125 62.3125 70.121094 C 62.414062 70.496094 62.53125 70.84375 62.625 71.203125 C 62.789062 71.832031 62.960938 72.460938 63.089844 73.101562 C 63.171875 73.5 63.171875 73.90625 63.183594 74.300781 C 63.195312 75.6875 63.183594 75.6875 64.035156 76.828125 C 63.753906 76.957031 63.5 77.109375 63.21875 77.214844 C 62.347656 77.5625 61.472656 77.878906 60.613281 78.25 C 60.179688 78.425781 59.785156 78.449219 59.308594 78.226562 Z M 59.308594 78.226562 " fill-opacity="1" fill-rule="nonzero"/><path fill="#f9a202" d="M 105.753906 86.007812 C 104.042969 86.261719 102.355469 85.667969 100.703125 86.613281 C 100.414062 84.550781 101.332031 83.164062 102.914062 82 C 101.949219 81.546875 102.113281 80.847656 102.238281 80.089844 C 102.925781 80.054688 103.578125 80.042969 104.21875 79.972656 C 104.824219 79.917969 105.417969 79.800781 106.117188 79.695312 C 106.335938 80.101562 106.664062 80.636719 106.929688 81.199219 C 107.199219 81.769531 107.1875 82.339844 106.824219 82.886719 C 106.742188 83.015625 106.664062 83.152344 106.558594 83.269531 C 106.011719 83.957031 105.683594 84.703125 105.824219 85.601562 C 105.824219 85.726562 105.777344 85.84375 105.753906 86.007812 Z M 105.753906 86.007812 " fill-opacity="1" fill-rule="nonzero"/><g clip-path="url(#bc1e4ec20f)"><path fill="#01943e" d="M 41.027344 68.398438 C 41.222656 67.210938 41.210938 66.183594 40.386719 65.464844 C 40.804688 64.636719 41.175781 63.878906 41.628906 62.96875 C 42.28125 62.949219 43.109375 62.925781 43.933594 62.902344 C 44.515625 63.542969 45.472656 63.667969 45.960938 64.472656 C 46.390625 65.171875 47.160156 65.695312 46.832031 66.699219 C 47.148438 67.140625 47.789062 67.417969 47.519531 68.1875 C 46.867188 68.070312 46.132812 68.410156 45.53125 67.816406 C 45.4375 67.722656 45.238281 67.722656 45.085938 67.734375 C 44.132812 67.792969 43.15625 67.6875 42.257812 68.175781 C 41.945312 68.328125 41.539062 68.304688 41.027344 68.398438 Z M 41.027344 68.398438 " fill-opacity="1" fill-rule="nonzero"/></g><path fill="#01943e" d="M 72.179688 38.6875 C 72.332031 38.511719 72.484375 38.316406 72.667969 38.152344 C 72.960938 37.882812 73.0625 37.546875 73.097656 37.160156 C 73.191406 36.300781 73.320312 35.4375 73.4375 34.578125 C 73.960938 34.402344 74.425781 34.261719 74.996094 34.074219 C 75.136719 34.285156 75.289062 34.53125 75.34375 34.613281 C 75.914062 34.785156 76.195312 33.972656 76.660156 34.578125 C 76.253906 34.867188 75.777344 35.101562 75.789062 35.753906 C 75.890625 35.871094 76.042969 36.019531 76.183594 36.183594 C 76.648438 36.71875 76.625 36.917969 76.078125 37.417969 C 75.742188 37.722656 75.4375 38.058594 75.078125 38.417969 C 75.742188 38.933594 76.3125 39.363281 76.847656 39.78125 C 77.03125 40.410156 76.824219 40.820312 76.265625 41.097656 C 75.902344 41.285156 75.589844 41.539062 75.242188 41.761719 C 75.148438 42.355469 75.625 43.101562 74.695312 43.496094 C 74.53125 42.878906 74.34375 42.308594 74.238281 41.703125 C 74.167969 41.296875 73.984375 41.039062 73.691406 40.785156 C 72.632812 39.828125 72.632812 39.828125 72.179688 38.6875 Z M 72.179688 38.6875 " fill-opacity="1" fill-rule="nonzero"/><path fill="#f9a202" d="M 112.15625 60.734375 C 112.296875 61.222656 112.480469 61.65625 112.539062 62.109375 C 112.65625 63.226562 113.308594 63.9375 114.25 64.378906 C 115.660156 65.03125 116.449219 66.265625 117.371094 67.394531 C 117.402344 67.429688 117.378906 67.511719 117.378906 67.582031 C 117.054688 67.875 116.820312 67.664062 116.601562 67.417969 C 116.113281 66.882812 115.660156 66.335938 115.144531 65.835938 C 114.472656 65.183594 113.679688 64.742188 112.714844 65.019531 C 112.15625 65.171875 111.769531 64.890625 111.328125 64.589844 C 111.132812 64.867188 110.945312 65.125 110.746094 65.417969 C 110.386719 64.890625 110.003906 65.300781 109.523438 65.40625 C 109.410156 64.207031 109.933594 63.144531 110.003906 62.226562 C 110.757812 61.691406 111.386719 61.257812 112.15625 60.734375 Z M 112.15625 60.734375 " fill-opacity="1" fill-rule="nonzero"/><path fill="#f9a202" d="M 63.753906 70.203125 C 64.101562 69.96875 64.347656 69.796875 64.617188 69.632812 C 65.023438 69.386719 65.535156 69.304688 65.652344 68.675781 C 65.699219 68.410156 66.046875 68.316406 66.347656 68.515625 C 66.917969 68.886719 67.246094 69.726562 67.011719 70.402344 C 66.78125 71.042969 66.558594 71.707031 66.222656 72.300781 C 65.800781 73.023438 65.746094 73.753906 65.859375 74.546875 C 65.941406 75.09375 65.964844 75.652344 66.023438 76.351562 C 65.664062 76.28125 65.382812 76.292969 65.164062 76.179688 C 64.847656 76.027344 64.835938 75.699219 64.824219 75.363281 C 64.777344 74.359375 64.71875 73.371094 64.617188 72.371094 C 64.558594 71.855469 64.523438 71.320312 64.046875 70.9375 C 63.894531 70.820312 63.871094 70.507812 63.753906 70.203125 Z M 63.753906 70.203125 " fill-opacity="1" fill-rule="nonzero"/><path fill="#9b0f24" d="M 107.140625 107.460938 C 106.929688 107.085938 106.71875 106.738281 106.5 106.355469 C 106.640625 105.761719 107.210938 105.121094 106.441406 104.46875 C 106.21875 104.46875 105.953125 104.46875 105.636719 104.46875 C 105.300781 104.070312 104.964844 103.664062 104.542969 103.175781 C 104.765625 102.730469 105.011719 102.265625 105.242188 101.800781 C 105.289062 101.8125 105.335938 101.835938 105.394531 101.847656 C 105.359375 101.449219 105.382812 101.03125 105.277344 100.648438 C 105.113281 100.054688 105.136719 99.539062 105.730469 99.15625 C 105.589844 98.820312 105.453125 98.515625 105.324219 98.203125 C 106.148438 98.003906 106.277344 98.0625 106.453125 98.773438 C 106.582031 99.320312 106.675781 99.867188 106.800781 100.484375 C 106.710938 100.636719 106.558594 100.84375 106.476562 101.066406 C 106.394531 101.289062 106.359375 101.53125 106.382812 101.765625 C 106.40625 102.042969 106.511719 102.300781 106.558594 102.582031 C 106.617188 102.929688 106.710938 103.164062 107.058594 103.382812 C 107.894531 103.917969 108.363281 105.375 108.011719 106.296875 C 107.847656 106.703125 107.464844 107.03125 107.140625 107.460938 Z M 107.140625 107.460938 " fill-opacity="1" fill-rule="nonzero"/><path fill="#01943e" d="M 48.03125 76.0625 C 48.425781 75.445312 48.765625 74.886719 49.113281 74.347656 C 49.347656 73.976562 49.671875 73.800781 50.171875 73.894531 C 50.230469 74.523438 50.289062 75.152344 50.929688 75.570312 C 51.105469 75.386719 51.277344 75.199219 51.488281 74.988281 C 51.546875 75.058594 51.664062 75.140625 51.652344 75.1875 C 51.347656 76.027344 51.742188 76.5625 52.429688 76.957031 C 52.847656 77.203125 52.953125 77.515625 52.871094 77.972656 C 52.816406 78.332031 52.816406 78.703125 52.78125 79.125 C 52.105469 79.066406 51.699219 78.554688 51.195312 78.238281 C 50.636719 77.890625 50.113281 77.503906 49.578125 77.132812 C 49.054688 76.785156 48.554688 76.421875 48.03125 76.0625 Z M 48.03125 76.0625 " fill-opacity="1" fill-rule="nonzero"/><path fill="#01943e" d="M 47.796875 75.78125 C 46.519531 75.257812 45.960938 74.382812 45.761719 73.289062 C 45.972656 73.066406 46.179688 72.859375 46.378906 72.613281 C 47.101562 71.730469 48.101562 71.730469 48.742188 72.648438 C 49.078125 73.148438 49.03125 73.730469 48.789062 74.234375 C 48.507812 74.78125 48.125 75.269531 47.796875 75.78125 Z M 47.796875 75.78125 " fill-opacity="1" fill-rule="nonzero"/><path fill="#f9a202" d="M 64.765625 76.539062 C 64.683594 76.5625 64.523438 76.679688 64.476562 76.644531 C 64.046875 76.292969 63.488281 75.933594 63.554688 75.351562 C 63.742188 73.8125 63.101562 72.414062 62.949219 70.9375 C 62.929688 70.691406 62.824219 70.460938 62.753906 70.191406 C 63.125 70.039062 63.394531 70.097656 63.476562 70.496094 C 63.542969 70.84375 63.730469 71.089844 63.941406 71.378906 C 64.160156 71.683594 64.253906 72.125 64.289062 72.507812 C 64.394531 73.5 64.417969 74.5 64.511719 75.492188 C 64.523438 75.792969 64.648438 76.109375 64.765625 76.539062 Z M 64.765625 76.539062 " fill-opacity="1" fill-rule="nonzero"/><path fill="#01943e" d="M 44.820312 69.203125 C 43.980469 69.0625 43.539062 69.480469 43.121094 70.097656 C 42.574219 69.644531 42.074219 69.214844 41.503906 68.734375 C 42.609375 68.398438 43.574219 67.96875 44.703125 68.140625 C 44.738281 68.457031 44.773438 68.757812 44.820312 69.203125 Z M 44.820312 69.203125 " fill-opacity="1" fill-rule="nonzero"/><path fill="#9b0f24" d="M 100.074219 88.8125 C 100.496094 88.664062 100.855469 88.546875 101.332031 88.371094 C 101.414062 88.675781 101.714844 89.140625 101.589844 89.417969 C 101.378906 89.910156 101.121094 90.503906 100.320312 90.644531 C 100.238281 90.015625 100.15625 89.417969 100.074219 88.8125 Z M 100.074219 88.8125 " fill-opacity="1" fill-rule="nonzero"/><path fill="#f9a202" d="M 74.972656 83.28125 C 75.054688 82.875 75.125 82.546875 75.195312 82.175781 C 75.765625 82.175781 76.347656 82.175781 76.972656 82.175781 C 76.972656 82.523438 76.972656 82.875 76.972656 83.28125 C 76.324219 83.28125 75.695312 83.28125 74.972656 83.28125 Z M 74.972656 83.28125 " fill-opacity="1" fill-rule="nonzero"/><path fill="#9b0f24" d="M 101.484375 86.695312 C 101.890625 87.042969 101.84375 87.417969 101.636719 87.8125 C 101.367188 87.929688 101.101562 88.058594 100.820312 88.160156 C 100.539062 88.253906 100.25 88.324219 99.890625 88.429688 C 99.949219 87.941406 99.992188 87.566406 100.0625 87.089844 C 100.507812 86.960938 101.007812 86.824219 101.484375 86.695312 Z M 101.484375 86.695312 " fill-opacity="1" fill-rule="nonzero"/><path fill="#f9a202" d="M 117.753906 67.910156 C 118.03125 68.105469 118.03125 68.316406 117.824219 68.539062 C 117.507812 68.851562 117.3125 69.203125 117.613281 69.714844 C 117.113281 69.714844 116.71875 69.714844 116.195312 69.714844 C 116.242188 69.457031 116.21875 69.15625 116.355469 68.980469 C 116.71875 68.503906 117.054688 67.945312 117.753906 67.910156 Z M 117.753906 67.910156 " fill-opacity="1" fill-rule="nonzero"/><path fill="#01943e" d="M 102.71875 121.902344 C 102.472656 121.609375 102.207031 121.296875 101.925781 120.980469 C 102.183594 120.644531 102.367188 120.410156 102.601562 120.109375 C 102.902344 120.25 103.289062 120.261719 103.324219 120.691406 C 103.34375 121.15625 103.390625 121.65625 102.71875 121.902344 Z M 102.71875 121.902344 " fill-opacity="1" fill-rule="nonzero"/><path fill="#9b0f24" d="M 78.347656 92.621094 C 78.207031 92.390625 78.09375 92.203125 77.953125 91.957031 C 78.300781 91.65625 78.628906 91.386719 79.035156 91.027344 C 78.777344 91.621094 78.582031 92.074219 78.347656 92.621094 Z M 78.347656 92.621094 " fill-opacity="1" fill-rule="nonzero"/><path fill="#000000" d="M 93.847656 108.984375 C 93.488281 109.253906 93.1875 109.464844 92.894531 109.671875 C 92.730469 109.453125 92.570312 109.242188 92.371094 108.984375 C 92.871094 108.984375 93.3125 108.984375 93.847656 108.984375 Z M 93.847656 108.984375 " fill-opacity="1" fill-rule="nonzero"/><path fill="#f9a202" d="M 81.570312 68.234375 C 81.363281 68.117188 81.117188 68.035156 80.953125 67.886719 C 80.851562 67.78125 80.851562 67.546875 80.769531 67.28125 C 81.292969 67.535156 81.457031 67.875 81.535156 68.269531 Z M 81.570312 68.234375 " fill-opacity="1" fill-rule="nonzero"/><path fill="#000000" d="M 91.347656 109.289062 C 91.464844 109.265625 91.40625 109.277344 91.347656 109.289062 C 91.40625 109.277344 91.464844 109.253906 91.347656 109.289062 Z M 91.347656 109.289062 " fill-opacity="1" fill-rule="nonzero"/><path fill="#000000" d="M 78.953125 92.855469 C 78.847656 92.902344 78.753906 92.960938 78.652344 93.007812 C 78.640625 92.972656 78.640625 92.949219 78.628906 92.914062 C 78.742188 92.902344 78.859375 92.890625 78.976562 92.878906 Z M 78.953125 92.855469 " fill-opacity="1" fill-rule="nonzero"/><path fill="#000000" d="M 97.316406 77.609375 L 97.316406 77.667969 L 97.339844 77.585938 Z M 97.316406 77.609375 " fill-opacity="1" fill-rule="nonzero"/><path fill="#01943e" d="M 99.972656 124.71875 C 99.773438 125.699219 98.75 125.570312 98.410156 126.199219 C 97.726562 126 97.726562 126 97.457031 125.152344 C 97.886719 124.789062 98.363281 124.394531 98.863281 123.976562 C 99.25 124.230469 99.597656 124.464844 99.972656 124.71875 Z M 99.972656 124.71875 " fill-opacity="1" fill-rule="nonzero"/><g fill="#ffffff" fill-opacity="1"><g transform="translate(480.961477, 104.062923)"><g><path d="M 25.59375 0.640625 C 21.71875 0.640625 18.375 -0.0390625 15.5625 -1.40625 C 12.757812 -2.769531 10.441406 -4.628906 8.609375 -6.984375 C 6.785156 -9.347656 5.425781 -12.019531 4.53125 -15 C 3.632812 -17.976562 3.1875 -21.082031 3.1875 -24.3125 C 3.1875 -27.539062 3.632812 -30.65625 4.53125 -33.65625 C 5.425781 -36.65625 6.785156 -39.335938 8.609375 -41.703125 C 10.441406 -44.066406 12.757812 -45.925781 15.5625 -47.28125 C 18.375 -48.644531 21.695312 -49.328125 25.53125 -49.328125 C 29.144531 -49.328125 32.289062 -48.738281 34.96875 -47.5625 C 37.644531 -46.394531 39.84375 -44.800781 41.5625 -42.78125 C 43.289062 -40.757812 44.492188 -38.453125 45.171875 -35.859375 L 40.265625 -35.859375 C 39.453125 -38.710938 37.789062 -41.007812 35.28125 -42.75 C 32.769531 -44.5 29.5 -45.375 25.46875 -45.375 C 22.351562 -45.375 19.664062 -44.796875 17.40625 -43.640625 C 15.15625 -42.492188 13.304688 -40.941406 11.859375 -38.984375 C 10.421875 -37.023438 9.347656 -34.789062 8.640625 -32.28125 C 7.941406 -29.78125 7.59375 -27.164062 7.59375 -24.4375 C 7.59375 -21.59375 7.960938 -18.90625 8.703125 -16.375 C 9.453125 -13.84375 10.570312 -11.597656 12.0625 -9.640625 C 13.550781 -7.679688 15.410156 -6.132812 17.640625 -5 C 19.878906 -3.875 22.507812 -3.3125 25.53125 -3.3125 C 28.882812 -3.3125 31.753906 -4.066406 34.140625 -5.578125 C 36.523438 -7.085938 38.351562 -9.171875 39.625 -11.828125 C 40.90625 -14.492188 41.546875 -17.570312 41.546875 -21.0625 L 29.609375 -21.0625 L 29.609375 -25.015625 L 45.9375 -25.015625 L 45.9375 0 L 41.859375 0 L 41.859375 -9 C 41.097656 -6.738281 39.875 -4.894531 38.1875 -3.46875 C 36.507812 -2.050781 34.570312 -1.007812 32.375 -0.34375 C 30.1875 0.3125 27.925781 0.640625 25.59375 0.640625 Z M 25.59375 0.640625 "/></g></g></g><g fill="#ffffff" fill-opacity="1"><g transform="translate(535.397113, 104.062923)"><g><path d="M 28.078125 -22.015625 L 37.78125 0 L 32.921875 0 L 23.734375 -21.25 C 23.441406 -21.207031 23.144531 -21.1875 22.84375 -21.1875 C 22.539062 -21.1875 22.222656 -21.1875 21.890625 -21.1875 L 9.4375 -21.1875 L 9.4375 0 L 5.046875 0 L 5.046875 -48.6875 L 21.890625 -48.6875 C 26.566406 -48.6875 30.304688 -47.535156 33.109375 -45.234375 C 35.921875 -42.941406 37.328125 -39.519531 37.328125 -34.96875 C 37.328125 -31.644531 36.507812 -28.878906 34.875 -26.671875 C 33.238281 -24.460938 30.972656 -22.910156 28.078125 -22.015625 Z M 9.4375 -25.015625 L 21.3125 -25.015625 C 25.101562 -25.015625 27.992188 -25.863281 29.984375 -27.5625 C 31.984375 -29.269531 32.984375 -31.695312 32.984375 -34.84375 C 32.984375 -37.988281 31.960938 -40.421875 29.921875 -42.140625 C 27.878906 -43.867188 25.007812 -44.734375 21.3125 -44.734375 L 9.4375 -44.734375 Z M 9.4375 -25.015625 "/></g></g></g><g fill="#ffffff" fill-opacity="1"><g transform="translate(580.643218, 104.062923)"><g><path d="M 25.328125 0.640625 C 21.585938 0.640625 18.320312 -0.0234375 15.53125 -1.359375 C 12.75 -2.703125 10.441406 -4.546875 8.609375 -6.890625 C 6.785156 -9.234375 5.425781 -11.90625 4.53125 -14.90625 C 3.632812 -17.90625 3.1875 -21.0625 3.1875 -24.375 C 3.1875 -27.695312 3.632812 -30.851562 4.53125 -33.84375 C 5.425781 -36.84375 6.785156 -39.503906 8.609375 -41.828125 C 10.441406 -44.148438 12.75 -45.976562 15.53125 -47.3125 C 18.320312 -48.65625 21.585938 -49.328125 25.328125 -49.328125 C 29.078125 -49.328125 32.34375 -48.65625 35.125 -47.3125 C 37.914062 -45.976562 40.222656 -44.148438 42.046875 -41.828125 C 43.878906 -39.503906 45.238281 -36.84375 46.125 -33.84375 C 47.019531 -30.851562 47.46875 -27.695312 47.46875 -24.375 C 47.46875 -21.0625 47.019531 -17.90625 46.125 -14.90625 C 45.238281 -11.90625 43.878906 -9.234375 42.046875 -6.890625 C 40.222656 -4.546875 37.914062 -2.703125 35.125 -1.359375 C 32.34375 -0.0234375 29.078125 0.640625 25.328125 0.640625 Z M 25.328125 -3.3125 C 29.242188 -3.3125 32.507812 -4.238281 35.125 -6.09375 C 37.738281 -7.945312 39.71875 -10.46875 41.0625 -13.65625 C 42.40625 -16.84375 43.078125 -20.414062 43.078125 -24.375 C 43.078125 -28.332031 42.40625 -31.894531 41.0625 -35.0625 C 39.71875 -38.226562 37.738281 -40.738281 35.125 -42.59375 C 32.507812 -44.445312 29.242188 -45.375 25.328125 -45.375 C 21.460938 -45.375 18.207031 -44.445312 15.5625 -42.59375 C 12.925781 -40.738281 10.9375 -38.226562 9.59375 -35.0625 C 8.257812 -31.894531 7.59375 -28.332031 7.59375 -24.375 C 7.59375 -20.414062 8.257812 -16.84375 9.59375 -13.65625 C 10.9375 -10.46875 12.925781 -7.945312 15.5625 -6.09375 C 18.207031 -4.238281 21.460938 -3.3125 25.328125 -3.3125 Z M 25.328125 -3.3125 "/></g></g></g><g fill="#ffffff" fill-opacity="1"><g transform="translate(635.780835, 104.062923)"><g><path d="M 21.953125 0.640625 C 15.992188 0.640625 11.609375 -0.953125 8.796875 -4.140625 C 5.992188 -7.335938 4.59375 -11.703125 4.59375 -17.234375 L 4.59375 -48.6875 L 9 -48.6875 L 9 -17.234375 C 9 -12.890625 10.019531 -9.484375 12.0625 -7.015625 C 14.101562 -4.546875 17.398438 -3.3125 21.953125 -3.3125 C 26.503906 -3.3125 29.800781 -4.546875 31.84375 -7.015625 C 33.882812 -9.484375 34.90625 -12.890625 34.90625 -17.234375 L 34.90625 -48.6875 L 39.3125 -48.6875 L 39.3125 -17.234375 C 39.3125 -11.703125 37.90625 -7.335938 35.09375 -4.140625 C 32.289062 -0.953125 27.910156 0.640625 21.953125 0.640625 Z M 21.953125 0.640625 "/></g></g></g><g fill="#ffffff" fill-opacity="1"><g transform="translate(684.21774, 104.062923)"><g><path d="M 9.4375 0 L 5.046875 0 L 5.046875 -48.6875 L 21.890625 -48.6875 C 26.566406 -48.6875 30.304688 -47.535156 33.109375 -45.234375 C 35.921875 -42.941406 37.328125 -39.519531 37.328125 -34.96875 C 37.328125 -30.582031 35.941406 -27.1875 33.171875 -24.78125 C 30.410156 -22.382812 26.648438 -21.1875 21.890625 -21.1875 L 9.4375 -21.1875 Z M 9.4375 -44.734375 L 9.4375 -25.015625 L 21.3125 -25.015625 C 25.101562 -25.015625 27.992188 -25.863281 29.984375 -27.5625 C 31.984375 -29.269531 32.984375 -31.695312 32.984375 -34.84375 C 32.984375 -37.988281 31.960938 -40.421875 29.921875 -42.140625 C 27.878906 -43.867188 25.007812 -44.734375 21.3125 -44.734375 Z M 9.4375 -44.734375 "/></g></g></g><g fill="#ffffff" fill-opacity="1"><g transform="translate(341.856257, 126.915829)"><g><path d="M 4.1875 -4.765625 C 4.5625 -4.765625 4.894531 -4.8125 5.1875 -4.90625 C 5.476562 -5.007812 5.722656 -5.148438 5.921875 -5.328125 C 6.128906 -5.515625 6.28125 -5.734375 6.375 -5.984375 C 6.476562 -6.242188 6.53125 -6.523438 6.53125 -6.828125 C 6.53125 -7.453125 6.332031 -7.941406 5.9375 -8.296875 C 5.550781 -8.648438 4.96875 -8.828125 4.1875 -8.828125 L 2.59375 -8.828125 L 2.59375 -4.765625 Z M 4.1875 -9.890625 C 4.8125 -9.890625 5.351562 -9.816406 5.8125 -9.671875 C 6.269531 -9.523438 6.648438 -9.316406 6.953125 -9.046875 C 7.265625 -8.785156 7.492188 -8.460938 7.640625 -8.078125 C 7.785156 -7.703125 7.859375 -7.285156 7.859375 -6.828125 C 7.859375 -6.359375 7.773438 -5.929688 7.609375 -5.546875 C 7.453125 -5.171875 7.21875 -4.84375 6.90625 -4.5625 C 6.601562 -4.289062 6.222656 -4.078125 5.765625 -3.921875 C 5.304688 -3.773438 4.78125 -3.703125 4.1875 -3.703125 L 2.59375 -3.703125 L 2.59375 0 L 1.265625 0 L 1.265625 -9.890625 Z M 4.1875 -9.890625 "/></g></g></g><g fill="#ffffff" fill-opacity="1"><g transform="translate(361.169748, 126.915829)"><g><path d="M 6.515625 -3.671875 L 4.953125 -7.6875 C 4.910156 -7.8125 4.863281 -7.953125 4.8125 -8.109375 C 4.757812 -8.265625 4.710938 -8.429688 4.671875 -8.609375 C 4.578125 -8.242188 4.476562 -7.9375 4.375 -7.6875 L 2.828125 -3.671875 Z M 9.296875 0 L 8.265625 0 C 8.140625 0 8.039062 -0.0234375 7.96875 -0.078125 C 7.894531 -0.140625 7.84375 -0.21875 7.8125 -0.3125 L 6.890625 -2.703125 L 2.453125 -2.703125 L 1.53125 -0.3125 C 1.5 -0.226562 1.441406 -0.15625 1.359375 -0.09375 C 1.285156 -0.03125 1.191406 0 1.078125 0 L 0.046875 0 L 4 -9.890625 L 5.34375 -9.890625 Z M 9.296875 0 "/></g></g></g><g fill="#ffffff" fill-opacity="1"><g transform="translate(381.538201, 126.915829)"><g><path d="M 4 -5.09375 C 4.382812 -5.09375 4.722656 -5.140625 5.015625 -5.234375 C 5.316406 -5.328125 5.566406 -5.457031 5.765625 -5.625 C 5.972656 -5.800781 6.125 -6.007812 6.21875 -6.25 C 6.320312 -6.488281 6.375 -6.753906 6.375 -7.046875 C 6.375 -7.640625 6.179688 -8.082031 5.796875 -8.375 C 5.410156 -8.675781 4.832031 -8.828125 4.0625 -8.828125 L 2.59375 -8.828125 L 2.59375 -5.09375 Z M 8.5625 0 L 7.375 0 C 7.132812 0 6.957031 -0.09375 6.84375 -0.28125 L 4.28125 -3.8125 C 4.195312 -3.925781 4.109375 -4.003906 4.015625 -4.046875 C 3.929688 -4.097656 3.796875 -4.125 3.609375 -4.125 L 2.59375 -4.125 L 2.59375 0 L 1.265625 0 L 1.265625 -9.890625 L 4.0625 -9.890625 C 4.6875 -9.890625 5.222656 -9.820312 5.671875 -9.6875 C 6.128906 -9.5625 6.503906 -9.378906 6.796875 -9.140625 C 7.097656 -8.898438 7.316406 -8.613281 7.453125 -8.28125 C 7.597656 -7.945312 7.671875 -7.566406 7.671875 -7.140625 C 7.671875 -6.796875 7.613281 -6.472656 7.5 -6.171875 C 7.394531 -5.867188 7.238281 -5.59375 7.03125 -5.34375 C 6.820312 -5.101562 6.566406 -4.898438 6.265625 -4.734375 C 5.960938 -4.566406 5.625 -4.4375 5.25 -4.34375 C 5.414062 -4.25 5.5625 -4.109375 5.6875 -3.921875 Z M 8.5625 0 "/></g></g></g><g fill="#ffffff" fill-opacity="1"><g transform="translate(401.210239, 126.915829)"><g><path d="M 7.953125 -8.765625 L 4.75 -8.765625 L 4.75 0 L 3.421875 0 L 3.421875 -8.765625 L 0.203125 -8.765625 L 0.203125 -9.890625 L 7.953125 -9.890625 Z M 7.953125 -8.765625 "/></g></g></g><g fill="#ffffff" fill-opacity="1"><g transform="translate(420.385812, 126.915829)"><g><path d="M 9.265625 -9.890625 L 9.265625 0 L 8.609375 0 C 8.492188 0 8.398438 -0.015625 8.328125 -0.046875 C 8.265625 -0.0859375 8.195312 -0.148438 8.125 -0.234375 L 2.40625 -7.6875 C 2.414062 -7.570312 2.421875 -7.457031 2.421875 -7.34375 C 2.429688 -7.238281 2.4375 -7.140625 2.4375 -7.046875 L 2.4375 0 L 1.265625 0 L 1.265625 -9.890625 L 1.953125 -9.890625 C 2.015625 -9.890625 2.066406 -9.882812 2.109375 -9.875 C 2.148438 -9.863281 2.1875 -9.847656 2.21875 -9.828125 C 2.25 -9.816406 2.28125 -9.796875 2.3125 -9.765625 C 2.34375 -9.742188 2.378906 -9.707031 2.421875 -9.65625 L 8.140625 -2.21875 C 8.128906 -2.332031 8.117188 -2.445312 8.109375 -2.5625 C 8.097656 -2.675781 8.09375 -2.785156 8.09375 -2.890625 L 8.09375 -9.890625 Z M 9.265625 -9.890625 "/></g></g></g><g fill="#ffffff" fill-opacity="1"><g transform="translate(441.947142, 126.915829)"><g><path d="M 7.359375 -1.09375 L 7.359375 0 L 1.265625 0 L 1.265625 -9.890625 L 7.359375 -9.890625 L 7.359375 -8.796875 L 2.59375 -8.796875 L 2.59375 -5.515625 L 6.453125 -5.515625 L 6.453125 -4.46875 L 2.59375 -4.46875 L 2.59375 -1.09375 Z M 7.359375 -1.09375 "/></g></g></g><g fill="#ffffff" fill-opacity="1"><g transform="translate(460.943451, 126.915829)"><g><path d="M 4 -5.09375 C 4.382812 -5.09375 4.722656 -5.140625 5.015625 -5.234375 C 5.316406 -5.328125 5.566406 -5.457031 5.765625 -5.625 C 5.972656 -5.800781 6.125 -6.007812 6.21875 -6.25 C 6.320312 -6.488281 6.375 -6.753906 6.375 -7.046875 C 6.375 -7.640625 6.179688 -8.082031 5.796875 -8.375 C 5.410156 -8.675781 4.832031 -8.828125 4.0625 -8.828125 L 2.59375 -8.828125 L 2.59375 -5.09375 Z M 8.5625 0 L 7.375 0 C 7.132812 0 6.957031 -0.09375 6.84375 -0.28125 L 4.28125 -3.8125 C 4.195312 -3.925781 4.109375 -4.003906 4.015625 -4.046875 C 3.929688 -4.097656 3.796875 -4.125 3.609375 -4.125 L 2.59375 -4.125 L 2.59375 0 L 1.265625 0 L 1.265625 -9.890625 L 4.0625 -9.890625 C 4.6875 -9.890625 5.222656 -9.820312 5.671875 -9.6875 C 6.128906 -9.5625 6.503906 -9.378906 6.796875 -9.140625 C 7.097656 -8.898438 7.316406 -8.613281 7.453125 -8.28125 C 7.597656 -7.945312 7.671875 -7.566406 7.671875 -7.140625 C 7.671875 -6.796875 7.613281 -6.472656 7.5 -6.171875 C 7.394531 -5.867188 7.238281 -5.59375 7.03125 -5.34375 C 6.820312 -5.101562 6.566406 -4.898438 6.265625 -4.734375 C 5.960938 -4.566406 5.625 -4.4375 5.25 -4.34375 C 5.414062 -4.25 5.5625 -4.109375 5.6875 -3.921875 Z M 8.5625 0 "/></g></g></g><g fill="#ffffff" fill-opacity="1"><g transform="translate(480.615486, 126.915829)"><g><path d="M 6.3125 -8.34375 C 6.269531 -8.269531 6.222656 -8.21875 6.171875 -8.1875 C 6.128906 -8.15625 6.078125 -8.140625 6.015625 -8.140625 C 5.929688 -8.140625 5.835938 -8.175781 5.734375 -8.25 C 5.628906 -8.332031 5.492188 -8.421875 5.328125 -8.515625 C 5.171875 -8.609375 4.976562 -8.691406 4.75 -8.765625 C 4.53125 -8.847656 4.265625 -8.890625 3.953125 -8.890625 C 3.648438 -8.890625 3.382812 -8.847656 3.15625 -8.765625 C 2.9375 -8.679688 2.75 -8.570312 2.59375 -8.4375 C 2.4375 -8.300781 2.316406 -8.140625 2.234375 -7.953125 C 2.160156 -7.765625 2.125 -7.5625 2.125 -7.34375 C 2.125 -7.070312 2.191406 -6.84375 2.328125 -6.65625 C 2.460938 -6.476562 2.640625 -6.320312 2.859375 -6.1875 C 3.085938 -6.0625 3.34375 -5.953125 3.625 -5.859375 C 3.90625 -5.765625 4.191406 -5.664062 4.484375 -5.5625 C 4.785156 -5.46875 5.078125 -5.351562 5.359375 -5.21875 C 5.640625 -5.09375 5.890625 -4.929688 6.109375 -4.734375 C 6.335938 -4.546875 6.519531 -4.3125 6.65625 -4.03125 C 6.789062 -3.75 6.859375 -3.40625 6.859375 -3 C 6.859375 -2.570312 6.785156 -2.164062 6.640625 -1.78125 C 6.492188 -1.40625 6.28125 -1.078125 6 -0.796875 C 5.71875 -0.515625 5.367188 -0.289062 4.953125 -0.125 C 4.546875 0.03125 4.078125 0.109375 3.546875 0.109375 C 2.910156 0.109375 2.328125 -0.00390625 1.796875 -0.234375 C 1.273438 -0.472656 0.828125 -0.785156 0.453125 -1.171875 L 0.84375 -1.8125 C 0.875 -1.863281 0.914062 -1.90625 0.96875 -1.9375 C 1.03125 -1.976562 1.09375 -2 1.15625 -2 C 1.207031 -2 1.269531 -1.972656 1.34375 -1.921875 C 1.425781 -1.867188 1.515625 -1.804688 1.609375 -1.734375 C 1.710938 -1.660156 1.820312 -1.578125 1.9375 -1.484375 C 2.0625 -1.398438 2.203125 -1.320312 2.359375 -1.25 C 2.523438 -1.175781 2.707031 -1.113281 2.90625 -1.0625 C 3.113281 -1.019531 3.34375 -1 3.59375 -1 C 3.90625 -1 4.1875 -1.039062 4.4375 -1.125 C 4.6875 -1.21875 4.894531 -1.34375 5.0625 -1.5 C 5.238281 -1.65625 5.375 -1.84375 5.46875 -2.0625 C 5.5625 -2.289062 5.609375 -2.539062 5.609375 -2.8125 C 5.609375 -3.101562 5.539062 -3.34375 5.40625 -3.53125 C 5.269531 -3.726562 5.09375 -3.890625 4.875 -4.015625 C 4.65625 -4.148438 4.398438 -4.257812 4.109375 -4.34375 C 3.828125 -4.4375 3.535156 -4.53125 3.234375 -4.625 C 2.941406 -4.71875 2.65625 -4.828125 2.375 -4.953125 C 2.09375 -5.078125 1.835938 -5.238281 1.609375 -5.4375 C 1.390625 -5.632812 1.210938 -5.878906 1.078125 -6.171875 C 0.941406 -6.472656 0.875 -6.84375 0.875 -7.28125 C 0.875 -7.625 0.941406 -7.957031 1.078125 -8.28125 C 1.210938 -8.613281 1.410156 -8.90625 1.671875 -9.15625 C 1.929688 -9.414062 2.25 -9.617188 2.625 -9.765625 C 3.007812 -9.921875 3.445312 -10 3.9375 -10 C 4.488281 -10 4.988281 -9.910156 5.4375 -9.734375 C 5.894531 -9.554688 6.296875 -9.300781 6.640625 -8.96875 Z M 6.3125 -8.34375 "/></g></g></g><g fill="#ffffff" fill-opacity="1"><g transform="translate(499.129124, 126.915829)"><g><path d="M 9.265625 -9.890625 L 9.265625 0 L 7.9375 0 L 7.9375 -4.5 L 2.59375 -4.5 L 2.59375 0 L 1.265625 0 L 1.265625 -9.890625 L 2.59375 -9.890625 L 2.59375 -5.484375 L 7.9375 -5.484375 L 7.9375 -9.890625 Z M 9.265625 -9.890625 "/></g></g></g><g fill="#ffffff" fill-opacity="1"><g transform="translate(520.690464, 126.915829)"><g><path d="M 2.59375 0 L 1.265625 0 L 1.265625 -9.890625 L 2.59375 -9.890625 Z M 2.59375 0 "/></g></g></g><g fill="#ffffff" fill-opacity="1"><g transform="translate(535.584117, 126.915829)"><g><path d="M 4.1875 -4.765625 C 4.5625 -4.765625 4.894531 -4.8125 5.1875 -4.90625 C 5.476562 -5.007812 5.722656 -5.148438 5.921875 -5.328125 C 6.128906 -5.515625 6.28125 -5.734375 6.375 -5.984375 C 6.476562 -6.242188 6.53125 -6.523438 6.53125 -6.828125 C 6.53125 -7.453125 6.332031 -7.941406 5.9375 -8.296875 C 5.550781 -8.648438 4.96875 -8.828125 4.1875 -8.828125 L 2.59375 -8.828125 L 2.59375 -4.765625 Z M 4.1875 -9.890625 C 4.8125 -9.890625 5.351562 -9.816406 5.8125 -9.671875 C 6.269531 -9.523438 6.648438 -9.316406 6.953125 -9.046875 C 7.265625 -8.785156 7.492188 -8.460938 7.640625 -8.078125 C 7.785156 -7.703125 7.859375 -7.285156 7.859375 -6.828125 C 7.859375 -6.359375 7.773438 -5.929688 7.609375 -5.546875 C 7.453125 -5.171875 7.21875 -4.84375 6.90625 -4.5625 C 6.601562 -4.289062 6.222656 -4.078125 5.765625 -3.921875 C 5.304688 -3.773438 4.78125 -3.703125 4.1875 -3.703125 L 2.59375 -3.703125 L 2.59375 0 L 1.265625 0 L 1.265625 -9.890625 Z M 4.1875 -9.890625 "/></g></g></g><g fill="#ffffff" fill-opacity="1"><g transform="translate(554.897615, 126.915829)"><g><path d="M 6.3125 -8.34375 C 6.269531 -8.269531 6.222656 -8.21875 6.171875 -8.1875 C 6.128906 -8.15625 6.078125 -8.140625 6.015625 -8.140625 C 5.929688 -8.140625 5.835938 -8.175781 5.734375 -8.25 C 5.628906 -8.332031 5.492188 -8.421875 5.328125 -8.515625 C 5.171875 -8.609375 4.976562 -8.691406 4.75 -8.765625 C 4.53125 -8.847656 4.265625 -8.890625 3.953125 -8.890625 C 3.648438 -8.890625 3.382812 -8.847656 3.15625 -8.765625 C 2.9375 -8.679688 2.75 -8.570312 2.59375 -8.4375 C 2.4375 -8.300781 2.316406 -8.140625 2.234375 -7.953125 C 2.160156 -7.765625 2.125 -7.5625 2.125 -7.34375 C 2.125 -7.070312 2.191406 -6.84375 2.328125 -6.65625 C 2.460938 -6.476562 2.640625 -6.320312 2.859375 -6.1875 C 3.085938 -6.0625 3.34375 -5.953125 3.625 -5.859375 C 3.90625 -5.765625 4.191406 -5.664062 4.484375 -5.5625 C 4.785156 -5.46875 5.078125 -5.351562 5.359375 -5.21875 C 5.640625 -5.09375 5.890625 -4.929688 6.109375 -4.734375 C 6.335938 -4.546875 6.519531 -4.3125 6.65625 -4.03125 C 6.789062 -3.75 6.859375 -3.40625 6.859375 -3 C 6.859375 -2.570312 6.785156 -2.164062 6.640625 -1.78125 C 6.492188 -1.40625 6.28125 -1.078125 6 -0.796875 C 5.71875 -0.515625 5.367188 -0.289062 4.953125 -0.125 C 4.546875 0.03125 4.078125 0.109375 3.546875 0.109375 C 2.910156 0.109375 2.328125 -0.00390625 1.796875 -0.234375 C 1.273438 -0.472656 0.828125 -0.785156 0.453125 -1.171875 L 0.84375 -1.8125 C 0.875 -1.863281 0.914062 -1.90625 0.96875 -1.9375 C 1.03125 -1.976562 1.09375 -2 1.15625 -2 C 1.207031 -2 1.269531 -1.972656 1.34375 -1.921875 C 1.425781 -1.867188 1.515625 -1.804688 1.609375 -1.734375 C 1.710938 -1.660156 1.820312 -1.578125 1.9375 -1.484375 C 2.0625 -1.398438 2.203125 -1.320312 2.359375 -1.25 C 2.523438 -1.175781 2.707031 -1.113281 2.90625 -1.0625 C 3.113281 -1.019531 3.34375 -1 3.59375 -1 C 3.90625 -1 4.1875 -1.039062 4.4375 -1.125 C 4.6875 -1.21875 4.894531 -1.34375 5.0625 -1.5 C 5.238281 -1.65625 5.375 -1.84375 5.46875 -2.0625 C 5.5625 -2.289062 5.609375 -2.539062 5.609375 -2.8125 C 5.609375 -3.101562 5.539062 -3.34375 5.40625 -3.53125 C 5.269531 -3.726562 5.09375 -3.890625 4.875 -4.015625 C 4.65625 -4.148438 4.398438 -4.257812 4.109375 -4.34375 C 3.828125 -4.4375 3.535156 -4.53125 3.234375 -4.625 C 2.941406 -4.71875 2.65625 -4.828125 2.375 -4.953125 C 2.09375 -5.078125 1.835938 -5.238281 1.609375 -5.4375 C 1.390625 -5.632812 1.210938 -5.878906 1.078125 -6.171875 C 0.941406 -6.472656 0.875 -6.84375 0.875 -7.28125 C 0.875 -7.625 0.941406 -7.957031 1.078125 -8.28125 C 1.210938 -8.613281 1.410156 -8.90625 1.671875 -9.15625 C 1.929688 -9.414062 2.25 -9.617188 2.625 -9.765625 C 3.007812 -9.921875 3.445312 -10 3.9375 -10 C 4.488281 -10 4.988281 -9.910156 5.4375 -9.734375 C 5.894531 -9.554688 6.296875 -9.300781 6.640625 -8.96875 Z M 6.3125 -8.34375 "/></g></g></g></svg>